<svg xmlns="http://www.w3.org/2000/svg" width="249" height="201.699" viewBox="0 0 249 201.699">
  <g id="doctor" transform="translate(-49.937 -21.269)">
    <path id="Caminho_1" data-name="Caminho 1" d="M85.964,64.25S52.7,68.932,50.3,106.282l22.982,5.463Z" transform="translate(-0.08 -9.439)" fill="#2784ff"/>
    <path id="Caminho_2" data-name="Caminho 2" d="M85.964,64.25S52.7,68.932,50.3,106.282l22.982,5.463Z" transform="translate(-0.08 -9.439)" fill="#fff" opacity="0.46"/>
    <rect id="Retângulo_6" data-name="Retângulo 6" width="58.115" height="72.436" transform="translate(151.249 23.034)" fill="#e6e6e6"/>
    <rect id="Retângulo_7" data-name="Retângulo 7" width="28.742" height="4.456" transform="translate(205.065 116.657)" fill="#ffd200"/>
    <rect id="Retângulo_8" data-name="Retângulo 8" width="28.742" height="4.456" transform="translate(207.546 112.208)" fill="#ffd200"/>
    <rect id="Retângulo_9" data-name="Retângulo 9" width="28.742" height="4.456" transform="translate(207.546 112.208)" opacity="0.08"/>
    <ellipse id="Elipse_1" data-name="Elipse 1" cx="119.446" cy="14.445" rx="119.446" ry="14.445" transform="translate(60.045 194.079)" fill="#e6e6e6" opacity="0.45"/>
    <rect id="Retângulo_10" data-name="Retângulo 10" width="172.583" height="86.053" transform="translate(93.056 121.113)" fill="#c9c9c9"/>
    <rect id="Retângulo_11" data-name="Retângulo 11" width="172.583" height="11.316" transform="translate(93.056 121.113)" fill="#e6e6e6"/>
    <path id="Caminho_3" data-name="Caminho 3" d="M192.757,150.9s4.682,23.412-13.267,31.738-19.315,30.341-5.79,52.629H112.51l3.738-65.9,35.9-20.165,31.215.39Z" transform="translate(-13.742 -28.097)" opacity="0.08"/>
    <path id="Caminho_4" data-name="Caminho 4" d="M52.179,118.73s-10.207,37.935,12.939,38l7.609-19.51-3.816-14.5Z" transform="translate(0 -21.404)" fill="#f4a28c"/>
    <path id="Caminho_5" data-name="Caminho 5" d="M52.179,118.73s-10.207,37.935,12.939,38l7.609-19.51-3.816-14.5Z" transform="translate(0 -21.404)" fill="#ce8172" opacity="0.31"/>
    <path id="Caminho_6" data-name="Caminho 6" d="M104.856,255.14s-1.21,3.4-4.277,3.668-3.9,3.278-1.1,4.05,9.864-2.8,9.864-2.8l-.211-4.425Z" transform="translate(-10.505 -51.361)" fill="#24285b"/>
    <path id="Caminho_7" data-name="Caminho 7" d="M163.2,254.47s1.21,3.4,4.276,3.676,3.863,3.27,1.1,4.042-9.872-2.794-9.872-2.794l.218-4.433Z" transform="translate(-23.886 -51.214)" fill="#24285b"/>
    <path id="Caminho_8" data-name="Caminho 8" d="M278.073,132.518s-8.522-2.287-10.4-10.2c0,0,13.165-2.716,13.6,10.925Z" transform="translate(-47.817 -22.143)" fill="#2784ff" opacity="0.58"/>
    <path id="Caminho_9" data-name="Caminho 9" d="M281.472,129.245s-5.986-9.365-.78-18.175c0,0,10.044,6.321,5.642,18.175Z" transform="translate(-50.209 -19.721)" fill="#2784ff" opacity="0.73"/>
    <path id="Caminho_10" data-name="Caminho 10" d="M284.25,131.024s3.122-9.934,12.58-11.854c0,0,1.8,6.438-6.095,11.854Z" transform="translate(-51.458 -21.5)" fill="#2784ff"/>
    <path id="Caminho_11" data-name="Caminho 11" d="M276.34,134.11l1.779,11.784h10.855l1.553-11.784Z" transform="translate(-49.721 -24.781)" fill="#24285b"/>
    <path id="Caminho_12" data-name="Caminho 12" d="M131.721,35.85l-1.928-1.9h0c-.328-2.029-.726-3.559-.726-3.559-.7-3.442-6.11-5.112-8.928-2.271a5.158,5.158,0,0,0-1.35,5.829l2.528,4.682a6.373,6.373,0,0,0,5.712,3.9,2.887,2.887,0,0,0,3.122-2.638,16.134,16.134,0,0,0,0-2.045l1.2-.445a.921.921,0,0,0,.367-1.561Z" transform="translate(-15.035 -1.189)" fill="#f4a28c"/>
    <path id="Caminho_13" data-name="Caminho 13" d="M118.869,38.68,117.3,57.464l10.41.125-2.965-13.376Z" transform="translate(-14.794 -3.824)" fill="#f4a28c"/>
    <path id="Caminho_14" data-name="Caminho 14" d="M114.71,30.535c1.943.983,2.216,3.387,2.724,5.463l.617,2.583a3.9,3.9,0,0,0,4.394-2.341,4.62,4.62,0,0,0,.258-3.122A1.662,1.662,0,0,1,124.16,31l.858-.086a7.429,7.429,0,0,0,3.122-1.132h0l-.3-4.058" transform="translate(-14.225 -0.977)" fill="#24285b"/>
    <path id="Caminho_15" data-name="Caminho 15" d="M124.533,38.436s-.406-2.177-2.021-1.732-1.038,3.59,1.241,3.512Z" transform="translate(-15.736 -3.376)" fill="#f4a28c"/>
    <path id="Caminho_16" data-name="Caminho 16" d="M126.041,45.79a7.024,7.024,0,0,1-3.371-1.67s-.726,4.066,4.222,5.463Z" transform="translate(-15.965 -5.018)" fill="#ce8172" opacity="0.31"/>
    <path id="Caminho_17" data-name="Caminho 17" d="M92.732,63s26.97-8.1,54.455,3.332-14.273,84.922-14.273,84.922H90.8S51.77,71.269,92.732,63Z" transform="translate(-5.287 -8.552)" fill="#2784ff"/>
    <circle id="Elipse_2" data-name="Elipse 2" cx="3.668" cy="3.668" r="3.668" transform="translate(162.963 32.344)" fill="#c9c9c9"/>
    <path id="Caminho_18" data-name="Caminho 18" d="M203.89,50.1c-.476-2.669-6.828-2.466-7.164-2.458s-6.68-.211-7.156,2.458c-.4,2.224-1.881,11.167-2.427,14.476a1.334,1.334,0,0,0,1.015,1.561h0a1.342,1.342,0,0,0,1.607-1.014l2.63-11.76.492,13.071-.453,19.307a1.561,1.561,0,0,0,1.374,1.561h0a1.561,1.561,0,0,0,1.748-1.452l.827-13.267a.343.343,0,0,1,.687,0l.835,13.267a1.561,1.561,0,0,0,1.748,1.452h0a1.561,1.561,0,0,0,1.374-1.561l-.453-19.307.5-13.11,2.614,11.768a1.342,1.342,0,0,0,1.608,1.014h0a1.342,1.342,0,0,0,1.022-1.561C205.755,61.264,204.28,52.321,203.89,50.1Z" transform="translate(-30.126 -5.79)" fill="#c9c9c9"/>
    <path id="Caminho_19" data-name="Caminho 19" d="M128.365,38.293h4.87l-2.06,6.906-8.4-4.682V39.9l2.607,1.381a1,1,0,0,0,1.475-.905h0a2.614,2.614,0,0,0-1.483-2.24l-.78-.39-.655-.827,1.647.78A6.836,6.836,0,0,0,128.365,38.293Z" transform="translate(-15.995 -3.437)" fill="#2784ff"/>
    <path id="Caminho_20" data-name="Caminho 20" d="M98.317,87.3h10l4.768,29.124H100.143s-5.4,23.981,13.267,40.775H91.395s-11.519-27.992-13.68-37.974L76.7,97.6Z" transform="translate(-5.877 -14.501)" opacity="0.08"/>
    <path id="Caminho_21" data-name="Caminho 21" d="M117.48,60.389l5.065,9.365,4.745-9.6A23.466,23.466,0,0,0,117.48,60.389Z" transform="translate(-14.833 -8.45)" fill="#f4a28c"/>
    <path id="Caminho_22" data-name="Caminho 22" d="M70.46,77.82H95.128l3.644,28.593H74.456Z" transform="translate(-4.507 -12.419)" fill="#ffd200"/>
    <path id="Caminho_23" data-name="Caminho 23" d="M79.99,98.7a7.523,7.523,0,0,1,5.908,5.463c1.5,4.971,13.985,2.1,13.985,2.1l.6,4.737-22.342-.07Z" transform="translate(-6.194 -17.005)" opacity="0.08"/>
    <path id="Caminho_24" data-name="Caminho 24" d="M79.42,75.05l1.093,4.316h9.029l-.827-4.316Z" transform="translate(-6.475 -11.811)" fill="#24285b"/>
    <path id="Caminho_25" data-name="Caminho 25" d="M72.876,107.4s-3.769-7.258,1.74-9.872,6.7,7.2,2.068,13.048Z" transform="translate(-4.761 -16.652)" fill="#24285b"/>
    <path id="Caminho_26" data-name="Caminho 26" d="M116.646,35.059s3.379-4.3,10.925-5.353c0,0,2.934-4.245-.843-7.234s-12.752.047-14.827,4.159C110.738,28.941,109.95,35.106,116.646,35.059Z" transform="translate(-13.437 0)" fill="#2784ff"/>
    <path id="Caminho_27" data-name="Caminho 27" d="M70.173,108.42s-20.2,41.361-6.126,45.91S74.84,112.322,74.84,112.322Z" transform="translate(-2.004 -19.139)" fill="#f4a28c"/>
    <path id="Caminho_28" data-name="Caminho 28" d="M150.3,77.267c3.761-7.8,14.047-9.716,20.665-4.1,9.287,7.929,26.393,29.936,29.514,50.967,4.948,33.3-42.4,36.421-42.4,36.421l-1.561-7.281s31.059-7.8,22.163-29.655C171.569,106.141,143.928,90.486,150.3,77.267Z" transform="translate(-21.834 -10.688)" fill="#f4a28c"/>
    <path id="Caminho_29" data-name="Caminho 29" d="M179.76,75s27.017,7.148,32.581,32.277H198.388Z" transform="translate(-28.511 -11.8)" opacity="0.08"/>
    <path id="Caminho_30" data-name="Caminho 30" d="M149.432,74.389s8.194-10.012,18.6-4.035,24.028,27.969,24.028,27.969l-22.99,16.6S135.651,86.352,149.432,74.389Z" transform="translate(-21.119 -10.362)" fill="#2784ff"/>
    <path id="Caminho_31" data-name="Caminho 31" d="M149.432,74.389s8.194-10.012,18.6-4.035,24.028,27.969,24.028,27.969l-22.99,16.6S135.651,86.352,149.432,74.389Z" transform="translate(-21.119 -10.362)" fill="#fff" opacity="0.46"/>
    <path id="Caminho_32" data-name="Caminho 32" d="M137.616,176.87H95.53l7.031,62.056H110.5l6.992-50.273,26.174,50.273h7.8Z" transform="translate(-10.013 -34.172)" fill="#2784ff"/>
    <path id="Caminho_33" data-name="Caminho 33" d="M137.616,176.87H95.53l7.031,62.056H110.5l6.992-50.273,26.174,50.273h7.8Z" transform="translate(-10.013 -34.172)" opacity="0.08"/>
    <rect id="Retângulo_12" data-name="Retângulo 12" width="20.875" height="16.872" transform="translate(181.684 31.251)" fill="#c9c9c9"/>
    <rect id="Retângulo_13" data-name="Retângulo 13" width="20.875" height="3.434" transform="translate(181.684 54.179)" fill="#fff"/>
    <rect id="Retângulo_14" data-name="Retângulo 14" width="20.875" height="3.434" transform="translate(181.684 60.898)" fill="#fff" opacity="0.5"/>
    <rect id="Retângulo_15" data-name="Retângulo 15" width="20.875" height="3.434" transform="translate(181.684 68.413)" fill="#fff" opacity="0.5"/>
    <circle id="Elipse_3" data-name="Elipse 3" cx="4.479" cy="4.479" r="4.479" transform="translate(196.106 81.321)" fill="#24285b"/>
    <path id="Caminho_34" data-name="Caminho 34" d="M155.6,176.73s-13.79,3.075-9.708,8.537,11.269-1.256,11.269-1.256Z" transform="translate(-20.906 -34.141)" fill="#24285b"/>
    <path id="Caminho_35" data-name="Caminho 35" d="M110.58,73.811c-.07-.46-1.561-11.323,5.463-14.531v1c-6.446,2.958-4.682,13.267-4.682,13.407Z" transform="translate(-13.279 -8.348)" fill="#24285b"/>
    <path id="Caminho_36" data-name="Caminho 36" d="M134.148,83.221l-.78-.164c4.074-19.83-3.449-23.037-3.527-23.068V59.13C130.2,59.255,138.362,62.728,134.148,83.221Z" transform="translate(-17.548 -8.315)" fill="#24285b"/>
    <path id="Caminho_37" data-name="Caminho 37" d="M137.815,101.243l-1.522-.375c0-.055,1.3-5.463-.648-8.147A3.488,3.488,0,0,0,132.9,91.3a3.652,3.652,0,0,0-2.965.975c-2.45,2.341-2.224,7.976-2.224,8.03l-1.561.07c0-.258-.258-6.345,2.692-9.216a5.228,5.228,0,0,1,4.214-1.42,5.049,5.049,0,0,1,3.9,2.06C139.3,95.055,137.87,100.986,137.815,101.243Z" transform="translate(-16.736 -15.03)" fill="#24285b"/>
    <circle id="Elipse_4" data-name="Elipse 4" cx="1.467" cy="1.467" r="1.467" transform="translate(114.946 73.93)" fill="#ffd200"/>
    <circle id="Elipse_5" data-name="Elipse 5" cx="2.825" cy="2.825" r="2.825" transform="translate(95.007 63.06)" fill="#ffd200"/>
    <circle id="Elipse_6" data-name="Elipse 6" cx="1.608" cy="1.608" r="1.608" transform="translate(96.224 64.277)" opacity="0.08"/>
    <path id="Caminho_38" data-name="Caminho 38" d="M129.391,110.674c-3.317-1.654-2.825-9.224-2.8-9.544l.78.055c0,.078-.484,7.367,2.341,8.8Z" transform="translate(-16.825 -17.538)" fill="#24285b"/>
    <circle id="Elipse_7" data-name="Elipse 7" cx="1.311" cy="1.311" r="1.311" transform="translate(111.707 91.294)" fill="#ffd200"/>
    <path id="Caminho_39" data-name="Caminho 39" d="M135.61,110.627l-.25-.734c3.028-1.007,3.6-8.3,3.605-8.374l.78.062C139.715,101.895,139.129,109.464,135.61,110.627Z" transform="translate(-18.76 -17.624)" fill="#24285b"/>
    <circle id="Elipse_8" data-name="Elipse 8" cx="1.311" cy="1.311" r="1.311" transform="translate(115.172 91.107)" fill="#ffd200"/>
  </g>
</svg>
