<svg xmlns="http://www.w3.org/2000/svg" width="424.901" height="392.627" viewBox="0 0 424.901 392.627">
  <g id="Health_professional_team-cuate" data-name="Health professional team-cuate" transform="translate(-19.59 -38.942)">
    <g id="freepik--background-complete--inject-35" transform="translate(42.269 38.942)">
      <path id="Caminho_249" data-name="Caminho 249" d="M72.51,243.18a34.807,34.807,0,0,1-.12,4.509c.065-1,.074-2,.092-3Z" transform="translate(-46.385 -54.862)" fill="#ebebeb"/>
      <path id="Caminho_250" data-name="Caminho 250" d="M81.819,335.069c-.212.424.507.784.738.378A95.894,95.894,0,0,0,94.82,299.081a50.418,50.418,0,0,0,10.7-18.985h.055c6.021-.858,12.383-2.443,15.776-7.948,3.153-5.136,3.688-12.42,4.223-18.238l.1-.092a.249.249,0,0,0-.323-.378,86.884,86.884,0,0,0-12.909,11.895c-3.356,3.909-4.61,8.409-6.454,13.029a94.271,94.271,0,0,0,3.31-25.725.3.3,0,0,0,.083-.323l-.083-.267v-.3a.138.138,0,0,0,0-.065c3.919-4.223,7.183-7.441,7.515-13.416.406-7.376-2.858-13.241-5.781-19.741a.323.323,0,0,0-.581,0c-2.407,5.108-5.412,10.548-5.827,16.274-.452,6.067,1.844,12.171,4.048,17.722a.387.387,0,0,0,.157.166c-1.6,16.145-5.2,31.073-13.831,44.858,2.766-24.066-3.126-48.74-13.093-71.634h0c14.144-5.311,10.336-19,8.483-30.926a5.616,5.616,0,0,0-.092-.618h0c0-.065,0-.092-.092-.055s-7.459,9.838-8.953,15.325c-1.2,4.472-.664,9.4-.332,14.1q-2.987-6.666-6.4-13.112v-.784a.111.111,0,0,0,.055-.175v-.055c.175-5.237.341-10.456-1.844-15.361-2.517-5.652-7.293-10.3-11.756-14.485,0-.074-.3,0-.3.065-.627,5.9-1.844,13.2.738,18.828,2.37,5.191,8.123,8.068,12.291,11.572l.1.055c7.81,18.791,16.1,37.509,19.179,57.693a92.288,92.288,0,0,1-23-21.364c3.541-3.3,5.929-6.989,5.643-12.033a32.567,32.567,0,0,0-7.376-18.552h0a.2.2,0,0,0-.157-.083.323.323,0,0,0-.387.433c-4.223,9.221-4.168,17.141-.977,25.818a141.609,141.609,0,0,1-9.35-15.555c2.766-10.345-6.528-15.786-12.77-22.563-.175-.194-.535,0-.4.258.055.092.12.175.175.258-1.162,10.76,3.043,19.17,12.909,24.195a.544.544,0,0,0,.2.046,78.375,78.375,0,0,0,16.366,25.025,23.051,23.051,0,0,0-7.884-3.688c-5.606-1.3-10.438,1.06-15.675,2.711l-.138.046h-.083a.433.433,0,0,0-.065.821l.046.046c8,5.228,19.114,12.245,27.662,4.029l.572.341a97.912,97.912,0,0,0,14.578,11.175.6.6,0,0,0,.267.083c.249,1.77.47,3.559.627,5.348A108.425,108.425,0,0,1,88.6,318.288c-6.943-9.709-11.812-19.114-14.32-30.99,2.5-9.654-2.877-17.012-9.525-23.807h0a.24.24,0,0,0-.443.083c-.922,4.61-2.379,10.6-.692,15.168s6.076,7.5,10.041,9.755a.267.267,0,0,0,.092,0,68.048,68.048,0,0,0,4.38,15.4,25.873,25.873,0,0,0-8.575-8.658c-4.509-2.619-8.99-2.49-14.061-2.093-.406,0,6.233,17.823,23.217,12.6l.562.682a54.079,54.079,0,0,0,8.843,13.342,131.856,131.856,0,0,1-6.3,15.306Zm-3.55-29.939c-4.684.083-9.654.452-13.831-2.121-3.836-2.388-5.412-5.532-8.216-9.11,5.108.286,9.221-.35,14.006,2.886,3.292,2.185,5.578,5.329,8,8.345Zm-4.749-17.8c-4.186-2.388-8.216-5.744-9.073-10.641-.719-4.112.111-8.3.286-12.485,2.3,3.006,4.61,6.058,6.593,9.221,2.9,4.61,2.766,8.557,2.4,13.517a.314.314,0,0,0-.2.35ZM56.545,227A25.568,25.568,0,0,1,47.7,218.54c-2.545-4.232-2.158-8.64-2.9-13.268,1.844,2.683,4.278,4.666,6.6,6.971C55.651,216.41,57.486,221.1,56.545,227ZM69.832,245.16l-.175.212a74.613,74.613,0,0,1-2.443-13.757c-.267-4.49.682-8.843.922-13.278a89.975,89.975,0,0,1,1.844,13.527c.1,1.992.3,4.168.369,6.344,0-2.112,0-4.223-.074-6.335A68.454,68.454,0,0,0,68.2,217.526a1.632,1.632,0,0,0,0-.212c1.512,5.145,4.537,9.709,4.924,15.177A20.746,20.746,0,0,1,69.98,244.9a17.215,17.215,0,0,0,.24-2.185A17.139,17.139,0,0,1,69.832,245.16Zm-1.844-27.5v.24a65.6,65.6,0,0,0-1.06,14.135,80.017,80.017,0,0,0,2.526,13.48l-.111.129c-1.844-5.256-4.278-10.475-3.937-16.182C65.683,225.5,67.066,221.573,67.988,217.664ZM70.846,243.9a20.119,20.119,0,0,0,2.563-10.364c-.1-5.717-3.061-10.438-4.905-15.675,2.065,3.919,4.048,7.6,5.127,12.042,1.5,6.169.443,9.857-2.785,14Zm6.095,13.536c-4.057,2.148-8,3.568-12.8,2.7s-8.695-3.946-12.623-6.556c4.739-1.106,9.082-3.283,14.107-2.121C69.98,252.425,73.29,255.1,76.941,257.432Zm-3.688-52.151A68.785,68.785,0,0,0,61.718,180.9c3.688,4.011,7.118,7.9,9.4,12.964,1.706,3.771,1.752,7.57,2.121,11.378Zm.138,2.987a192.949,192.949,0,0,0-11.765-27.025A78.034,78.034,0,0,1,73.52,207.235c.065.452.138.922.221,1.365ZM64.3,195.7c-1.89-4.767-2.222-10.143-3.117-15.131A250.42,250.42,0,0,1,73.29,208.111C69.915,204.257,66.144,200.449,64.3,195.7Zm8.981,12.77c-3.817-3.08-8.437-5.892-10.447-10.5-2.112-4.85-1.844-12.383-1.844-17.7.682,5.274,1.18,11.065,3.246,15.961,1.909,4.638,5.643,8.5,9.027,12.245Zm9.884,5.7h0c.83-6.676,4.454-11.987,6.823-18.091A53.119,53.119,0,0,1,88,210.472c-1.362,4.951-3.925,9.414-6,14.088a85.952,85.952,0,0,1,.922-8.944s0-.055-.055,0a53.931,53.931,0,0,0-1.106,8.428c-.129-5.062-.221-10.843,1.282-15.49,1.632-5.044,4.666-8.842,6.943-13.342v.231c-2.886,5.846-6.132,12.2-6.842,18.727Zm7.146-16.016c.35,4.739.784,9.58-.341,14.19A25.273,25.273,0,0,1,82,225.077a73.505,73.505,0,0,0,6.27-14.55,58.456,58.456,0,0,0,1.411-7.5c.221-1.586.489-3.236.609-4.878Zm-8.354,27.339v-.3a24.453,24.453,0,0,0,7.9-11.793,29.506,29.506,0,0,0,1.088-10.309,44.709,44.709,0,0,1,.415,6.454c-.175,7.321-3.485,12.079-9.423,15.952Zm27.182,25.947c-1.77-5.431-3.882-11.747-3.153-17.381.3-2.342,4.527-13.831,4.832-14,0,0,4.758,11.341,4.675,17.123-.12,6.3-3.937,9.184-6.371,14.255Zm-3.07,27.662c2.508-4.453,3.624-9.221,7.091-13.268,3.688-4.223,7.939-7.828,12.042-11.59-1.162,4.749-1.623,9.737-3.365,14.31-2.739,7.155-8.981,9.165-15.786,10.576Z" transform="translate(-44.186 -49.917)" fill="#ebebeb"/>
      <path id="Caminho_251" data-name="Caminho 251" d="M56.18,228.354l.424,1.023c0,.092.184.055.157-.046s-.129-.369-.184-.562l.286.3A7.4,7.4,0,0,0,57,230h.065a5.393,5.393,0,0,0-.129-.848l.387.415h0l-.424-.443c-1.272-8.133-5.92-14.947-11.323-21-.138-.231-.267-.461-.415-.692H45.1a.083.083,0,0,0-.138,0l-.157-.175a.053.053,0,0,0-.083.065l.286.406a54.4,54.4,0,0,0,4.122,11.876C50.9,223.006,53.543,225.625,56.18,228.354ZM45.724,208.632c3.448,6.556,7.478,12.8,10.4,19.612a37.528,37.528,0,0,1-6.749-8.815,63.944,63.944,0,0,1-4.02-11.286Zm10.825,20.045a56.519,56.519,0,0,0-4.8-9.774c-1.669-2.987-3.31-5.993-5.025-8.953,1.973,2.563,4.085,5.007,5.855,7.727A29.174,29.174,0,0,1,56.853,229Z" transform="translate(-44.227 -52.06)" fill="#ebebeb"/>
      <path id="Caminho_252" data-name="Caminho 252" d="M51.081,259.968l1.079-.23a24.971,24.971,0,0,0,6.242,3.43,24.684,24.684,0,0,0,6.528,2.01,22.129,22.129,0,0,0,12.466-1.8l.516.23v-.074h0v-.074l-.313-.1h-.092l.609-.3h0l-.645.286a40.571,40.571,0,0,0-12.909-4.712c-4.2-.609-8.418.074-12.54.968l-.2-.138h0l.138.129h-.175l-.738.166C50.9,259.8,51,260.005,51.081,259.968Zm25.513,3.052A71.183,71.183,0,0,0,53.2,259.526a33.027,33.027,0,0,1,11.369-.673C68.747,259.479,72.73,261.305,76.594,263.02Zm-24.278-3.31h.1a80.109,80.109,0,0,1,24.9,3.688h.055C68.839,267.013,59.812,264.763,52.316,259.71Z" transform="translate(-44.715 -56.049)" fill="#ebebeb"/>
      <path id="Caminho_253" data-name="Caminho 253" d="M75.124,295.173a.1.1,0,1,0,.194,0V294.6c.157.175.323.341.479.507a.074.074,0,0,0,.1-.1l-.581-.636c.148-8.16-3.236-15.389-7.985-21.8-.221-.461-.452-.922-.692-1.374h-.055l.341.8-.3-.4v-.074l-.138-.184s-.092,0-.074.055l.212.3c0,4.3.083,8.677,1.614,12.752,1.411,3.762,4.066,6.9,6.8,9.792v.221c0,.074.065,0,.065,0v-.12h0C75.124,294.648,75.133,294.915,75.124,295.173Zm0-1.033-.111-.12a47.283,47.283,0,0,0-2.987-9.728h0a53.387,53.387,0,0,1,2.932,9.645c-2.766-3.089-5.431-6.242-6.74-10.29-1.226-3.8-1.365-7.865-1.558-11.839.175.258.341.516.516.765,1.245,2.9,2.582,5.744,3.688,8.686h0c-1-2.637-1.982-5.274-3.163-7.828a42.8,42.8,0,0,1,5.247,9.377,34.854,34.854,0,0,1,2.176,11.332Z" transform="translate(-45.919 -57.046)" fill="#ebebeb"/>
      <path id="Caminho_254" data-name="Caminho 254" d="M56.975,303.645l.3.055c5.431,6.408,13.941,11.258,22.48,10.991v-.055c-4.712-.535-8.861-1.374-13.084-3.688a35.6,35.6,0,0,1-9.165-7.238l.562.1a99.019,99.019,0,0,1,20.405,10l.406.378h0l-.249-.267.664.433s.083,0,0-.065c-.406-.314-.83-.627-1.254-.922-2.711-2.766-5.532-5.4-9.221-7.017a42.415,42.415,0,0,0-11.332-2.9l-.452-.138-.277-.3c-.046-.055-.12,0-.074.074l.157.194v.12a.136.136,0,0,0,.129.24Zm2.674.489a39.724,39.724,0,0,1,9.156,2.554,32.437,32.437,0,0,1,8.861,6.454,69.818,69.818,0,0,0-17.98-9.008Z" transform="translate(-45.16 -59.524)" fill="#ebebeb"/>
      <path id="Caminho_255" data-name="Caminho 255" d="M114.426,255.147a1.652,1.652,0,0,1,0-.212.129.129,0,0,0,.083-.074c2.342-4.61,4.472-10.143,4.758-15.343a31.581,31.581,0,0,0-.839-7.718,79.409,79.409,0,0,0-2.2-9.138.129.129,0,0,0-.249.065c.1.479.2.922.313,1.448,0,5.237.166,10.475-.341,15.675-.47,4.9-1.337,9.728-1.586,14.642l-.083.212a.138.138,0,0,0,.065.184c0,.074,0,.157,0,.231S114.426,255.239,114.426,255.147Zm.055-.848c.3-4.832,1.263-9.6,1.715-14.421a107.66,107.66,0,0,0,.175-15.426c1.1,4.684,2.545,9.442,2.526,14.264-.028,5.329-2.305,10.751-4.417,15.6Z" transform="translate(-49.649 -53.256)" fill="#ebebeb"/>
      <path id="Caminho_256" data-name="Caminho 256" d="M114.033,255.644c-.212-5.265-2.259-10.078-1.789-15.417a42.415,42.415,0,0,1,3.163-13.278h.065a44.535,44.535,0,0,0-3.043,14.393c-.24,4.85,1.54,9.46,1.715,14.283a.056.056,0,0,1-.111.018Z" transform="translate(-49.486 -53.597)" fill="#ebebeb"/>
      <path id="Caminho_257" data-name="Caminho 257" d="M109.487,285.464a7.173,7.173,0,0,0,1.079-.129c0,.055,0,.1.1.074l.175-.111h.24l-.092.138c-.083.111.092.2.175.1s.138-.194.212-.3a23.3,23.3,0,0,0,13.646-8.76c3.513-4.564,3.882-10.834,5.634-16.164,0-.1-.129-.175-.184-.074-.166.369-.314.738-.461,1.106.065-.221.148-.452.212-.673,0,0-.046-.065-.065,0-2.2,4.915-4.4,9.672-7.754,13.932a50.251,50.251,0,0,1-10.336,9.691c2.766-3.937,5.145-8.133,8.243-11.894,3.255-3.946,6.574-7.837,9.838-11.775l-.055-.046c-3.753,3.817-7.072,8.142-10.465,12.282-3.043,3.734-5.394,7.874-8.114,11.821-.129.1-.267.194-.406.286a16.2,16.2,0,0,1-1.614.23C109.284,285.151,109.275,285.483,109.487,285.464Zm2.241-.747c7.533-4.951,14.467-12.853,17.639-21.447-1.116,3.854-1.494,7.957-3.587,11.452a22.6,22.6,0,0,1-14.117,10.087A.332.332,0,0,0,111.728,284.717Z" transform="translate(-49.264 -56.188)" fill="#ebebeb"/>
      <path id="Caminho_258" data-name="Caminho 258" d="M69,331.37s.535,4.8,1.282,11.618c1.761,16.09,4.73,43.337,4.73,45.015h26.675c0-1.66,2.951-28.925,4.712-45.015.738-6.814,1.272-11.618,1.272-11.618Z" transform="translate(-46.121 -61.736)" fill="#dbdbdb"/>
      <path id="Caminho_259" data-name="Caminho 259" d="M69,331.37s.535,4.8,1.282,11.618h36.154c.738-6.814,1.272-11.618,1.272-11.618Z" transform="translate(-46.121 -61.736)" fill="#c7c7c7"/>
      <rect id="Retângulo_149" data-name="Retângulo 149" width="43.549" height="8.483" transform="translate(64.022 276.199) rotate(180)" fill="#dbdbdb"/>
      <circle id="Elipse_29" data-name="Elipse 29" cx="30.243" cy="30.243" r="30.243" transform="translate(111.406 9.901)" fill="#ebebeb"/>
      <circle id="Elipse_30" data-name="Elipse 30" cx="28.86" cy="28.86" r="28.86" transform="translate(102.227 40.815) rotate(-45)" fill="#dbdbdb"/>
      <circle id="Elipse_31" data-name="Elipse 31" cx="27.035" cy="27.035" r="27.035" transform="translate(107.493 26.732) rotate(-23.38)" fill="#fff"/>
      <rect id="Retângulo_150" data-name="Retângulo 150" width="0.692" height="4.094" transform="translate(142.691 15.747)" fill="#ebebeb"/>
      <rect id="Retângulo_151" data-name="Retângulo 151" width="0.692" height="4.094" transform="matrix(0.866, -0.5, 0.5, 0.866, 130.2, 19.291)" fill="#ebebeb"/>
      <rect id="Retângulo_152" data-name="Retângulo 152" width="0.692" height="4.094" transform="matrix(0.5, -0.866, 0.866, 0.5, 121.131, 28.572)" fill="#ebebeb"/>
      <rect id="Retângulo_153" data-name="Retângulo 153" width="4.094" height="0.692" transform="translate(117.962 40.476)" fill="#ebebeb"/>
      <rect id="Retângulo_154" data-name="Retângulo 154" width="4.108" height="0.694" transform="translate(121.796 53.416) rotate(-29.887)" fill="#ebebeb"/>
      <rect id="Retângulo_155" data-name="Retângulo 155" width="4.094" height="0.692" transform="translate(130.211 62.372) rotate(-60.03)" fill="#ebebeb"/>
      <rect id="Retângulo_156" data-name="Retângulo 156" width="0.692" height="4.094" transform="translate(142.691 61.794)" fill="#ebebeb"/>
      <rect id="Retângulo_157" data-name="Retângulo 157" width="0.692" height="4.094" transform="translate(153.235 59.182) rotate(-30)" fill="#ebebeb"/>
      <rect id="Retângulo_158" data-name="Retângulo 158" width="0.692" height="4.094" transform="translate(161.032 51.605) rotate(-60)" fill="#ebebeb"/>
      <rect id="Retângulo_159" data-name="Retângulo 159" width="4.103" height="0.692" transform="translate(164.009 40.476)" fill="#ebebeb"/>
      <rect id="Retângulo_160" data-name="Retângulo 160" width="4.108" height="0.694" transform="translate(161.834 30.301) rotate(-29.887)" fill="#ebebeb"/>
      <rect id="Retângulo_161" data-name="Retângulo 161" width="4.094" height="0.692" transform="translate(153.232 22.487) rotate(-60.03)" fill="#ebebeb"/>
      <rect id="Retângulo_162" data-name="Retângulo 162" width="26.159" height="0.692" transform="translate(135.181 55.462) rotate(-63.04)" fill="#ebebeb"/>
      <rect id="Retângulo_163" data-name="Retângulo 163" width="0.922" height="25.762" transform="translate(140.747 31.706) rotate(-11.32)" fill="#dbdbdb"/>
      <rect id="Retângulo_164" data-name="Retângulo 164" width="134.011" height="305.302" transform="translate(245.528 20.965)" fill="#ebebeb"/>
      <path id="Caminho_260" data-name="Caminho 260" d="M309.859,366.37H302.63V53.84l7.229,7.229Z" transform="translate(-64.331 -40.104)" fill="#dbdbdb"/>
      <rect id="Retângulo_165" data-name="Retângulo 165" width="98.964" height="141.941" transform="translate(263.056 39.028)" fill="#fff"/>
      <path id="Caminho_261" data-name="Caminho 261" d="M330.4,297.59c.212,5.883.313,11.765.47,17.648s.2,11.765.267,17.639q.212,17.648.175,35.287l-.922-.922,15.924.065,15.915.157,15.924.267c5.311.138,10.613.23,15.924.424-5.311.2-10.613.3-15.924.433l-15.924.267-15.915.157-15.924.065h-.922v-.922q0-17.63.175-35.287.092-8.815.267-17.639C330.088,309.355,330.18,303.5,330.4,297.59Z" transform="translate(-66.423 -59.103)" fill="#c7c7c7"/>
      <path id="Caminho_262" data-name="Caminho 262" d="M429.12,331.21c-.212-6.768-.3-13.545-.461-20.285L428.4,290.64c-.111-6.777-.083-13.545-.129-20.285L428.2,250.07l.922.922-19.778-.083c-6.6,0-13.195,0-19.787-.138l-19.787-.258c-6.593-.148-13.195-.24-19.787-.443,6.593-.2,13.195-.3,19.787-.443l19.787-.258c6.593-.111,13.185-.092,19.787-.138L429.111,249h.922v.922l-.074,20.285c-.046,6.777,0,13.545-.129,20.285l-.258,20.285C429.415,317.665,429.3,324.443,429.12,331.21Z" transform="translate(-68.022 -55.315)" fill="#c7c7c7"/>
      <path id="Caminho_263" data-name="Caminho 263" d="M443.87,61.069H309.859L302.63,53.84H443.87Z" transform="translate(-64.331 -40.104)" fill="#c7c7c7"/>
      <rect id="Retângulo_166" data-name="Retângulo 166" width="16.938" height="31.875" transform="translate(263.056 191.232)" fill="#dbdbdb"/>
      <path id="Caminho_264" data-name="Caminho 264" d="M342.389,253.92v7.229l-12.909-1.042V253.92Z" transform="translate(-66.424 -55.699)" fill="#c7c7c7"/>
      <rect id="Retângulo_167" data-name="Retângulo 167" width="22.452" height="7.229" transform="translate(253.504 194.607)" fill="#dbdbdb"/>
    </g>
    <g id="freepik--Shadows--inject-35" transform="translate(19.59 389.118)">
      <ellipse id="Elipse_32" data-name="Elipse 32" cx="100.725" cy="15.915" rx="100.725" ry="15.915" transform="translate(111.725 10.622)" fill="#ebebeb"/>
      <ellipse id="Elipse_33" data-name="Elipse 33" cx="100.725" cy="15.915" rx="100.725" ry="15.915" fill="#ebebeb"/>
      <ellipse id="Elipse_34" data-name="Elipse 34" cx="100.725" cy="15.915" rx="100.725" ry="15.915" transform="translate(223.451)" fill="#ebebeb"/>
    </g>
    <g id="freepik--Floor--inject-35" transform="translate(32.324 364.757)">
      <path id="Caminho_265" data-name="Caminho 265" d="M33.4,392.752l49.929-.221,49.929-.083,99.859-.148,99.858.148,49.929.083,49.929.221-49.929.23-49.929.083-99.858.148-99.859-.148-49.929-.083Z" transform="translate(-33.4 -392.3)" fill="#263238"/>
    </g>
    <g id="freepik--character-3--inject-35" transform="translate(277.617 71.391)">
      <path id="Caminho_266" data-name="Caminho 266" d="M366.552,370.2v39.731c0,7.6-.065,14.255-.433,17.694a.12.12,0,0,1,0,.055,5.3,5.3,0,0,1-.553,2.351.092.092,0,0,1,0,.046c-2.259,1.54-62.93,3.614-65.069,2.978s-.489-6.8,1.844-8.75,25.172-13.148,25.172-13.148l.387-39.648Z" transform="translate(-299.435 -97.211)" fill="#dd6a57"/>
      <path id="Caminho_267" data-name="Caminho 267" d="M366.542,404.45V412.6c0,7.6-.065,14.255-.433,17.694a.12.12,0,0,1,0,.055,10.2,10.2,0,0,1-.553,2.351.092.092,0,0,1,0,.046c-2.259,1.54-62.93,3.614-65.069,2.978s-.489-6.8,1.844-8.75S327.5,413.827,327.5,413.827l-.111-8.3Z" transform="translate(-299.434 -99.881)" fill="#455a64"/>
      <path id="Caminho_268" data-name="Caminho 268" d="M300.435,436.387c2.139.645,62.81-1.438,65.069-2.978.867-.581,1.079-9.433,1.033-20.147v-.332l-39.15.922v.664s-22.867,11.175-25.172,13.139S298.287,435.751,300.435,436.387Z" transform="translate(-299.429 -100.542)" fill="#c7c7c7"/>
      <path id="Caminho_269" data-name="Caminho 269" d="M301.168,435.632c10.216-.6,51.488-2.056,61.63-1.844.083,0,.083.055,0,.065-10.143.811-51.4,1.936-61.63,1.982C301,435.826,300.946,435.651,301.168,435.632Z" transform="translate(-299.553 -102.166)" fill="#263238"/>
      <path id="Caminho_270" data-name="Caminho 270" d="M326.2,414.844c3.992-.922,8.935-.443,12.107,2.324.129.1,0,.277-.157.24a56.723,56.723,0,0,0-11.922-2.056.258.258,0,0,1-.028-.507Z" transform="translate(-301.501 -100.658)" fill="#263238"/>
      <path id="Caminho_271" data-name="Caminho 271" d="M323.114,416.844c4-.922,8.944-.433,12.116,2.324.12.111,0,.286-.166.249a56.654,56.654,0,0,0-11.913-2.065.258.258,0,0,1-.037-.507Z" transform="translate(-301.26 -100.814)" fill="#263238"/>
      <path id="Caminho_272" data-name="Caminho 272" d="M319.984,418.854c4-.922,8.944-.443,12.116,2.324.129.111,0,.277-.157.24a56.825,56.825,0,0,0-11.922-2.056.258.258,0,0,1-.037-.507Z" transform="translate(-301.016 -100.97)" fill="#263238"/>
      <path id="Caminho_273" data-name="Caminho 273" d="M372.2,208.489l-1.512,118.678-.894,69.956-42.47-.848,8.308-190.155.424-21.77h35.859Z" transform="translate(-301.603 -82.725)" fill="#2784ff"/>
      <path id="Caminho_274" data-name="Caminho 274" d="M329.244,406.49c6.63-.055,4.721-.129,11.36-.111,3.236,0,24.564.074,27.588.618a.065.065,0,1,1,0,.129c-3.034.47-24.361,0-27.6-.046-6.63-.148-4.73-.175-11.36-.4a.1.1,0,0,1,.009-.194Z" transform="translate(-301.747 -100.031)" fill="#263238"/>
      <path id="Caminho_275" data-name="Caminho 275" d="M349.286,218.474a.074.074,0,1,0-.148,0c0,11.111-.35,22.212-.618,33.314s-.59,22.194-.922,33.3c-.6,22.194-1.494,44.369-2.314,66.545q-.692,18.662-1.724,37.316c0,.083.129.074.138,0,1.6-22.129,3.153-44.323,4.029-66.526s1.512-44.369,1.623-66.572C349.433,243.378,349.258,230.94,349.286,218.474Z" transform="translate(-302.869 -85.379)" fill="#263238"/>
      <path id="Caminho_276" data-name="Caminho 276" d="M373.456,208.489l-1.512,118.678L343.48,184.35h29.69Z" transform="translate(-302.863 -82.725)" fill="#263238"/>
      <path id="Caminho_277" data-name="Caminho 277" d="M381.39,371.406s5.081,37.8,5.081,37.869c.046,7.6.221,14.255.636,17.685a.12.12,0,0,0,0,.055,5.154,5.154,0,0,0,.581,2.342v.055c2.277,1.512,62.967,2.9,65.1,2.231s.406-6.8-1.9-8.732-25.329-12.853-25.329-12.853l-6.371-39.648Z" transform="translate(-305.818 -97.228)" fill="#dd6a57"/>
      <path id="Caminho_278" data-name="Caminho 278" d="M386.18,403.75c.4,4.739.664,8.1.664,8.123.046,7.6.221,14.255.636,17.685a.12.12,0,0,0,0,.055,9.82,9.82,0,0,0,.581,2.342s0,.046,0,.055c2.277,1.512,62.967,2.9,65.1,2.231s.406-6.8-1.9-8.732-25.329-12.853-25.329-12.853l-.756-8.372Z" transform="translate(-306.191 -99.826)" fill="#455a64"/>
      <path id="Caminho_279" data-name="Caminho 279" d="M453.26,434.9c-2.13.664-62.82-.719-65.1-2.241-.876-.562-1.189-9.414-1.263-20.119V412.2l39.169.452v.664s23,10.917,25.329,12.853S455.4,434.237,453.26,434.9Z" transform="translate(-306.247 -100.485)" fill="#c7c7c7"/>
      <path id="Caminho_280" data-name="Caminho 280" d="M452.973,434.146c-10.226-.489-51.515-1.475-61.658-1.171-.083,0-.083.055,0,.065,10.143.7,51.414,1.346,61.649,1.272C453.185,434.312,453.185,434.155,452.973,434.146Z" transform="translate(-306.586 -102.1)" fill="#263238"/>
      <path id="Caminho_281" data-name="Caminho 281" d="M433.074,412.889c-4.011-.839-8.944-.341-12.088,2.462-.12.111,0,.277.166.24a56.575,56.575,0,0,1,11.895-2.195.258.258,0,0,0,.028-.507Z" transform="translate(-308.9 -100.51)" fill="#263238"/>
      <path id="Caminho_282" data-name="Caminho 282" d="M436.184,414.859c-4.011-.839-8.944-.332-12.088,2.462-.12.111,0,.277.166.24a56.58,56.58,0,0,1,11.895-2.195.258.258,0,0,0,.028-.507Z" transform="translate(-309.143 -100.663)" fill="#263238"/>
      <path id="Caminho_283" data-name="Caminho 283" d="M439.294,416.829c-4.011-.839-8.953-.332-12.088,2.462-.12.111,0,.277.166.24a56.577,56.577,0,0,1,11.895-2.194.258.258,0,0,0,.028-.507Z" transform="translate(-309.385 -100.817)" fill="#263238"/>
      <path id="Caminho_284" data-name="Caminho 284" d="M340.74,184.31h0c.157.738,2.665,12.374,5.265,22.369,1.89,7.3,3.836,13.72,4.951,14.384,1.263.747,7.423,3.476,9.488,4.334l9.423,90.131,12.6,81.122,42.415-2.213-30.234-184.6-4.8-25.532Z" transform="translate(-302.649 -82.722)" fill="#2784ff"/>
      <path id="Caminho_285" data-name="Caminho 285" d="M386.261,406.052c6.62-.424,4.712-.4,11.332-.756,3.246-.175,24.536-1.3,27.588-.922.065,0,.074.129,0,.138-3.006.636-24.315,1.392-27.56,1.512-6.62.221-4.721.083-11.35.24a.106.106,0,0,1-.009-.212Z" transform="translate(-306.189 -99.869)" fill="#263238"/>
      <path id="Caminho_286" data-name="Caminho 286" d="M410.333,368.734c-1.042-5.79-2.075-11.59-3.144-17.371q-3.19-17.381-6.454-34.734-6.537-34.771-12.909-69.56c-2.379-13.1-2.314-11.867-4.4-25.025,0-.092-.166-.074-.148,0,1.992,11.682,1.051,9.119,2.932,20.829s3.854,23.171,5.929,34.734c4.168,23.227,8.538,46.416,12.909,69.6q1.844,9.737,3.771,19.483c1.3,6.62,2.766,13.195,4.131,19.806,0,.148.267.129.24,0C412.26,380.592,411.384,374.645,410.333,368.734Z" transform="translate(-305.965 -85.658)" fill="#263238"/>
      <path id="Caminho_287" data-name="Caminho 287" d="M398.715,221.775c-1.116-.277-2.3-.369-3.43-.553q-1.383-.207-2.766-.5a12.051,12.051,0,0,1-4.813-2.029,11.577,11.577,0,0,1-3.126-4.85c-.443-1.06-.922-2.111-1.383-3.153q-.332-.765-.692-1.521a17.285,17.285,0,0,1-.857-1.844c0-.083-.175,0-.138,0a10.692,10.692,0,0,1,.387,1.309c.157.507.3,1.023.461,1.531.277.922.553,1.844.848,2.72a22.128,22.128,0,0,0,1.936,4.767c1.669,2.665,4.656,3.688,7.653,4.112.858.111,1.715.175,2.582.221a18.386,18.386,0,0,0,3.264,0,.157.157,0,0,0,.074-.212Z" transform="translate(-305.826 -84.513)" fill="#263238"/>
      <path id="Caminho_288" data-name="Caminho 288" d="M348.234,222.437a80.6,80.6,0,0,1,12.66,5.91c.166.092.055.341-.111.267-4.278-1.844-8.64-3.6-12.817-5.671a.287.287,0,1,1,.267-.507Z" transform="translate(-303.201 -85.691)" fill="#263238"/>
      <path id="Caminho_289" data-name="Caminho 289" d="M346.853,190.659c0-.148.267-.184.267,0a140.259,140.259,0,0,0,.719,14.292c.194,2.2,1.973,14.384,5.79,13.49.636-.148.922-.775,1.07-1.743a15.822,15.822,0,0,0-.507-3.688c-.424-2.545-.765-5.1-.987-7.681a69.625,69.625,0,0,1,.157-14.4.12.12,0,1,1,.24,0,132.656,132.656,0,0,0,1.171,19.879c.47,3.172,2.065,7.939-1.245,8.428s-5.532-7.5-5.966-9.672a72.493,72.493,0,0,1-.71-18.9Z" transform="translate(-303.101 -83.207)" fill="#263238"/>
      <path id="Caminho_290" data-name="Caminho 290" d="M354.047,221.1a22.006,22.006,0,0,1,.858,2.526,5.754,5.754,0,0,1,.36,2.075.148.148,0,0,1-.267.055,7.468,7.468,0,0,1-.922-2.019c-.3-.784-.6-1.558-.867-2.342a.445.445,0,0,1,.839-.3Z" transform="translate(-303.619 -85.567)" fill="#263238"/>
      <path id="Caminho_291" data-name="Caminho 291" d="M336.33,206.153l9.34.6,27.237,1.733,21.4,1.355-4.8-25.532h-52.8Z" transform="translate(-302.305 -82.722)" fill="#263238"/>
      <path id="Caminho_292" data-name="Caminho 292" d="M350.367,127.1c-1.641,6.713-14.845,37.325-14.753,39.648,0,.535,2.692.4,2.96,1.245,1.116,3.412-9.35,28.713-13.213,29.635-11.378,2.563-25.034,4.444-24.831-4.887.323-14.642,24.637-51.34,37.8-64.157C347.066,120.171,351.98,120.466,350.367,127.1Z" transform="translate(-299.515 -77.88)" fill="#ad6359"/>
      <path id="Caminho_293" data-name="Caminho 293" d="M351.684,132.886c-3.126,8.381-7.487,20.636-7.487,20.636l-9.221-1.77-14.836-2.858s12.853-16.772,24.665-25.569c6.021-4.481,8.547-4.334,9.221-2.075h0C354.745,123.665,353.269,128.617,351.684,132.886Z" transform="translate(-301.043 -77.686)" fill="#2784ff"/>
      <path id="Caminho_294" data-name="Caminho 294" d="M352.938,133.017c-3.126,8.381-7.487,20.636-7.487,20.636l-9.221-1.77,19.04-30.492C356,123.8,354.524,128.748,352.938,133.017Z" transform="translate(-302.298 -77.818)" fill="#263238"/>
      <path id="Caminho_295" data-name="Caminho 295" d="M345.267,150.1a151.274,151.274,0,0,0-19.714-3.209.069.069,0,1,0,0,.138c1.844.212,11.065,2.176,19.714,3.227C345.323,150.265,345.369,150.126,345.267,150.1Z" transform="translate(-301.46 -79.805)" fill="#263238"/>
      <path id="Caminho_296" data-name="Caminho 296" d="M397.251,198.162c-.148.166-63.935.36-64.544-.3-.811-.922,13.591-70.03,20.138-78.568,1.4-1.844,6.021-2.333,9.949-1.844a17.519,17.519,0,0,1,3.024.618h.1a7.229,7.229,0,0,1,2.222,1.088c10.926,8.723,13.831,17.215,16.6,24.3,2.019,5.246,4.426,14.181,6.574,23.337C394.881,181.943,397.777,197.6,397.251,198.162Z" transform="translate(-302.02 -77.497)" fill="#2784ff"/>
      <rect id="Retângulo_168" data-name="Retângulo 168" width="11.415" height="1.844" transform="translate(71.479 69.694) rotate(180)" fill="#263238" opacity="0.1"/>
      <path id="Caminho_297" data-name="Caminho 297" d="M393.871,166.877l-28.5-49.367a17.519,17.519,0,0,1,3.024.618h.1a7.229,7.229,0,0,1,2.222,1.088c10.926,8.723,13.831,17.215,16.6,24.3A203.8,203.8,0,0,1,393.871,166.877Z" transform="translate(-304.569 -77.515)" fill="#263238"/>
      <path id="Caminho_298" data-name="Caminho 298" d="M372.3,128.936c4.2,5.532,27.348,25.467,28.169,27.588s-6.371,9.894-6.27,10.779c.406,3.6,7.8,26.675,10.862,24.158,4.029-3.3,22.59-26.306,19.9-36.209s-43.9-32.88-50.4-34.808S368.155,123.515,372.3,128.936Z" transform="translate(-304.883 -77.711)" fill="#ad6359"/>
      <path id="Caminho_299" data-name="Caminho 299" d="M392.849,201.448c-2.158-1.844,1.272-3.338,1.272-3.338s-5.449.922-6.934-1.844,2.766-4.324,3.08-4.444c-.286.046-5.32.775-6.519-2.167s3.255-3.983,3.541-4.048c-.286,0-4.066-.645-4.472-3.089-.692-4.2,10.272-3.393,12.909-5.606,0,0-.424-5.532-.489-5.652a6.205,6.205,0,0,0,2.766,3c2.277.922,4.361,1.577,5.182,2.821a3.126,3.126,0,0,1-.074,3.688s3.015,0,4.039,2.3c.526,1.171-.922,3.052-.922,3.052a3.688,3.688,0,0,1,3.2,2.194c.627,1.669-.922,3.3-.922,3.3s2.277,1.171,2.37,3.089C411.152,198.627,397.478,205.459,392.849,201.448Z" transform="translate(-305.926 -81.705)" fill="#ad6359"/>
      <path id="Caminho_300" data-name="Caminho 300" d="M409.323,193.73l.055.065a26.592,26.592,0,0,1-14.5,6.2c-.175,0-.267-.258-.083-.3a54.17,54.17,0,0,0,14.532-5.956Z" transform="translate(-306.854 -83.456)" fill="#263238"/>
      <path id="Caminho_301" data-name="Caminho 301" d="M406.979,187.45c.046,0,.1.046.055.092a24.9,24.9,0,0,1-16.247,5.781c-.212,0-.387-.23-.148-.23C394.651,192.955,402.756,190.023,406.979,187.45Z" transform="translate(-306.53 -82.967)" fill="#263238"/>
      <path id="Caminho_302" data-name="Caminho 302" d="M387.213,186.31c5.8,0,11.019-1.844,16.108-4.49.074,0,.111.055.065.1-2.139,1.982-5.532,3.347-8.3,4.177a15.3,15.3,0,0,1-7.865.415C387.112,186.486,387.093,186.31,387.213,186.31Z" transform="translate(-306.265 -82.528)" fill="#263238"/>
      <path id="Caminho_303" data-name="Caminho 303" d="M409.87,191.732a3.688,3.688,0,0,0,1.282-3.633,2.766,2.766,0,0,0-1.18-1.521,4.8,4.8,0,0,0-2.2-.47,3.614,3.614,0,0,0,.535-4.039,2.766,2.766,0,0,0-1.632-1.125,8.888,8.888,0,0,0-2.342-.175,3.218,3.218,0,0,0,.931-2.692,3.458,3.458,0,0,0-1.844-2.554,17.067,17.067,0,0,0-3.6-1.291,8.06,8.06,0,0,1-1.844-.738c-.516-.313-1.245-.922-1.319-1.54,0-.129-.2-.046-.138,0,.3.4.489.858.83,1.226a5.994,5.994,0,0,0,1.18.977,24.481,24.481,0,0,0,3.393,1.438,5.016,5.016,0,0,1,2.434,2.056,2.96,2.96,0,0,1-.267,3.1s0,.12.074.12a8.463,8.463,0,0,1,2.047.479,2.923,2.923,0,0,1,1.355,1.079,3.79,3.79,0,0,1-.258,3.771,6.621,6.621,0,0,1,2.112.821,2.766,2.766,0,0,1,.922,1.263,3.264,3.264,0,0,1-.738,3.356.055.055,0,0,0,0,.046h0s.728.406.765.415,0,0,0-.046q-.241-.173-.5-.323Z" transform="translate(-306.996 -81.753)" fill="#263238"/>
      <path id="Caminho_304" data-name="Caminho 304" d="M408.77,138.773l-17.731,14.845s-12.448-14.928-17.777-22.129c-5.154-6.962-10.511-16.809,3.688-11.065C390.587,125.883,408.77,138.773,408.77,138.773Z" transform="translate(-304.761 -77.608)" fill="#2784ff"/>
      <path id="Caminho_305" data-name="Caminho 305" d="M406.018,138A153.282,153.282,0,0,0,391,151.195c-.074.065,0,.166.1.1,1.346-1.309,8.723-7.183,15.02-13.176C406.2,138.055,406.091,138,406.018,138Z" transform="translate(-306.564 -79.112)" fill="#263238"/>
      <path id="Caminho_306" data-name="Caminho 306" d="M352.79,120.789a23.048,23.048,0,0,0,.738,3.974,26.74,26.74,0,0,0,1.236,3.817,10.861,10.861,0,0,0,1.982,3.338,3.144,3.144,0,0,0,.692.544,1.493,1.493,0,0,0,.378.157h.277a7.735,7.735,0,0,0,1.724-.756,30.612,30.612,0,0,0,6.288-4.9,36.044,36.044,0,0,0,2.711-2.978,37.258,37.258,0,0,0,2.48-3.209,32.089,32.089,0,0,1-4.675,6.676,26.067,26.067,0,0,1-6.353,5.21,8.621,8.621,0,0,1-1.992.839,1.936,1.936,0,0,1-.341,0,1.1,1.1,0,0,1-.387-.074,2.952,2.952,0,0,1-.553-.24,3.688,3.688,0,0,1-.922-.719,10.52,10.52,0,0,1-2.01-3.688,22.729,22.729,0,0,1-1.272-7.994Z" transform="translate(-303.588 -77.77)" fill="#263238"/>
      <path id="Caminho_307" data-name="Caminho 307" d="M372.471,123.944c-.627-5.339-7.376-6.076-11.452-6.039-5.154.055-9.47,1.171-11.065,6.454s-1.678,11-1.623,16.4a.793.793,0,0,1-1.577,0c-.055-6.224-.765-17.934,4.767-22.129s21.41-3.771,22.47,5.274c.12,1-1.448,1.033-1.568,0Z" transform="translate(-303.113 -77.403)" fill="#37474f"/>
      <circle id="Elipse_35" data-name="Elipse 35" cx="3.605" cy="3.605" r="3.605" transform="translate(40.792 69.804) rotate(-87.86)" fill="#a6a6a6"/>
      <path id="Caminho_308" data-name="Caminho 308" d="M345.39,145.952a2.167,2.167,0,1,0,.6-1.552,2.176,2.176,0,0,0-.6,1.552Z" transform="translate(-303.011 -79.559)" fill="#ebebeb"/>
      <path id="Caminho_309" data-name="Caminho 309" d="M372.163,143.6c-1.134,15.527.148,19.031,1.7,20.507a10.06,10.06,0,0,0,4,2.148l.267-1.06-.138.526.138-.526a9.036,9.036,0,0,1-3.513-1.844c-1.125-1.07-2.48-4.26-1.365-19.64Z" transform="translate(-305.065 -79.549)" fill="#ebebeb"/>
      <rect id="Retângulo_169" data-name="Retângulo 169" width="2.333" height="3.79" rx="1.11" transform="translate(70.957 86.73) rotate(-71.66)" fill="#a6a6a6"/>
      <path id="Caminho_310" data-name="Caminho 310" d="M382.75,141.963c5.025,10.6,6.879,16.6,5.827,18.8A9.009,9.009,0,0,1,386,163.788l.627.922a9.94,9.94,0,0,0,2.951-3.458c1.245-2.637-.443-8.354-5.837-19.723Z" transform="translate(-305.924 -79.387)" fill="#ebebeb"/>
      <rect id="Retângulo_170" data-name="Retângulo 170" width="2.333" height="3.79" rx="1.11" transform="matrix(-0.637, -0.771, 0.771, -0.637, 79.525, 87.078)" fill="#a6a6a6"/>
      <path id="Caminho_311" data-name="Caminho 311" d="M383.168,139.574a63.073,63.073,0,0,0-3.292-6.934,6.455,6.455,0,0,0-2.646-2.231c-.221,0-.479-1.844-.655-3.439-.157-1.374-.3-2.969-.71-3.347a1.088,1.088,0,0,0-1.494.2c-.3.47,0,2.056.194,3.421.231,1.549.479,3.439.267,3.485a7.118,7.118,0,0,0-1.844,2.858,52.1,52.1,0,0,0-1.2,7.764c-.046,1.65.516,1.752,1,1.844.682.092,1.014-.415,1.189-2.268.277-2.932.415-7.8,2.351-8.151h0c1.955-.166,3.688,4.61,4.795,7.293.71,1.66,1.106,1.752,1.743,1.485C383.315,141.344,383.758,141.058,383.168,139.574Z" transform="translate(-305.069 -77.975)" fill="#a6a6a6"/>
      <path id="Caminho_312" data-name="Caminho 312" d="M358.213,128.444c1.06,0,8.3-5.136,10.613-9.285a69.893,69.893,0,0,0-.562-7.017c-.184-2.241-.332-4.749-.3-7.044,0-.47-1.614.378-1.614.378l-2.978.682-9.848,2.268a36.64,36.64,0,0,1,1.282,8.833,5.99,5.99,0,0,1-.1.922.8.8,0,0,0,0,.157C354.359,120.146,356.5,128.435,358.213,128.444Z" transform="translate(-303.645 -76.537)" fill="#ad6359"/>
      <path id="Caminho_313" data-name="Caminho 313" d="M354.7,118.292a.8.8,0,0,0,0,.157,9.219,9.219,0,0,0,1.475.1c9.7-.111,11.065-12.42,11.065-12.42l-3.836.12-9.848,2.268a36.643,36.643,0,0,1,1.282,8.833A5.993,5.993,0,0,1,354.7,118.292Z" transform="translate(-303.648 -76.628)" fill="#263238"/>
      <path id="Caminho_314" data-name="Caminho 314" d="M367.763,83.41c2.112,4.905,1.042,19.861-2.213,23.531-4.712,5.311-13.232,6.7-17.943.858-4.61-5.671-2.84-25.135.867-28.584C353.932,74.189,364.655,76.171,367.763,83.41Z" transform="translate(-302.969 -74.313)" fill="#ad6359"/>
      <path id="Caminho_315" data-name="Caminho 315" d="M357.221,95.32s.083.055.074.1c-.1,1.005-.046,2.167.848,2.563v.055C357.009,97.791,357.009,96.26,357.221,95.32Z" transform="translate(-303.925 -75.786)" fill="#263238"/>
      <path id="Caminho_316" data-name="Caminho 316" d="M358.2,94.25c1.623,0,1.54,3.246,0,3.255S356.833,94.259,358.2,94.25Z" transform="translate(-303.925 -75.702)" fill="#263238"/>
      <path id="Caminho_317" data-name="Caminho 317" d="M350.792,95.33a.081.081,0,0,0-.083.083c0,1.014-.157,2.167-1.079,2.48v.055C350.755,97.792,350.958,96.289,350.792,95.33Z" transform="translate(-303.342 -75.786)" fill="#263238"/>
      <path id="Caminho_318" data-name="Caminho 318" d="M349.826,94.159c-1.614-.166-1.844,3.08-.332,3.236S351.191,94.3,349.826,94.159Z" transform="translate(-303.252 -75.695)" fill="#263238"/>
      <path id="Caminho_319" data-name="Caminho 319" d="M359.517,92.472a12.108,12.108,0,0,1-1.254-.479,2.111,2.111,0,0,1-1.18-.728.682.682,0,0,1,.129-.83,1.7,1.7,0,0,1,1.733-.129,2.517,2.517,0,0,1,1.411,1.125.728.728,0,0,1-.839,1.042Z" transform="translate(-303.916 -75.381)" fill="#263238"/>
      <path id="Caminho_320" data-name="Caminho 320" d="M348.563,92.158c.452-.065.858-.194,1.3-.3a2.2,2.2,0,0,0,1.272-.562.682.682,0,0,0,0-.839,1.687,1.687,0,0,0-1.687-.369,2.471,2.471,0,0,0-1.558.922.738.738,0,0,0,.673,1.143Z" transform="translate(-303.197 -75.371)" fill="#263238"/>
      <path id="Caminho_321" data-name="Caminho 321" d="M357.832,105.509c-.249.231-.5.553-.867.572a2.61,2.61,0,0,1-1.079-.286l-.046.055a1.337,1.337,0,0,0,1.263.581,1.06,1.06,0,0,0,.821-.867C357.915,105.5,357.832,105.481,357.832,105.509Z" transform="translate(-303.826 -76.579)" fill="#263238"/>
      <path id="Caminho_322" data-name="Caminho 322" d="M356.416,101.269a3.467,3.467,0,0,1-2.342,1.475,4.61,4.61,0,0,1-1.236,0,1,1,0,0,1-.24,0h-.212a.258.258,0,0,1-.2-.231h0a.4.4,0,0,1,0-.1h0v-.092c0-.775.111-1.955.111-1.955-.286.138-1.752.747-1.724.341a51.485,51.485,0,0,1,1.623-10.364.092.092,0,1,1,.184,0c-.157,3.236-.876,6.454-1.088,9.672a6.335,6.335,0,0,1,1.641-.443c.111,0-.249,2.277-.221,2.619h0a4.758,4.758,0,0,0,3.6-1.014C356.4,101.084,356.5,101.195,356.416,101.269Z" transform="translate(-303.415 -75.39)" fill="#263238"/>
      <path id="Caminho_323" data-name="Caminho 323" d="M353.54,103.314a4.076,4.076,0,0,0,1.6,1.309,1.9,1.9,0,0,0,1.116.1c.811-.194.848-.922.719-1.567a4.16,4.16,0,0,0-.332-.977A5.283,5.283,0,0,1,353.54,103.314Z" transform="translate(-303.647 -76.32)" fill="#263238"/>
      <path id="Caminho_324" data-name="Caminho 324" d="M355.27,104.706a1.9,1.9,0,0,0,1.116.1c.811-.194.848-.922.719-1.567A1.9,1.9,0,0,0,355.27,104.706Z" transform="translate(-303.782 -76.403)" fill="#ff99ba"/>
      <path id="Caminho_325" data-name="Caminho 325" d="M366.992,94.535c-3.439-.157-3.845-6.454-3.845-6.454s-5.864-1.217-6.537-5.7c0,0-5.754,3.347-10.143,1.558s-3.209-6.731-2.674-7.773,2.914,1.06,2.914,1.06.4-2.766,1.162-3.061,1.512,1.485,1.512,1.485a36.882,36.882,0,0,1,10.908-1.3c5.145.36,7.478,5.661,7.478,5.661s2.766.7,3.541,2.674S369.168,94.637,366.992,94.535Z" transform="translate(-302.844 -74.134)" fill="#263238"/>
      <path id="Caminho_326" data-name="Caminho 326" d="M365.639,88.8c-4.61.415-7.5-2.766-7.976-7.155h-.083c0,4.075,3.578,8.778,8.1,7.376a.112.112,0,0,0-.037-.221Z" transform="translate(-303.962 -74.719)" fill="#263238"/>
      <path id="Caminho_327" data-name="Caminho 327" d="M369.67,80.42c-.055,0-.083.065,0,.083,1.254.655,2.7,1.153,3.55,2.36,1.023,1.448.71,3.292.24,4.868-.775,2.443-2.176,5.615-4.463,6.98a.12.12,0,0,0,.12.2c2.766-1.457,4.444-5.532,4.942-8.474C374.612,83.2,372.685,81.25,369.67,80.42Z" transform="translate(-304.848 -74.624)" fill="#263238"/>
      <path id="Caminho_328" data-name="Caminho 328" d="M351.486,83.646a6.731,6.731,0,0,1-6.961-.415c-2.333-1.78-1.706-4.527-.562-6.786.055-.111-.111-.24-.184-.138-1.512,1.973-1.761,5.053.138,6.879s5.477,1.982,7.754.738C351.864,83.822,351.68,83.536,351.486,83.646Z" transform="translate(-302.791 -74.301)" fill="#263238"/>
      <path id="Caminho_329" data-name="Caminho 329" d="M367.689,96.986s2.9-5.044,5.154-4.057.378,8.1-2.065,9.276a2.582,2.582,0,0,1-3.568-1.079Z" transform="translate(-304.712 -75.589)" fill="#ad6359"/>
      <path id="Caminho_330" data-name="Caminho 330" d="M372.371,95.14c.046,0,.055,0,0,.065a6.64,6.64,0,0,0-3,4.371A1.429,1.429,0,0,1,371.468,99s0,.1,0,.092a1.6,1.6,0,0,0-1.7.71,7.848,7.848,0,0,0-.71,1.484c-.065.166-.36.111-.313-.083h0C368.489,98.911,369.965,95.583,372.371,95.14Z" transform="translate(-304.83 -75.771)" fill="#263238"/>
      <rect id="Retângulo_171" data-name="Retângulo 171" width="37.177" height="48.389" transform="matrix(0.969, -0.247, 0.247, 0.969, 18.159, 73.161)" fill="#455a64"/>
      <rect id="Retângulo_172" data-name="Retângulo 172" width="17.62" height="5.339" transform="matrix(-0.969, 0.248, -0.248, -0.969, 45.258, 69.162)" fill="#ebebeb"/>
      <path id="Caminho_331" data-name="Caminho 331" d="M332.673,146.64l2.1-.544-.609-2.388,5.108-1.309.609,2.388,2.1-.535L340.87,139.9l-9.34,2.4Z" transform="translate(-301.931 -79.26)" fill="#ebebeb"/>
      <path id="Caminho_332" data-name="Caminho 332" d="M344.107,165.442a3.836,3.836,0,0,1,.719,4.324,5.735,5.735,0,0,1,3.31,2.029c1.374,1.9-1.005,4.9-1.005,4.9a7.008,7.008,0,0,1,3.144,2.692c1.134,1.946-.83,5.311-.83,5.311a6.178,6.178,0,0,1,1.272,4.112c-.378,3.937-5.79,6.63-9.221,8.381s-14.753,3.513-16.892,4.066L313.2,179.392s13.1-12.208,17.418-13.693C334.223,164.446,341.931,163.376,344.107,165.442Z" transform="translate(-300.502 -81.161)" fill="#ad6359"/>
      <path id="Caminho_333" data-name="Caminho 333" d="M346.128,169.94c-4.186.406-8.022,2.019-11.941,3.421-.083,0,0,.166.055.129,3.882-1.429,7.994-2.075,11.931-3.356a.1.1,0,0,0-.046-.194Z" transform="translate(-302.136 -81.602)" fill="#263238"/>
      <path id="Caminho_334" data-name="Caminho 334" d="M348.827,177.47a10.9,10.9,0,0,0-2.711.922q-1.411.6-2.766,1.217-2.766,1.254-5.532,2.656c-.074,0,0,.175.055.138q2.766-1.263,5.588-2.4c.922-.378,1.844-.747,2.831-1.106a13.61,13.61,0,0,0,2.628-1.153.148.148,0,0,0-.092-.277Z" transform="translate(-302.419 -82.189)" fill="#263238"/>
      <path id="Caminho_335" data-name="Caminho 335" d="M351.573,186.46a7.247,7.247,0,0,0-2.4.922l-2.517,1.18c-1.678.784-3.356,1.567-5.062,2.287a.074.074,0,0,0,0,.138c1.733-.728,3.485-1.429,5.21-2.167l2.545-1.106a7.293,7.293,0,0,0,2.222-1.2S351.609,186.451,351.573,186.46Z" transform="translate(-302.712 -82.889)" fill="#263238"/>
      <path id="Caminho_336" data-name="Caminho 336" d="M322.415,171a14.059,14.059,0,0,0-2.36,1.614c-.765.581-1.512,1.18-2.25,1.78-1.466,1.18-2.923,2.388-4.3,3.688s-2.711,2.609-4.011,3.956l-.922.922-.4.258c-.562.369-1.106.747-1.623,1.162a29.509,29.509,0,0,0-2.84,2.628.074.074,0,0,0,.1.1,25.935,25.935,0,0,1,3.034-2.453l.415-.286c-.507.562-1.005,1.143-1.466,1.743a48.316,48.316,0,0,0-3.43,4.988c-.046.083.074.148.129.074a41.83,41.83,0,0,1,7.247-8.077c2.637-2.471,5.274-5.228,7.985-7.764.775-.728,1.568-1.438,2.379-2.121a30.355,30.355,0,0,0,2.416-2.065C322.608,171.055,322.507,171,322.415,171Z" transform="translate(-299.657 -81.684)" fill="#263238"/>
    </g>
    <g id="freepik--character-1--inject-35" transform="translate(37.376 66.798)">
      <path id="Caminho_337" data-name="Caminho 337" d="M126.6,370.2v39.731c0,7.6.055,14.255.433,17.694a.12.12,0,0,0,0,.055,5.349,5.349,0,0,0,.545,2.352.259.259,0,0,0,0,.045c2.25,1.54,62.93,3.614,65.069,2.978s.479-6.8-1.844-8.75S165.7,411.158,165.7,411.158l-.387-39.648Z" transform="translate(-45.717 -92.618)" fill="#dd6a57"/>
      <path id="Caminho_338" data-name="Caminho 338" d="M126.6,404.45V412.6c0,7.6.055,14.255.433,17.694a.12.12,0,0,0,0,.055,10.419,10.419,0,0,0,.544,2.351s0,0,0,.046c2.25,1.54,62.93,3.614,65.069,2.978s.479-6.8-1.844-8.75S165.7,413.827,165.7,413.827l.111-8.3Z" transform="translate(-45.717 -95.288)" fill="#455a64"/>
      <path id="Caminho_339" data-name="Caminho 339" d="M192.711,436.387c-2.148.645-62.81-1.438-65.069-2.978-.867-.581-1.088-9.433-1.033-20.147v-.332l39.16.922v.664s22.867,11.175,25.172,13.139S194.851,435.751,192.711,436.387Z" transform="translate(-45.717 -95.949)" fill="#c7c7c7"/>
      <path id="Caminho_340" data-name="Caminho 340" d="M192.424,435.632c-10.216-.6-51.488-2.056-61.639-1.844-.083,0-.083.055,0,.065,10.143.811,51.4,1.936,61.63,1.982C192.636,435.826,192.636,435.651,192.424,435.632Z" transform="translate(-46.038 -97.573)" fill="#263238"/>
      <path id="Caminho_341" data-name="Caminho 341" d="M171.572,414.844c-4-.922-8.944-.443-12.116,2.324-.12.1,0,.277.166.24a56.643,56.643,0,0,1,11.913-2.056.258.258,0,0,0,.037-.507Z" transform="translate(-48.274 -96.065)" fill="#263238"/>
      <path id="Caminho_342" data-name="Caminho 342" d="M174.661,416.844c-4-.922-8.944-.433-12.116,2.324-.129.111,0,.286.157.249a56.832,56.832,0,0,1,11.922-2.065.258.258,0,0,0,.037-.507Z" transform="translate(-48.515 -96.221)" fill="#263238"/>
      <path id="Caminho_343" data-name="Caminho 343" d="M177.742,418.854c-3.992-.922-8.944-.443-12.116,2.324-.12.111,0,.277.166.24a56.624,56.624,0,0,1,11.922-2.056.258.258,0,0,0,.028-.507Z" transform="translate(-48.755 -96.377)" fill="#263238"/>
      <path id="Caminho_344" data-name="Caminho 344" d="M167.91,396.275l-42.47.848.922-78.762.037-2.794.092-7.828,1.153-99.25.286-24.139h35.859l.424,21.77,1.936,99.61Z" transform="translate(-45.626 -78.132)" fill="#2784ff"/>
      <path id="Caminho_345" data-name="Caminho 345" d="M166.271,406.49c-6.63-.055-4.73-.129-11.36-.111-3.246,0-24.573.074-27.6.618a.065.065,0,0,0,0,.129c3.034.47,24.351,0,27.6-.046,6.63-.148,4.721-.175,11.35-.4a.1.1,0,0,0,.009-.194Z" transform="translate(-45.768 -95.438)" fill="#263238"/>
      <path id="Caminho_346" data-name="Caminho 346" d="M156.038,192.479c-.443,25.181-.387,50.381-.36,75.608s.083,50.252.212,75.378c.065,14.172,0,28.353.314,42.516,0,.59.922.535.922-.055.083-12.623-.055-25.255-.1-37.887s-.055-25.255-.092-37.887q-.092-37.684-.24-75.369c-.074-14.1-.12-28.187-.4-42.285C156.287,192.295,156.038,192.313,156.038,192.479Z" transform="translate(-47.982 -78.756)" fill="#263238"/>
      <path id="Caminho_347" data-name="Caminho 347" d="M159.21,184.35,126.44,318.361l1.567-134.011Z" transform="translate(-45.704 -78.132)" fill="#263238"/>
      <path id="Caminho_348" data-name="Caminho 348" d="M111.313,371.406s-5.081,37.8-5.081,37.869c-.055,7.6-.231,14.255-.645,17.685a.12.12,0,0,1,0,.055,5.2,5.2,0,0,1-.572,2.342s0,.046,0,.055c-2.268,1.512-62.958,2.9-65.1,2.231s-.406-6.8,1.909-8.732,25.32-12.853,25.32-12.853l6.371-39.648Z" transform="translate(-38.885 -92.635)" fill="#dd6a57"/>
      <path id="Caminho_349" data-name="Caminho 349" d="M106.887,403.75c-.387,4.739-.655,8.1-.655,8.123-.055,7.6-.231,14.255-.645,17.685a.12.12,0,0,1,0,.055,10.023,10.023,0,0,1-.572,2.342s0,.046,0,.055c-2.268,1.512-62.958,2.9-65.1,2.231s-.406-6.8,1.909-8.732,25.32-12.853,25.32-12.853l.765-8.372Z" transform="translate(-38.885 -95.233)" fill="#455a64"/>
      <path id="Caminho_350" data-name="Caminho 350" d="M39.857,434.9c2.139.664,62.829-.719,65.106-2.241.867-.562,1.189-9.414,1.254-20.119V412.2l-39.16.452v.664s-22.968,10.917-25.3,12.853S37.718,434.237,39.857,434.9Z" transform="translate(-38.879 -95.892)" fill="#c7c7c7"/>
      <path id="Caminho_351" data-name="Caminho 351" d="M40.616,434.146c10.226-.489,51.506-1.475,61.649-1.171.083,0,.083.055,0,.065-10.143.7-51.423,1.346-61.658,1.272C40.4,434.312,40.395,434.155,40.616,434.146Z" transform="translate(-39.002 -97.507)" fill="#263238"/>
      <path id="Caminho_352" data-name="Caminho 352" d="M64.7,412.889c4-.839,8.944-.341,12.079,2.462.129.111,0,.277-.157.24A56.683,56.683,0,0,0,64.731,413.4a.258.258,0,0,1-.028-.507Z" transform="translate(-40.877 -95.917)" fill="#263238"/>
      <path id="Caminho_353" data-name="Caminho 353" d="M61.593,414.859c4-.839,8.944-.332,12.088,2.462.12.111,0,.277-.166.24a56.58,56.58,0,0,0-11.895-2.195.258.258,0,0,1-.028-.507Z" transform="translate(-40.634 -96.07)" fill="#263238"/>
      <path id="Caminho_354" data-name="Caminho 354" d="M58.483,416.829c4.011-.839,8.944-.332,12.088,2.462.12.111,0,.277-.166.24a56.576,56.576,0,0,0-11.895-2.194.258.258,0,0,1-.028-.507Z" transform="translate(-40.392 -96.224)" fill="#263238"/>
      <path id="Caminho_355" data-name="Caminho 355" d="M155.575,184.307h0c-.157.738-2.665,12.374-5.265,22.369-1.89,7.3-3.836,13.72-4.951,14.384-1.263.747-7.423,3.476-9.488,4.334l-12.807,82.247-1.226,7.884L109.2,396.61,66.79,394.4l16-84.718,18.874-99.84,4.832-25.569Z" transform="translate(-41.055 -78.126)" fill="#2784ff"/>
      <path id="Caminho_356" data-name="Caminho 356" d="M109.256,406.052c-6.62-.424-4.712-.4-11.332-.756-3.246-.175-24.536-1.3-27.588-.922-.065,0-.074.129,0,.138,3.006.636,24.315,1.392,27.56,1.512,6.63.221,4.73.083,11.36.24C109.366,406.254,109.375,406.061,109.256,406.052Z" transform="translate(-41.327 -95.276)" fill="#263238"/>
      <path id="Caminho_357" data-name="Caminho 357" d="M118.15,193.4c-2.2,12.411-4.684,24.785-6.971,37.186s-4.61,24.8-6.915,37.2q-6.888,37.03-13.932,74.013c-2.646,13.886-5.348,27.754-7.9,41.658-.074.387.516.544.6.148,5.09-24.7,9.728-49.505,14.412-74.3s9.221-49.367,13.619-74.087c2.49-13.914,4.739-27.874,7.229-41.788C118.307,193.34,118.168,193.3,118.15,193.4Z" transform="translate(-42.273 -78.833)" fill="#263238"/>
      <path id="Caminho_358" data-name="Caminho 358" d="M154.461,222.438a80.6,80.6,0,0,0-12.7,5.91.148.148,0,0,0,.12.267c4.278-1.844,8.64-3.6,12.807-5.671a.279.279,0,0,0-.231-.507Z" transform="translate(-46.893 -81.099)" fill="#263238"/>
      <path id="Caminho_359" data-name="Caminho 359" d="M156.2,190.659c0-.148-.277-.184-.267,0,0,5.081-.3,9.552-.719,14.292-.2,2.2-1.973,14.384-5.791,13.49-.645-.148-.968-.775-1.07-1.743a15.361,15.361,0,0,1,.507-3.688c.424-2.545.765-5.1.987-7.681a70.271,70.271,0,0,0-.157-14.4.129.129,0,0,0-.249,0,131.436,131.436,0,0,1-1.162,19.88c-.479,3.172-2.075,7.939,1.236,8.428s5.532-7.5,5.975-9.672a73.312,73.312,0,0,0,.71-18.9Z" transform="translate(-47.344 -78.614)" fill="#263238"/>
      <path id="Caminho_360" data-name="Caminho 360" d="M149.6,221.1a18.952,18.952,0,0,0-.857,2.526,5.754,5.754,0,0,0-.36,2.075c0,.129.194.148.267.055a7.468,7.468,0,0,0,.922-2.019c.286-.784.6-1.558.867-2.342a.445.445,0,1,0-.839-.3Z" transform="translate(-47.414 -80.974)" fill="#263238"/>
      <path id="Caminho_361" data-name="Caminho 361" d="M162.932,305.732l-38.523,1.955-1.134.055-39.1,1.982,18.847-99.886,4.832-25.569h52.769l.424,21.77Z" transform="translate(-42.41 -78.126)" fill="#263238"/>
      <path id="Caminho_362" data-name="Caminho 362" d="M168.637,295.207c-.581.655-85.751,0-85.9-.138s.784-5.652,2.434-14.513c6.381-34.291,23.559-119,31.239-140.152,3.356-9.285,8.1-16.6,13.637-20.792a7.376,7.376,0,0,1,1.484-.848c4.029-1.78,11.839-2.342,14.117.36,1.789,2.112,7.044,18.146,10.06,30.852C169.449,207.769,169.338,294.424,168.637,295.207Z" transform="translate(-42.297 -72.903)" fill="#2784ff"/>
      <path id="Caminho_363" data-name="Caminho 363" d="M131.741,118.86C130.478,123.609,95.1,246.823,85.38,280.681c6.381-34.291,23.559-119,31.239-140.152,3.356-9.285,8.1-16.6,13.637-20.792A7.377,7.377,0,0,1,131.741,118.86Z" transform="translate(-42.504 -73.027)" fill="#263238"/>
      <path id="Caminho_364" data-name="Caminho 364" d="M150.573,122.972c1.457,4.61,7.035,20.645,9.9,32.106,1.918,7.7,2.453,14.089,2.868,15.786,0,0-17.611-6.842-21.659-7.091-6.224-.387-16.993,11.987-14.642,13.831,3.688,2.766,21.484,15.675,36.191,18.321,12.088,2.185,24.241-5.117,23.6-16.551s-20.589-43.337-27.855-52.29C155.211,122.419,148.793,117.394,150.573,122.972Z" transform="translate(-45.726 -73.156)" fill="#dd6a57"/>
      <path id="Caminho_365" data-name="Caminho 365" d="M187.666,181.781c-2.766,13.185-13.941,15.02-19.87,15.029-10.226,0-30.124-7.376-34.909-10.936s-4.02-7.155-4.02-7.155l11.821-16.6a16.3,16.3,0,0,1,6.252.415c2.609.922,16.044,7.948,16.6,8.179h0c-.148-.618-4.122-20.184-6.03-26.74-.1-.36-.221-.728-.332-1.116-.553-1.844-1.319-4.2-2.167-6.777h0c-.47-1.429-.922-2.923-1.457-4.4h0c-2.139-6.39-4.232-12.475-4.232-12.475,3.467.784,6.814,2.831,12.134,9.128S190.432,168.6,187.666,181.781Z" transform="translate(-45.89 -73.055)" fill="#2784ff"/>
      <path id="Caminho_366" data-name="Caminho 366" d="M167.051,201.869c-.7-.175-1.429-.249-2.13-.424s-1.549-.378-2.324-.544c-1.429-.313-2.84-.645-4.251-1.023-2.923-.784-5.818-1.678-8.7-2.6s-5.754-1.844-8.612-2.766a31.728,31.728,0,0,1-7.727-3.55,10.954,10.954,0,0,1-3.181-3.1,6.085,6.085,0,0,1-1.07-4.73c0-.092-.129-.129-.148,0a8.1,8.1,0,0,0,.148,3.873,8.935,8.935,0,0,0,2.1,3.31,20.128,20.128,0,0,0,7.293,4.417c2.914,1.153,5.929,2.047,8.907,3s6.141,1.992,9.221,2.849c1.678.461,3.384.876,5.108,1.18a22.424,22.424,0,0,0,2.49.332,23.811,23.811,0,0,0,2.766.092.166.166,0,0,0,.111-.313Z" transform="translate(-45.884 -78.031)" fill="#263238"/>
      <path id="Caminho_367" data-name="Caminho 367" d="M175.536,179.467q-3.9-1.973-7.837-3.9c.59.092,1.189.175,1.78.286a15.232,15.232,0,0,1,3.236.922.074.074,0,0,0,.065-.129,13.326,13.326,0,0,0-6.086-1.567l-4.675-2.3c-2.231-1.1-4.444-2.2-6.657-3.329a56.288,56.288,0,0,0-6.279-2.932,13.508,13.508,0,0,0-7.376-.71c-.074,0-.055.148,0,.138,4.7-.387,8.962,2.075,13.029,4.112,4.324,2.185,8.667,4.352,13.1,6.307,2.517,1.106,5.053,2.2,7.607,3.218C175.555,179.614,175.619,179.5,175.536,179.467Z" transform="translate(-46.89 -76.67)" fill="#263238"/>
      <path id="Caminho_368" data-name="Caminho 368" d="M141.458,190.736A47.79,47.79,0,0,1,135,186.6a17.52,17.52,0,0,1-2.305-2.3,14,14,0,0,1-1.06-1.485c-.129-.212-.267-.433-.387-.655,0-.055-.544-1.162-.378-1.153s.092-.129,0-.138c-.618-.074.35,1.844.47,2.121a11.516,11.516,0,0,0,2.4,3.172,25.818,25.818,0,0,0,7.625,4.61S141.495,190.754,141.458,190.736Z" transform="translate(-46.034 -77.861)" fill="#263238"/>
      <path id="Caminho_369" data-name="Caminho 369" d="M150.077,173.273a27.468,27.468,0,0,0-5.357-3.264,11.645,11.645,0,0,0-2.9-.7,16.025,16.025,0,0,0-3.19.157c-.092,0-.092.157,0,.148a12.227,12.227,0,0,1,3.227.221,16.661,16.661,0,0,1,2.831.682,13.941,13.941,0,0,1,2.766,1.3,13.453,13.453,0,0,0,2.6,1.531S150.114,173.292,150.077,173.273Z" transform="translate(-46.649 -76.958)" fill="#263238"/>
      <path id="Caminho_370" data-name="Caminho 370" d="M145.507,169.073c-1.844-.664-3.817-1.484-5.79-.728a.074.074,0,0,0,.046.138c1.9-.655,3.9.194,5.735.664C145.572,169.156,145.59,169.091,145.507,169.073Z" transform="translate(-46.736 -76.861)" fill="#263238"/>
      <path id="Caminho_371" data-name="Caminho 371" d="M142.458,181.73a10.66,10.66,0,0,0-.636-.922,5.819,5.819,0,0,0-.922-.848h0a4.075,4.075,0,0,1,1.355,1.743c-.867.129-1.586-.562-2.213-1.07s-1.282-1.07-1.9-1.623a41.173,41.173,0,0,1-3.522-3.541.074.074,0,0,0-.111.083,26.657,26.657,0,0,0,3.688,4.186,16.77,16.77,0,0,0,2.1,1.678,2.2,2.2,0,0,0,2.139.452.1.1,0,0,0,.018-.138Z" transform="translate(-46.333 -77.439)" fill="#263238"/>
      <path id="Caminho_372" data-name="Caminho 372" d="M143.706,175.315a12.429,12.429,0,0,0-6.832-3.015.074.074,0,0,0,0,.148,19.427,19.427,0,0,1,6.814,2.941C143.7,175.426,143.752,175.352,143.706,175.315Z" transform="translate(-46.512 -77.193)" fill="#263238"/>
      <path id="Caminho_373" data-name="Caminho 373" d="M171.869,174.912l-6.15-2.72h0c-.148-.618-4.122-20.184-6.03-26.74-.1-.36-.221-.728-.332-1.116-.553-1.844-1.319-4.2-2.167-6.777Z" transform="translate(-48.101 -74.485)" fill="#263238"/>
      <path id="Caminho_374" data-name="Caminho 374" d="M160.273,171.073c-1.6-.074-5.385-1.014-6.86.221-9.027,7.542-11.627,5.754-13.508,6.694-14.559,7.257-34.559,19.363-41.271,18.994-10.143-.526-16.993-9.562-14.817-17.519,4.3-15.749,31.571-48.989,41.8-56.669,5.422-4.066,4.61,2.508,2.056,9.552-1.5,4.131-4.066,10.253-6.666,16.256-2.305,5.348-8.381,19-8.492,19.363h0s0,.046.111,0c.452-.055,12.826-5.007,25.117-7.376,4.324-.839,10.078-1.079,13.259.36C158.862,164.536,160.273,171.073,160.273,171.073Z" transform="translate(-42.351 -73.237)" fill="#ebebeb"/>
      <path id="Caminho_375" data-name="Caminho 375" d="M128.514,162.29a11.766,11.766,0,0,1,3.283-.572l8.538,15.905a6.3,6.3,0,0,1-2.056,4.278c-1.936,1.54-31.47,14.947-38.671,15.26S82.393,191.288,82.8,182.289c.562-12.651,25.91-44.259,36.974-55.323,5.081-5.09,10.853-8.667,12.208-7.7,1.6,1.143-1.844,7.727-3.688,12.669-3.5,9.138-14.052,35.186-14.052,35.186S125.8,163.027,128.514,162.29Z" transform="translate(-42.302 -73.047)" fill="#2784ff"/>
      <path id="Caminho_376" data-name="Caminho 376" d="M137.911,163.137a172.728,172.728,0,0,0-17.971,5.108l-.258.083c-3.07,1.06-4.979,1.844-5.431,1.918l-.092-.065h0a4.029,4.029,0,0,0-.922-.553c-.839-.341-8.981-1.706-8.667-4.232s3.633-2.2,4.122-2.148c-.526-.138-4.924-1.365-3.384-3.522,1.088-1.531,5.477-1.116,5.92-1.079-.443-.166-4.472-1.669-2.969-3.873,1.07-1.577,5.975-1.162,6.537-1.042-.452-.194-4.066-.922-2.287-2.84,1.236-1.309,10.419.461,14.449,2.683C132.95,156.876,137.911,163.137,137.911,163.137Z" transform="translate(-43.999 -75.489)" fill="#ebebeb"/>
      <path id="Caminho_377" data-name="Caminho 377" d="M120.286,169.324l-.258.083a29.6,29.6,0,0,0-10.825-4.951c-.258-.046-.267-.194,0-.166A20.285,20.285,0,0,1,120.286,169.324Z" transform="translate(-44.346 -76.568)" fill="#263238"/>
      <path id="Caminho_378" data-name="Caminho 378" d="M111.986,159.507c5.772,1.4,8.354,2.766,13.222,6.187.074.046.157-.055.092-.111-4.527-3.688-7.376-5.532-13.259-6.224C111.783,159.332,111.728,159.443,111.986,159.507Z" transform="translate(-44.565 -76.184)" fill="#263238"/>
      <path id="Caminho_379" data-name="Caminho 379" d="M115.831,154.125c5.532,1.715,8.418,3.126,12.77,6.962.1.083.24,0,.148-.138a21,21,0,0,0-12.853-6.98C115.545,153.913,115.489,154,115.831,154.125Z" transform="translate(-44.86 -75.763)" fill="#263238"/>
      <path id="Caminho_380" data-name="Caminho 380" d="M145.768,123.4c-.977.4-7.967.7-10.733-3.181-.194-.267-.111-3.319-.194-7.026-.055-2.259-.175-4.767-.452-7.045-.055-.47,1.641.2,1.641.2l3.034.36,10.041,1.208a36.218,36.218,0,0,0-.332,8.916,4.611,4.611,0,0,0,.2.922s0,.092,0,.157C149.521,119.654,147.723,122.6,145.768,123.4Z" transform="translate(-46.324 -72.023)" fill="#dd6a57"/>
      <path id="Caminho_381" data-name="Caminho 381" d="M149.045,117.816v.157a10.529,10.529,0,0,1-1.466.249c-9.654.922-12.319-11.166-12.319-11.166l3.827-.286,10.041,1.208a36.219,36.219,0,0,0-.332,8.916,4.611,4.611,0,0,0,.249.922Z" transform="translate(-46.392 -72.085)" fill="#263238"/>
      <path id="Caminho_382" data-name="Caminho 382" d="M129.591,83.573c-1.567,5.1,1.1,19.852,4.721,23.153,5.256,4.776,13.831,5.246,17.934-1.07,3.937-6.122.129-25.292-3.919-28.289C142.362,72.951,131.906,76.031,129.591,83.573Z" transform="translate(-45.914 -69.634)" fill="#dd6a57"/>
      <path id="Caminho_383" data-name="Caminho 383" d="M143.187,94.18s-.074.055-.065.1c.2.987.277,2.158-.562,2.646v.055C143.648,96.633,143.537,95.084,143.187,94.18Z" transform="translate(-46.961 -71.104)" fill="#263238"/>
      <path id="Caminho_384" data-name="Caminho 384" d="M141.983,93.22c-1.614.157-1.18,3.393.323,3.246S143.348,93.091,141.983,93.22Z" transform="translate(-46.836 -71.029)" fill="#263238"/>
      <path id="Caminho_385" data-name="Caminho 385" d="M149.54,93.5s.092,0,.092.083c.1,1.005.4,2.139,1.346,2.351v.055C149.844,95.98,149.484,94.468,149.54,93.5Z" transform="translate(-47.504 -71.051)" fill="#263238"/>
      <path id="Caminho_386" data-name="Caminho 386" d="M150.3,92.238c1.6-.341,2.158,2.868.682,3.181S148.959,92.524,150.3,92.238Z" transform="translate(-47.504 -70.95)" fill="#263238"/>
      <path id="Caminho_387" data-name="Caminho 387" d="M140.395,91.6c.424-.175.784-.406,1.189-.618a2.139,2.139,0,0,0,1.1-.848.7.7,0,0,0-.221-.811,1.7,1.7,0,0,0-1.733.055,2.49,2.49,0,0,0-1.291,1.272.738.738,0,0,0,.959.95Z" transform="translate(-46.714 -70.709)" fill="#263238"/>
      <path id="Caminho_388" data-name="Caminho 388" d="M151.231,90.121a13.017,13.017,0,0,1-1.328-.157,2.093,2.093,0,0,1-1.319-.424.682.682,0,0,1-.074-.839,1.706,1.706,0,0,1,1.641-.544,2.5,2.5,0,0,1,1.65.747.738.738,0,0,1-.572,1.217Z" transform="translate(-47.416 -70.631)" fill="#263238"/>
      <path id="Caminho_389" data-name="Caminho 389" d="M143.591,104.389c.267.2.553.489.922.47a2.711,2.711,0,0,0,1.042-.4h.046a1.365,1.365,0,0,1-1.2.719,1.07,1.07,0,0,1-.922-.784A.106.106,0,0,1,143.591,104.389Z" transform="translate(-47.033 -71.899)" fill="#263238"/>
      <path id="Caminho_390" data-name="Caminho 390" d="M144.3,100.034a3.412,3.412,0,0,0,2.48,1.208,4.011,4.011,0,0,0,1.236-.111,1.052,1.052,0,0,0,.231-.055l.212-.065a.24.24,0,0,0,.166-.249h0a.4.4,0,0,0,0-.1h0v-.083c-.083-.775-.313-1.936-.313-1.936.3.1,1.844.553,1.743.157a51.284,51.284,0,0,0-2.72-10.143.092.092,0,0,0-.175.046c.5,3.2,1.558,6.3,2.111,9.506a6.371,6.371,0,0,0-1.678-.277c-.1.055.489,2.241.507,2.591a4.749,4.749,0,0,1-3.688-.618C144.3,99.868,144.224,99.951,144.3,100.034Z" transform="translate(-47.094 -70.669)" fill="#263238"/>
      <path id="Caminho_391" data-name="Caminho 391" d="M147.487,101.752a4.112,4.112,0,0,1-1.457,1.475,1.844,1.844,0,0,1-1.088.212c-.83-.1-.922-.83-.922-1.475a4.454,4.454,0,0,1,.221-1.014,5.283,5.283,0,0,0,3.246.8Z" transform="translate(-47.075 -71.631)" fill="#263238"/>
      <path id="Caminho_392" data-name="Caminho 392" d="M146.03,103.312a1.844,1.844,0,0,1-1.088.212c-.83-.1-.922-.83-.922-1.475A1.844,1.844,0,0,1,146.03,103.312Z" transform="translate(-47.075 -71.716)" fill="#ff99ba"/>
      <path id="Caminho_393" data-name="Caminho 393" d="M130.193,96.965c2.941-.479,4.168-4.915,4.214-8.16.046-2.407-.867-7.22,1.485-8.861s5.062.092,7.93-.443c1.217-.231,2.195-2.047,3.495-2.222s3.246,3.448,3.246,3.448-.516-5.265-7.183-5.671-12.835,2.766-14.3,8.123C127.177,90.05,130.193,96.965,130.193,96.965Z" transform="translate(-45.861 -69.61)" fill="#263238"/>
      <path id="Caminho_394" data-name="Caminho 394" d="M130.18,92.985s3.19-6.768,5.827-9.119c1.678-1.494,7.635-3.117,9.709-3.366,1.448-.184,4.288-.212,4.288-.212a11.882,11.882,0,0,0,.922-1.282,4.656,4.656,0,0,0,.221-4.426c-1.18-2.407-4.555-2.36-6.233-3.329s-6.39-2.766-9.156-1.844c-4.085,1.383-6.224,4.315-7.2,4.961-3.4,2.241-6.3,4.675-6.98,8.2-.784,4.112.433,6.888.3,8.52-.267,3.015,1.042,5.993,3.283,7.044a8.787,8.787,0,0,0,3.808.922Z" transform="translate(-45.305 -69.153)" fill="#2784ff"/>
      <path id="Caminho_395" data-name="Caminho 395" d="M150.308,79.906a9.635,9.635,0,0,0-1.272-.47,2.425,2.425,0,0,0,.839-1.411,10.548,10.548,0,0,0,0-2.471c0-.092-.157-.092-.148,0a5.836,5.836,0,0,1-.157,2.259,4.177,4.177,0,0,1-.8,1.54,7.93,7.93,0,0,0-1.042-.175l.138-.249a3.014,3.014,0,0,0,.24-.6,2.83,2.83,0,0,0,.074-1.272c0-.092-.157,0-.138,0a2.628,2.628,0,0,1-.055,1.2,2.912,2.912,0,0,1-.231.553,2.146,2.146,0,0,1-.157.24l-.055.074a2.379,2.379,0,0,0-.267,0,21.484,21.484,0,0,0-3.531.184l-.922.129a2.6,2.6,0,0,0,.212-.424,3.688,3.688,0,0,0,0-1.761A3.236,3.236,0,0,1,142.876,79a1.143,1.143,0,0,1-.47.489l-.692.12a1.844,1.844,0,0,1-1.07-.885,3.449,3.449,0,0,1-.553-1.6.074.074,0,1,0-.148,0,4.822,4.822,0,0,0,.341,1.438,2.9,2.9,0,0,0,.728,1.18,16.448,16.448,0,0,0-3.227,1.033,9.8,9.8,0,0,0-2.158,1.346,5.376,5.376,0,0,1-1.263-.3,2.766,2.766,0,0,1-1.226-.922c0-.083-.175,0-.12.074a3.356,3.356,0,0,0,2.305,1.42,13.055,13.055,0,0,0-1.807,1.872.968.968,0,0,0-.249,0,2.868,2.868,0,0,1-.562-.184,3.688,3.688,0,0,1-1.023-.655,6.574,6.574,0,0,1-1.383-2.176c0-.074-.166,0-.138.065a9.8,9.8,0,0,0,1.355,2.407,2.822,2.822,0,0,0,1.033.8,2.517,2.517,0,0,0,.636.184h0l-.138.175c-.111.148-.212.3-.323.461a1.6,1.6,0,0,1-1.033.138,2.646,2.646,0,0,1-1.521-1.263c-.055-.083-.175,0-.111.092.452.553.922,1.291,1.65,1.475a1.65,1.65,0,0,0,.673,0,33.819,33.819,0,0,0-2.407,3.836l-.129-.2a3.484,3.484,0,0,0-.507-.59,3.633,3.633,0,0,0-.6-.47c-.221-.138-.443-.286-.664-.406-.083,0-.148.074-.074.129a3.689,3.689,0,0,1,.6.461c.175.175.332.36.489.544a6.6,6.6,0,0,1,.443.562c.074.1.138.212.212.3l.046.065c-.148.286-.3.562-.424.858s-.2.507-.3.765h-.9a7.035,7.035,0,0,1-1.226-.24,8.189,8.189,0,0,1-1.153-.424,2.9,2.9,0,0,1-1.042-.839c-.055-.074-.184,0-.12.074a5.2,5.2,0,0,0,2.065,1.724,3.817,3.817,0,0,0,1.355.267,3.578,3.578,0,0,0,.857-.092,16.025,16.025,0,0,0-.655,2.453,19.168,19.168,0,0,0-.083,3.983c0,.092.157.083.148,0a9.94,9.94,0,0,1,.36-3.448,17.263,17.263,0,0,1,1.07-3.163A35.675,35.675,0,0,1,133,86.259a13.388,13.388,0,0,1,4.278-4.463,16.155,16.155,0,0,1,5.689-1.752,18.1,18.1,0,0,1,7.247,0C150.335,80.081,150.391,79.943,150.308,79.906Z" transform="translate(-45.562 -69.647)" fill="#263238"/>
      <path id="Caminho_396" data-name="Caminho 396" d="M132.467,97s-3.421-4.712-5.532-3.485.489,8.1,3.043,9a2.582,2.582,0,0,0,3.439-1.448Z" transform="translate(-45.683 -71.036)" fill="#dd6a57"/>
      <path id="Caminho_397" data-name="Caminho 397" d="M127.86,95.65v.065c1.8.692,2.766,2.324,3.458,4.029a1.429,1.429,0,0,0-2.148-.35s0,.1.055.092a1.577,1.577,0,0,1,1.752.526,7.257,7.257,0,0,1,.867,1.4c.083.157.369.065.314-.12h0C132.12,98.979,130.3,95.834,127.86,95.65Z" transform="translate(-45.815 -71.218)" fill="#263238"/>
      <path id="Caminho_398" data-name="Caminho 398" d="M135.905,108.666a15,15,0,0,1-6.565-4.693,12.909,12.909,0,0,1-2.6-5.412,10,10,0,0,0,1.042,2.231,7.026,7.026,0,0,0,1.687,1.844h0a14,14,0,0,0,6.519,5.532C136.246,108.334,136.2,108.758,135.905,108.666Z" transform="translate(-45.728 -71.445)" fill="#ebebeb"/>
      <path id="Caminho_399" data-name="Caminho 399" d="M133.143,98.67c-.461-.526-1.936-3.246-3.19-4.232h0a7.452,7.452,0,0,0-.6-.5,2.831,2.831,0,0,0-1.143-.544,1.77,1.77,0,0,1,1.051-.138c1.844.258,3.31,3.91,4.057,5.283C133.355,98.633,133.217,98.762,133.143,98.67Z" transform="translate(-45.842 -71.03)" fill="#ebebeb"/>
      <path id="Caminho_400" data-name="Caminho 400" d="M133.18,98.645c-.313-.7,4.841,5.44,12.512,5.449a9.958,9.958,0,0,0,8.621-4.7c.443-.645.286,6.261-1.577,9.313a9.479,9.479,0,0,1-5.947,3.605,14.513,14.513,0,0,1-13.831-5.366C132.111,105.883,135.836,104.5,133.18,98.645Z" transform="translate(-46.202 -71.447)" fill="#ebebeb"/>
      <path id="Caminho_401" data-name="Caminho 401" d="M135.31,102a40.57,40.57,0,0,0,4.509,2.185,19.7,19.7,0,0,0,4.758,1.346,10.318,10.318,0,0,0,4.841-.553,10.558,10.558,0,0,0,4.14-2.674,9.414,9.414,0,0,1-4.011,3.006,10.262,10.262,0,0,1-5.025.682,18.3,18.3,0,0,1-4.841-1.484A25.67,25.67,0,0,1,135.31,102Z" transform="translate(-46.396 -71.713)" fill="#fff"/>
      <path id="Caminho_402" data-name="Caminho 402" d="M135.31,103.89a40.568,40.568,0,0,0,4.509,2.185,19.713,19.713,0,0,0,4.758,1.355,10.447,10.447,0,0,0,4.841-.562,10.557,10.557,0,0,0,4.14-2.674,9.414,9.414,0,0,1-4.011,3.006,10.262,10.262,0,0,1-5.025.682,18.3,18.3,0,0,1-4.841-1.485,25.671,25.671,0,0,1-4.371-2.508Z" transform="translate(-46.396 -71.861)" fill="#fff"/>
      <path id="Caminho_403" data-name="Caminho 403" d="M135.31,105.8a24.276,24.276,0,0,0,4.407,2.388,15.555,15.555,0,0,0,4.795,1.217,11.461,11.461,0,0,0,4.859-.645,11.138,11.138,0,0,0,4.186-2.656,9.783,9.783,0,0,1-4.057,2.987,11.249,11.249,0,0,1-5.025.775,14.946,14.946,0,0,1-4.9-1.355,18.109,18.109,0,0,1-4.269-2.711Z" transform="translate(-46.396 -72.009)" fill="#fff"/>
      <path id="Caminho_404" data-name="Caminho 404" d="M134.73,107.41a21.438,21.438,0,0,0,4.444,2.628,15.463,15.463,0,0,0,4.951,1.282,12.3,12.3,0,0,0,5.034-.645,11.443,11.443,0,0,0,4.352-2.72,10.032,10.032,0,0,1-4.232,3.024,12.134,12.134,0,0,1-5.191.765,14.578,14.578,0,0,1-5.053-1.429,16.892,16.892,0,0,1-4.306-2.9Z" transform="translate(-46.351 -72.135)" fill="#fff"/>
      <path id="Caminho_405" data-name="Caminho 405" d="M142.131,182.464a.1.1,0,0,0-.194,0c-.046,2.877-2.545,4.61-4.868,5.79-2.508,1.272-5.071,2.443-7.635,3.605-5.32,2.416-10.723,4.61-16.164,6.713-1.5.59-3.015,1.162-4.527,1.733s-3.153,1.263-4.767,1.715c-.092,0,0,.166,0,.138,1.448-.535,2.951-.922,4.417-1.365s2.932-.922,4.389-1.429c2.849-.968,5.652-2.047,8.446-3.163s5.7-2.333,8.511-3.578c2.665-1.189,5.348-2.37,7.92-3.734C140.047,187.646,142.574,185.433,142.131,182.464Z" transform="translate(-43.95 -77.979)" fill="#263238"/>
      <path id="Caminho_406" data-name="Caminho 406" d="M142.278,178.764a6.1,6.1,0,0,1-.728,1.909,12.6,12.6,0,0,1-.71,1.236,14.089,14.089,0,0,1-2.038,2.407A32.392,32.392,0,0,1,133.74,188h0a31.923,31.923,0,0,0,5.4-3.688,11.884,11.884,0,0,0,2.056-2.4,9.055,9.055,0,0,0,.728-1.429c.231-.572.267-1.18.479-1.752C142.426,178.69,142.278,178.653,142.278,178.764Z" transform="translate(-46.273 -77.691)" fill="#263238"/>
      <path id="Caminho_407" data-name="Caminho 407" d="M140.4,175.159c-1.567.682-3.07,1.558-4.61,2.333s-3.172,1.577-4.767,2.342h0q2.351-1.033,4.675-2.158a49.793,49.793,0,0,0,4.739-2.425C140.526,175.242,140.48,175.123,140.4,175.159Z" transform="translate(-46.061 -77.415)" fill="#263238"/>
      <path id="Caminho_408" data-name="Caminho 408" d="M141.172,176.189a9.949,9.949,0,0,1-2.1,1.715c-.811.572-1.623,1.153-2.453,1.715-.074.055,0,.175.074.12.848-.609,1.706-1.208,2.563-1.8a6.943,6.943,0,0,0,1.992-1.706S141.209,176.152,141.172,176.189Z" transform="translate(-46.495 -77.495)" fill="#263238"/>
      <path id="Caminho_409" data-name="Caminho 409" d="M137.338,170.115a9.294,9.294,0,0,0-2.766-.415,9.156,9.156,0,0,0-2.656.59c-1.936.645-3.854,1.328-5.8,1.936a.074.074,0,0,0,.046.138c1.844-.609,3.688-1.143,5.532-1.706a12.1,12.1,0,0,1,2.766-.645,20.932,20.932,0,0,1,2.849.2A.053.053,0,1,0,137.338,170.115Z" transform="translate(-45.676 -76.99)" fill="#263238"/>
      <path id="Caminho_410" data-name="Caminho 410" d="M132.861,165.4c-1.245-.267-2.084.175-3.292.489s-2.628.71-3.928,1.088c-2.554.747-5.09,1.531-7.6,2.4q-4.758,1.641-9.34,3.688a22.9,22.9,0,0,0-2.324.655q-1.429.443-2.821,1c-1.844.71-3.531,1.586-5.265,2.443-.083,0,0,.166.074.12a43.8,43.8,0,0,1,5.376-2.3c.876-.323,1.752-.618,2.637-.922l.267-.074c-1.07.5-2.13,1.014-3.172,1.549a75.406,75.406,0,0,0-7.745,4.518s0,.074,0,.055a101.167,101.167,0,0,1,14.08-6.962q7.247-2.9,14.688-5.237c1.392-.443,2.766-.858,4.2-1.3s2.6-1.236,4.149-1.07C132.861,165.551,132.861,165.412,132.861,165.4Z" transform="translate(-43.311 -76.649)" fill="#263238"/>
      <path id="Caminho_411" data-name="Caminho 411" d="M150.9,120.94h-.074a5.09,5.09,0,0,1-2.25,5.127,8.7,8.7,0,0,1-5.735,1.282,17.657,17.657,0,0,1-5.956-1.733c-1.687-.848-3.633-2.324-3.836-4.343,0-.092-.157-.092-.138,0a6.777,6.777,0,0,0,2,4.1,11.489,11.489,0,0,0,4.85,2.37c3.375.922,7.782,1,10.143-2.056a5.274,5.274,0,0,0,1-4.749Z" transform="translate(-46.209 -73.19)" fill="#263238"/>
    </g>
    <g id="freepik--character-2--inject-35" transform="translate(161.265 72.815)">
      <path id="Caminho_412" data-name="Caminho 412" d="M221.018,234.16c-.728,3.43,1.143,8.547-1.457,8.778-2.314.2-3.264-3.467-3.264-3.467s-.267,4.481-2.812,3.993-2.766-4.721-2.766-4.721-.055,3.744-2.563,3.07-3.356-4.232-3.356-4.232-.747,1.06-2.314-.212c-2.231-1.844-2.121-8.04-1.3-11.277s6.252-14.476,7.109-16.182l20.82,5.136s1.18,6.454,1.383,9.765-2.176,14.513-4.988,14.107-1-8.3-.922-10.29-.443-2.37-1.162-1.466C222.9,227.752,221.35,232.648,221.018,234.16Z" transform="translate(-175.378 -86.141)" fill="#eb9481"/>
      <path id="Caminho_413" data-name="Caminho 413" d="M217.571,240.693c-.922-5.21-.489-7.653,1.448-12.494,0-.1-.092-.175-.138-.083-2.333,4.61-3.375,7.552-1.558,12.632C217.4,241,217.617,240.915,217.571,240.693Z" transform="translate(-176.605 -87.557)" fill="#263238"/>
      <path id="Caminho_414" data-name="Caminho 414" d="M211.589,240.272c-.526-5.532,0-8.16,1.623-13.379,0-.074-.1-.12-.129-.046-2.047,4.988-3.024,7.985-1.77,13.407C211.368,240.5,211.617,240.521,211.589,240.272Z" transform="translate(-176.166 -87.458)" fill="#263238"/>
      <path id="Caminho_415" data-name="Caminho 415" d="M205.139,238.727c-.129-5.357.3-8.3,2.554-13.158a.1.1,0,0,0-.175-.092,17.807,17.807,0,0,0-2.536,13.232C205.028,239.04,205.148,239.059,205.139,238.727Z" transform="translate(-175.69 -87.352)" fill="#263238"/>
      <path id="Caminho_416" data-name="Caminho 416" d="M234.726,137.927c-11.424,18.229-24.683,61.123-26.159,67.181-1.005,4.122,20.617,9.9,20.885,7.008.332-3.688,8.409-50.3,9.552-67.476C239.64,135.161,237.077,134.146,234.726,137.927Z" transform="translate(-175.992 -80.37)" fill="#eb9481"/>
      <path id="Caminho_417" data-name="Caminho 417" d="M239.548,148.847c-.36,15.61-8.418,59.768-8.418,59.768l-16.357-4.066-8.252-2.056s17.215-45.181,24.9-60.422c.6-1.171,1.153-2.185,1.678-3.043C238.156,130.747,239.825,136.8,239.548,148.847Z" transform="translate(-175.836 -80.318)" fill="#ebebeb"/>
      <path id="Caminho_418" data-name="Caminho 418" d="M231.636,209.231c-9.8-3.255-20.6-5.191-22.452-5.661a.074.074,0,0,0,0,.148c1.844.36,13.951,3.91,22.461,5.661C231.71,209.407,231.737,209.259,231.636,209.231Z" transform="translate(-176.037 -85.647)" fill="#263238"/>
      <path id="Caminho_419" data-name="Caminho 419" d="M240.246,148.847c-.36,15.61-8.418,59.768-8.418,59.768l-16.357-4.066,18.358-65.521C238.853,130.747,240.522,136.8,240.246,148.847Z" transform="translate(-176.533 -80.318)" fill="#263238"/>
      <path id="Caminho_420" data-name="Caminho 420" d="M255.817,205.3l-5.5,82.561-3.034,45.559-4.832,72.667H203.38l.037-.452,3.089-37.362,3.015-36.578,10.438-126.4Z" transform="translate(-175.591 -85.782)" fill="#eb9481"/>
      <path id="Caminho_421" data-name="Caminho 421" d="M174.162,441.578c2.075.673,62.884-.24,65.116-1.706.267-.166.313-5.661.231-13.195l2.96-44.747-38.477.111-3.034,38.726s-8.63,3.983-15.758,7.469h0a85.427,85.427,0,0,0-9.064,4.795C173.839,434.948,172.1,440.914,174.162,441.578Z" transform="translate(-173.242 -99.549)" fill="#eb9481"/>
      <path id="Caminho_422" data-name="Caminho 422" d="M174.162,445.36c2.075.673,62.884-.24,65.116-1.706.267-.166.313-5.661.231-13.195-15.02,3.347-55.074,8.769-56.245,5.625-.461-1.263.489-2.692,1.918-4.011a85.428,85.428,0,0,0-9.064,4.795C173.839,438.731,172.1,444.7,174.162,445.36Z" transform="translate(-173.242 -103.332)" fill="#263238"/>
      <path id="Caminho_423" data-name="Caminho 423" d="M305.781,407.442h-.009l-39.326-1.65H266.4l-7.856-72-5.016-45.928L244.52,205.3h36.292L296.9,335.549,301,368.734h.009l1.6,12.936Z" transform="translate(-178.797 -85.782)" fill="#eb9481"/>
      <path id="Caminho_424" data-name="Caminho 424" d="M333.833,443.22c-2.084.636-62.866-1.3-65.079-2.766-.258-.166-.212-5.661,0-13.195l-4.564-44.84,38.339.157,4.868,39.464s8.566,4.122,15.629,7.727h0a87.119,87.119,0,0,1,8.981,4.942C334.266,436.591,335.935,442.593,333.833,443.22Z" transform="translate(-180.331 -99.587)" fill="#eb9481"/>
      <path id="Caminho_425" data-name="Caminho 425" d="M334.2,447.011c-2.084.636-62.866-1.3-65.079-2.766-.258-.166-.212-5.661,0-13.195,14.956,3.6,54.908,9.691,56.144,6.565.479-1.245-.452-2.7-1.844-4.039a87.122,87.122,0,0,1,8.981,4.942C334.637,440.381,336.306,446.384,334.2,447.011Z" transform="translate(-180.702 -103.378)" fill="#263238"/>
      <path id="Caminho_426" data-name="Caminho 426" d="M294.214,335.549l-38.357-1.761-5.016-45.928-3.034,45.559L210.04,331.7l10.438-126.4h57.647Z" transform="translate(-176.11 -85.782)" fill="#263238"/>
      <path id="Caminho_427" data-name="Caminho 427" d="M219.56,205.3h60.2l15.251,123.915H206.78Z" transform="translate(-175.856 -85.782)" fill="#455a64"/>
      <path id="Caminho_428" data-name="Caminho 428" d="M224.529,174.118l-4.389,30.133s49.118.728,61.307-.129c0,0-9.949-56.338-23.051-70.574-6.556-7.118-14.255-6.583-19.16-1.6-1.245,1.254-16.053,20.838-17.62,28.316C220.26,166.825,224.529,174.118,224.529,174.118Z" transform="translate(-176.897 -79.772)" fill="#2784ff"/>
      <path id="Caminho_429" data-name="Caminho 429" d="M258.1,131.015c.194-.424-8.511,14.393-13.084,13.831-3.522-.443-4.693-12.42-3.882-13.2C246.385,126.626,252.111,127.142,258.1,131.015Z" transform="translate(-178.514 -79.756)" fill="#eb9481"/>
      <path id="Caminho_430" data-name="Caminho 430" d="M255.168,89.728c-2.065-1.678-2.72-8.1,0-11.231,3.744-4.306,12.651-.341,11.314,5.938S256.763,91.019,255.168,89.728Z" transform="translate(-179.487 -75.757)" fill="#263238"/>
      <path id="Caminho_431" data-name="Caminho 431" d="M263.339,77.819A11.3,11.3,0,0,0,258,76.381a4.426,4.426,0,0,0-2.462.747,4.61,4.61,0,0,0-1.577,2.019,10.254,10.254,0,0,0-.7,2.619,12.46,12.46,0,0,0-.12,2.766,9.4,9.4,0,0,0,1.946,5.145,8.2,8.2,0,0,1-2.665-5.062,11.286,11.286,0,0,1,0-2.951,10.8,10.8,0,0,1,.719-2.877,5.265,5.265,0,0,1,1.946-2.36,4.97,4.97,0,0,1,2.951-.738A9.442,9.442,0,0,1,263.339,77.819Z" transform="translate(-179.406 -75.678)" fill="#263238"/>
      <path id="Caminho_432" data-name="Caminho 432" d="M253.582,129.865c-.36.922-5.818,6.454-10.143,5.634-1.411-.267-.267-8.05-.267-8.05l-.046-.59-.645-8.3,10.327-4.7,1.485-.609v9.313a53.151,53.151,0,0,1-.71,7.3Z" transform="translate(-178.638 -78.607)" fill="#eb9481"/>
      <path id="Caminho_433" data-name="Caminho 433" d="M254.309,118.367a16.708,16.708,0,0,1-11.194,8.483l-.645-8.3,10.327-4.7,1.485-.609S254.309,115.527,254.309,118.367Z" transform="translate(-178.638 -78.606)" fill="#263238"/>
      <path id="Caminho_434" data-name="Caminho 434" d="M231.2,104.161c-1.355,14.559,7.21,17.021,10.345,17.307,2.858.267,12.6.793,15.444-13.545S253.5,88.348,247.02,87.407,232.553,89.6,231.2,104.161Z" transform="translate(-177.748 -76.581)" fill="#eb9481"/>
      <path id="Caminho_435" data-name="Caminho 435" d="M235.7,102.327a9.435,9.435,0,0,0,1-.184,1.632,1.632,0,0,0,.977-.378.526.526,0,0,0,0-.636,1.291,1.291,0,0,0-1.263-.332,1.89,1.89,0,0,0-1.208.645.553.553,0,0,0,.5.885Z" transform="translate(-178.062 -77.632)" fill="#263238"/>
      <path id="Caminho_436" data-name="Caminho 436" d="M246.14,102.593a8.855,8.855,0,0,1-.977-.231,1.632,1.632,0,0,1-.922-.424.526.526,0,0,1,0-.636,1.309,1.309,0,0,1,1.282-.267,1.844,1.844,0,0,1,1.171.692.553.553,0,0,1-.553.867Z" transform="translate(-178.767 -77.65)" fill="#263238"/>
      <path id="Caminho_437" data-name="Caminho 437" d="M244.1,106.69a.075.075,0,0,1,.074.083c-.083,1,0,2.148.922,2.517v.055C244,109.143,243.871,107.612,244.1,106.69Z" transform="translate(-178.757 -78.095)" fill="#263238"/>
      <path id="Caminho_438" data-name="Caminho 438" d="M245.035,105.6c1.6,0,1.586,3.172.1,3.218S243.688,105.646,245.035,105.6Z" transform="translate(-178.759 -78.011)" fill="#263238"/>
      <path id="Caminho_439" data-name="Caminho 439" d="M245.793,105.785c.277.184.553.507.922.544s.692-.3.922-.609h.055c0,.609-.24,1.245-.922,1.328s-1.033-.47-1.18-1.088C245.581,105.886,245.673,105.711,245.793,105.785Z" transform="translate(-178.881 -78.02)" fill="#263238"/>
      <path id="Caminho_440" data-name="Caminho 440" d="M237.659,106.46s-.074.046-.074.092c0,1-.1,2.139-1.005,2.471v.055C237.686,108.922,237.889,107.4,237.659,106.46Z" transform="translate(-178.179 -78.078)" fill="#263238"/>
      <path id="Caminho_441" data-name="Caminho 441" d="M236.681,105.33c-1.6-.12-1.733,3.1-.249,3.209S238.018,105.431,236.681,105.33Z" transform="translate(-178.086 -77.989)" fill="#263238"/>
      <path id="Caminho_442" data-name="Caminho 442" d="M235.907,105.511c-.258.166-.526.461-.83.47s-.6-.341-.811-.692h-.046c0,.618.138,1.263.719,1.4s.922-.387,1.125-.987C236.092,105.631,236.009,105.447,235.907,105.511Z" transform="translate(-177.995 -77.986)" fill="#263238"/>
      <path id="Caminho_443" data-name="Caminho 443" d="M243.357,115.276c-.231.249-.461.572-.821.618a2.591,2.591,0,0,1-1.079-.212s-.065,0,0,.055a1.328,1.328,0,0,0,1.282.489,1.051,1.051,0,0,0,.747-.922.066.066,0,1,0-.129-.028Z" transform="translate(-178.557 -78.761)" fill="#263238"/>
      <path id="Caminho_444" data-name="Caminho 444" d="M238.936,110.471a21.7,21.7,0,0,0-.249,2.185c0,.065.166.1.406.12h0a3.329,3.329,0,0,0,3.264-1.18c.046-.065,0-.138-.111-.1a4.933,4.933,0,0,1-3.061.811c0-.194.489-2.517.378-2.536a6.4,6.4,0,0,0-1.6.332c.4-3.1,1.282-6.113,1.632-9.221a.092.092,0,0,0-.175-.046,50.611,50.611,0,0,0-2.195,9.848C237.193,111.126,238.65,110.591,238.936,110.471Z" transform="translate(-178.229 -77.635)" fill="#263238"/>
      <path id="Caminho_445" data-name="Caminho 445" d="M256.868,107.794c-1.669-.138-5.92-4.841-5.874-12.909,0,0,.461,7.266.977,8.3s-2.37-2.646-2.425-9.165a26.242,26.242,0,0,1-6.759,3.319c-3.1.793-4.979.719-5.191.489s4.343-1.549,5.6-2.932c0,0-8.3,3.624-12.051,3.817-.433,0-.756-8.962,5.164-12.632s15.066.645,17.519,3.1c0,0,2.9.489,5.975,4.868S258.656,107.942,256.868,107.794Z" transform="translate(-177.738 -76.378)" fill="#263238"/>
      <path id="Caminho_446" data-name="Caminho 446" d="M252.637,88.948a35.246,35.246,0,0,0-3.393-1.927,26.582,26.582,0,0,0-3.531-1.521,17.353,17.353,0,0,0-3.688-.922,5.3,5.3,0,0,0-.922-.083h-.922a8.657,8.657,0,0,0-1.844.286,8.391,8.391,0,0,0-1.715.645,13.455,13.455,0,0,0-1.549,1.051,10.547,10.547,0,0,0-1.365,1.282A13.935,13.935,0,0,0,232.6,89.28a12.789,12.789,0,0,0-1.475,3.5,15.343,15.343,0,0,0-.544,3.836,13.1,13.1,0,0,1,1.4-7.69,9.894,9.894,0,0,1,2.5-3.117,11.066,11.066,0,0,1,1.669-1.162,9.017,9.017,0,0,1,1.918-.756,10,10,0,0,1,4.048-.166,15.62,15.62,0,0,1,3.836,1.088,25.108,25.108,0,0,1,6.685,4.131Z" transform="translate(-177.703 -76.295)" fill="#263238"/>
      <path id="Caminho_447" data-name="Caminho 447" d="M256.489,110.347s3.218-4.546,5.283-3.393-.378,7.754-2.812,8.64a2.471,2.471,0,0,1-3.31-1.346Z" transform="translate(-179.665 -78.101)" fill="#eb9481"/>
      <path id="Caminho_448" data-name="Caminho 448" d="M261.137,109v.065a6.282,6.282,0,0,0-3.264,3.891,1.365,1.365,0,0,1,2.047-.36c.046,0,0,.1-.046.092a1.521,1.521,0,0,0-1.678.516,7.994,7.994,0,0,0-.811,1.355c-.074.148-.35.065-.3-.111h0C257.1,112.236,258.85,109.2,261.137,109Z" transform="translate(-179.777 -78.276)" fill="#263238"/>
      <path id="Caminho_449" data-name="Caminho 449" d="M255.908,129.42s-5.726,157.081-2.683,164.541,45.337,13.176,45.337,13.176-10.05-110.748-22.2-144.91C265.092,130.628,255.908,129.42,255.908,129.42Z" transform="translate(-179.406 -79.867)" fill="#ebebeb"/>
      <path id="Caminho_450" data-name="Caminho 450" d="M286.775,236.89a106.766,106.766,0,0,1-12.494.968c-5.846,0-11.646-.562-13.324-.59-.148,0-.23.5-.12.507a131.437,131.437,0,0,0,13.342.922,70.074,70.074,0,0,0,12.171-1.153v3.439c-4.122.8-12.07,2.176-24.9.526,0-.526,0-3.273-.074-4.029,0-.12-.5-.138-.516,0-.1.747-.406,7.376-.415,8.713,0,3.319.194,12.7,1.023,14.513,1.844,4.112,9.875,4.122,12.088,4.14s9.359.24,12.042-2.379c1.429-1.392,1.733-9,1.521-15.675C286.922,243.6,286.922,236.991,286.775,236.89Zm-12.623,27.173c-5.4-.12-10.143-1.475-11.249-2.951-1.272-1.724-1.383-4.721-1.475-8.031-.074-2.6,0-10.751,0-10.917a65.922,65.922,0,0,0,24.9-.332v10.816c0,2.766-.175,7.487-1.6,9.119-1.2,1.365-5.5,2.416-10.622,2.3Z" transform="translate(-180.039 -88.244)" fill="#263238"/>
      <path id="Caminho_451" data-name="Caminho 451" d="M221.019,295.579c-2.536,5.984-17.639,10.041-17.639,10.041l19.013-131.089a19.584,19.584,0,0,1-2.665-13.176c1.282-7.376,16.966-28.989,18.893-29.865a273.025,273.025,0,0,0-5.071,33.517C229.308,211.073,223.776,289.069,221.019,295.579Z" transform="translate(-175.591 -80.029)" fill="#ebebeb"/>
      <path id="Caminho_452" data-name="Caminho 452" d="M241.172,131.28c-1.079,1.936-2.176,3.863-3.3,5.763s-2.241,3.817-3.393,5.7l-.065-.507c1.079,1,2.139,2,3.2,3.015l.332.314-.313.332-3.688,3.863.12-.36q.526,4.288.922,8.575c.286,2.868.544,5.735.738,8.612-.516-2.84-.922-5.68-1.374-8.529s-.83-5.7-1.2-8.547V149.3l.138-.157,3.688-3.873v.636c-1.051-1.014-2.1-2.047-3.135-3.08l-.24-.24.175-.267c1.189-1.844,2.425-3.688,3.642-5.532S239.9,133.1,241.172,131.28Z" transform="translate(-177.911 -80.012)" fill="#a6a6a6"/>
      <rect id="Retângulo_173" data-name="Retângulo 173" width="48.389" height="37.177" transform="matrix(0.032, -0.999, 0.999, 0.032, 43.52, 125.112)" fill="#263238"/>
      <rect id="Retângulo_174" data-name="Retângulo 174" width="17.62" height="5.339" transform="matrix(0.999, 0.033, -0.033, 0.999, 55.071, 74.536)" fill="#c7c7c7"/>
      <path id="Caminho_453" data-name="Caminho 453" d="M246.908,156.614l-2.167-.074.074-2.462-5.265-.166-.083,2.453L237.3,156.3l.148-4.49,9.635.323Z" transform="translate(-178.235 -81.612)" fill="#c7c7c7"/>
      <path id="Caminho_454" data-name="Caminho 454" d="M267.759,138.936c18.635,19.64,33.95,60.478,24.988,64.313-8.2,3.5-34.171.267-44.849-2.277-3.135-.747,3.181-25.052,6.537-24.259,4.057.968,14.421,2.462,14.836,2.425.922-.055-9.073-28.584-12.116-39.049C252.914,125.557,260.752,131.56,267.759,138.936Z" transform="translate(-178.995 -80.006)" fill="#eb9481"/>
      <path id="Caminho_455" data-name="Caminho 455" d="M219.76,174.251a3.845,3.845,0,0,0,.313,4.371,5.726,5.726,0,0,0-2.766,2.766c-.922,2.176,2.139,4.518,2.139,4.518a7.017,7.017,0,0,0-2.425,3.365c-.636,2.167,2.075,4.961,2.075,4.961a6.2,6.2,0,0,0-.267,4.3c1.3,3.734,7.192,5.081,10.936,5.966s15.168-.083,17.372-.055l5.92-23.973s-15.675-8.76-20.175-9.221C229.11,170.95,221.4,171.724,219.76,174.251Z" transform="translate(-176.647 -83.123)" fill="#eb9481"/>
      <path id="Caminho_456" data-name="Caminho 456" d="M220.643,178.86c4.158-.6,8.3.065,12.411.5a.074.074,0,0,1,0,.138c-4.112-.47-8.3-.129-12.392-.433A.1.1,0,0,1,220.643,178.86Z" transform="translate(-176.93 -83.702)" fill="#263238"/>
      <path id="Caminho_457" data-name="Caminho 457" d="M219.871,186.809a11.065,11.065,0,0,1,2.858.249c1.005.157,2,.323,3,.516,2,.378,3.992.793,5.966,1.272.092,0,.074.166,0,.148-1.992-.369-3.983-.71-5.993-1.005l-3.015-.406a12.752,12.752,0,0,1-2.821-.5.148.148,0,0,1,.009-.277Z" transform="translate(-176.868 -84.34)" fill="#263238"/>
      <path id="Caminho_458" data-name="Caminho 458" d="M219.429,196.18a7.542,7.542,0,0,1,2.554.35l2.766.562c1.844.36,3.633.719,5.459,1.014a.074.074,0,0,1,0,.148c-1.844-.3-3.688-.562-5.578-.922q-1.383-.221-2.766-.47a7.3,7.3,0,0,1-2.434-.636S219.392,196.18,219.429,196.18Z" transform="translate(-176.84 -85.07)" fill="#263238"/>
      <path id="Caminho_459" data-name="Caminho 459" d="M268.8,178.244c1.282-1.088-9.221-27.966-11.987-39.648s.5-11.231,10.143-1.669,25.633,33.609,29.091,56.513c1.088,7.155,2.545,12.263-14.006,11.987a190.374,190.374,0,0,1-28.713-2.508l3.614-26.168S268.433,178.567,268.8,178.244Z" transform="translate(-179.484 -79.896)" fill="#ebebeb"/>
      <path id="Caminho_460" data-name="Caminho 460" d="M259.666,206.9c2.112-10.345,2.766-21.539,3.024-23.485a.074.074,0,0,0-.148,0c-.148,1.918-2.287,14.633-3.043,23.494C259.491,207,259.638,207,259.666,206.9Z" transform="translate(-179.965 -84.07)" fill="#263238"/>
      <path id="Caminho_461" data-name="Caminho 461" d="M281.691,182.492a21.128,21.128,0,0,0-3.126-.645l-2.914-.535-1.263-.212h.12l1.7-.24c.562-.083,1.116-.212,1.687-.258.092,0,.083-.148,0-.138-.553.074-1.125.065-1.687.1l-1.761.129a14.522,14.522,0,0,0-1.54.157c-.922-.157-1.844-.3-2.822-.433-.406-1.844-1.06-3.688-1.632-5.532s-1.208-3.79-1.844-5.671-1.309-3.688-2.019-5.532c-.35-.922-.719-1.844-1.079-2.766a21.26,21.26,0,0,1-1.079-2.849c0-.092-.175,0-.129.065a19.659,19.659,0,0,1,1.014,2.96c.286.922.562,1.844.848,2.766q.857,2.766,1.733,5.578c.59,1.844,1.18,3.688,1.761,5.578.535,1.706.987,3.458,1.6,5.136-1.927-.258-3.863-.479-5.79-.719l-2.96-.35c-1.06-.12-2.167-.12-3.209-.3-.092,0-.12.129,0,.138,1.033.12,2.084.443,3.126.627l2.914.507c2.065.35,4.122.719,6.187,1.042s4.085.544,6.132.775c1.023.12,2.047.221,3.07.35a20.519,20.519,0,0,0,3,.249.046.046,0,0,0-.028.028Z" transform="translate(-179.787 -82.097)" fill="#263238"/>
      <path id="Caminho_462" data-name="Caminho 462" d="M285.954,211.646c-8.916-.313-24.969-1.531-32.4-2.526-.1,0-.12.129,0,.148a127.971,127.971,0,0,0,32.419,2.72.175.175,0,0,0-.018-.341Z" transform="translate(-179.495 -86.079)" fill="#263238"/>
      <path id="Caminho_463" data-name="Caminho 463" d="M263.558,147.906l.3.221-.157.323c-1.272,2.674-2.508,5.348-3.836,7.994l-.636,1.272h-.618l.664-1.531c1.116-2.609,2.314-5.164,3.467-7.745-1.383-.922-2.766-1.927-4.14-2.9l-.461-.332.424-.369,4.454-3.873c-1.134-1.761-2.213-3.605-3.31-5.449s-2.287-3.817-3.393-5.754c1.309,1.844,2.582,3.633,3.836,5.477s2.517,3.688,3.688,5.532l.184.286-.258.231-4.223,3.78C260.921,146.025,262.24,146.975,263.558,147.906Z" transform="translate(-179.717 -79.894)" fill="#a6a6a6"/>
    </g>
    <g id="freepik--speech-bubble--inject-35" transform="translate(252.178 59.515)">
      <path id="Caminho_464" data-name="Caminho 464" d="M309.667,79.208a17.759,17.759,0,0,1-28.353,14.264l-8.7,2.222,3.624-8.1a17.768,17.768,0,1,1,33.434-8.381Z" transform="translate(-271.9 -61.268)" fill="#fff"/>
      <path id="Caminho_465" data-name="Caminho 465" d="M309.607,79.193a17.888,17.888,0,0,1-2.582,9.331,19.278,19.278,0,0,1-1.448,2,20.6,20.6,0,0,1-1.7,1.844,17.888,17.888,0,0,1-4.011,2.766,17.676,17.676,0,0,1-4.61,1.65,18.2,18.2,0,0,1-2.453.313,15.914,15.914,0,0,1-2.48,0,18.044,18.044,0,0,1-9.221-3.384l.277.055-8.732,2.287-.811.212.341-.775,3.587-8.123v.4a18.008,18.008,0,0,1-.562-15.952,18.322,18.322,0,0,1,4.951-6.454,17.989,17.989,0,0,1,29.432,13.831Zm0,0a17.518,17.518,0,0,0-28.989-13.287,18.386,18.386,0,0,0-4.61,6.3,17.519,17.519,0,0,0-1.448,7.672,18,18,0,0,0,2.038,7.487l.111.194-.111.2-3.688,8.086-.47-.562,8.769-2.148h.157l.12.092a17.381,17.381,0,0,0,8.879,3.485,14.19,14.19,0,0,0,2.425,0,16.255,16.255,0,0,0,2.407-.249,17.031,17.031,0,0,0,4.61-1.521,16.118,16.118,0,0,0,4.02-2.766,18.02,18.02,0,0,0,1.706-1.752,19.907,19.907,0,0,0,1.42-1.982A17.869,17.869,0,0,0,309.607,79.193Z" transform="translate(-271.84 -61.254)" fill="#263238"/>
      <rect id="Retângulo_175" data-name="Retângulo 175" width="4.417" height="17.178" transform="translate(17.565 9.355)" fill="#2784ff"/>
      <rect id="Retângulo_176" data-name="Retângulo 176" width="4.417" height="17.178" transform="translate(11.194 20.152) rotate(-90)" fill="#2784ff"/>
    </g>
  </g>
</svg>
