<svg xmlns="http://www.w3.org/2000/svg" width="25.034" height="20.024" viewBox="0 0 25.034 20.024">
  <path id="Icon_awesome-code" data-name="Icon awesome-code" d="M10.908,20.007l-2.386-.692a.47.47,0,0,1-.321-.583L13.54.341a.47.47,0,0,1,.583-.321l2.386.692a.47.47,0,0,1,.321.583L11.49,19.687a.469.469,0,0,1-.583.321ZM6.449,15.619,8.15,13.8a.469.469,0,0,0-.031-.673L4.575,10.014,8.119,6.9a.466.466,0,0,0,.031-.673l-1.7-1.815a.47.47,0,0,0-.665-.02L.148,9.67a.466.466,0,0,0,0,.684l5.636,5.284a.466.466,0,0,0,.665-.02Zm12.8.023,5.636-5.284a.466.466,0,0,0,0-.684L19.247,4.386a.474.474,0,0,0-.665.02L16.88,6.22a.469.469,0,0,0,.031.673l3.544,3.121-3.544,3.117a.466.466,0,0,0-.031.673l1.7,1.815a.47.47,0,0,0,.665.023Z" transform="translate(0.002 -0.003)"/>
</svg>
