<svg xmlns="http://www.w3.org/2000/svg" width="50.67" height="58.601" viewBox="0 0 50.67 58.601">
  <path id="Icon_awesome-user-injured" data-name="Icon awesome-user-injured" d="M31.371,1.371A14.221,14.221,0,0,0,25.335,0a14.468,14.468,0,0,0-13.4,9.156h9.183Zm7.367,7.785a14.606,14.606,0,0,0-4.127-5.668L27.143,9.156ZM25.335,29.3A14.565,14.565,0,0,0,39.812,14.65a14.807,14.807,0,0,0-.182-1.831H11.04a14.591,14.591,0,0,0-.182,1.831A14.565,14.565,0,0,0,25.335,29.3Zm-16.287,5V58.6H23.555L12.42,33.247A14.9,14.9,0,0,0,9.048,34.3ZM0,53.107A5.462,5.462,0,0,0,5.429,58.6V36.653A15.352,15.352,0,0,0,0,48.346Zm28.954-5.494H22.691L27.517,58.6h1.438a5.494,5.494,0,0,0,0-10.988Zm6.515-14.65h-1.89a19.472,19.472,0,0,1-16.488,0h-.834l4.826,10.988h7.871A9.132,9.132,0,0,1,36.146,58.6h9.095a5.462,5.462,0,0,0,5.429-5.494V48.346A15.292,15.292,0,0,0,35.469,32.963Z" fill="#f3f8fd"/>
</svg>
