<svg xmlns="http://www.w3.org/2000/svg" width="65.379" height="50.852" viewBox="0 0 65.379 50.852">
  <path id="Icon_awesome-pills" data-name="Icon awesome-pills" d="M12.713,2.25A12.707,12.707,0,0,0,0,14.963V40.389a12.713,12.713,0,1,0,25.426,0V14.963A12.707,12.707,0,0,0,12.713,2.25Zm5.448,25.426H7.265V14.963a5.448,5.448,0,0,1,10.9,0ZM34.019,24.3a.932.932,0,0,0-1.4.091A18.055,18.055,0,0,0,57.855,49.629a.924.924,0,0,0,.091-1.4ZM60.1,22.148a18.1,18.1,0,0,0-23.428-1.8.924.924,0,0,0-.091,1.4L60.511,45.667a.932.932,0,0,0,1.4-.091A18.082,18.082,0,0,0,60.1,22.148Z" transform="translate(0 -2.25)" fill="#fff"/>
</svg>
