<svg xmlns="http://www.w3.org/2000/svg" width="45.473" height="45.473" viewBox="0 0 45.473 45.473">
  <path id="Icon_awesome-history" data-name="Icon awesome-history" d="M46.035,23.256A22.737,22.737,0,0,1,9.03,41a2.2,2.2,0,0,1-.169-3.264L9.894,36.7a2.2,2.2,0,0,1,2.924-.182,16.87,16.87,0,1,0-1.077-25.514l4.653,4.653a1.467,1.467,0,0,1-1.037,2.5H2.029A1.467,1.467,0,0,1,.563,16.7V3.37a1.467,1.467,0,0,1,2.5-1.037L7.593,6.859a22.736,22.736,0,0,1,38.442,16.4ZM29.449,30.479l.9-1.158a2.2,2.2,0,0,0-.386-3.088l-3.731-2.9V13.764a2.2,2.2,0,0,0-2.2-2.2H22.565a2.2,2.2,0,0,0-2.2,2.2V26.2l6,4.664a2.2,2.2,0,0,0,3.088-.386Z" transform="translate(-0.563 -0.563)" fill="#fff"/>
</svg>
