<svg xmlns="http://www.w3.org/2000/svg" width="109.564" height="145.277" viewBox="0 0 109.564 145.277">
  <g id="Grupo_115" data-name="Grupo 115" transform="translate(-915.936 -477.239)">
    <path id="Caminho_1" data-name="Caminho 1" d="M915.936,582.235h28.3l25.08,25.08s-9.894,4.213-53.376,2.7" transform="translate(0 12.174)" fill="#fff"/>
    <path id="Caminho_2" data-name="Caminho 2" d="M976.748,587.313l20.6,20.272s24.625-23.76,27-44.5,3.24-42.121-21.168-65.233-52.921-20.3-70.849-20.521-16.2,0-16.2,0v28.945h45.577s29.809,6.048,34.561,33.7c1.915,11.142.5,21.526-3.672,29.593A51.523,51.523,0,0,1,976.748,587.313Z" transform="translate(0.018 0)" fill="#fff"/>
    <path id="Caminho_3" data-name="Caminho 3" d="M916.09,527.167v33.416h40.265s13.2-2.808,13.479-17.972-16.006-15.444-16.006-15.444Z" transform="translate(0.018 5.789)" fill="#fff"/>
  </g>
</svg>
