<svg xmlns="http://www.w3.org/2000/svg" width="45.37" height="60.159" viewBox="0 0 45.37 60.159">
  <g id="Grupo_92" data-name="Grupo 92" transform="translate(-915.936 -477.239)">
    <path id="Caminho_1" data-name="Caminho 1" d="M915.936,582.235h11.718l10.385,10.385s-4.1,1.744-22.1,1.118" transform="translate(0 -56.476)" fill="#2784ff"/>
    <path id="Caminho_2" data-name="Caminho 2" d="M941.208,522.82l8.532,8.395s10.2-9.839,11.181-18.426,1.342-17.442-8.766-27.013-21.915-8.408-29.339-8.5-6.709,0-6.709,0v11.986h18.873s12.344,2.5,14.312,13.954a19.566,19.566,0,0,1-1.521,12.254A21.336,21.336,0,0,1,941.208,522.82Z" transform="translate(-0.082 0)" fill="#2784ff"/>
    <path id="Caminho_3" data-name="Caminho 3" d="M916.09,527.167V541h16.674a7.464,7.464,0,0,0,5.581-7.442c.116-6.279-6.628-6.4-6.628-6.4Z" transform="translate(-0.083 -26.856)" fill="#2784ff"/>
  </g>
</svg>
