<svg xmlns="http://www.w3.org/2000/svg" width="277.226" height="224.225" viewBox="0 0 277.226 224.225">
  <g id="Pharmacist-cuate" transform="translate(-58.34 -107.047)">
    <g id="freepik--Character--inject-488" transform="translate(137.513 107.047)">
      <path id="Caminho_753" data-name="Caminho 753" d="M255.62,369.07s3.5,25.794,3.5,25.842c.068,4.93.211,9.255.49,11.486a.061.061,0,0,0,0,.034,3.359,3.359,0,0,0,.388,1.517.068.068,0,0,0,0,.034c1.482.972,40.918,1.618,42.305,1.176s.231-4.413-1.278-5.665-16.5-8.242-16.5-8.242l-3.754-25.78Z" transform="translate(-200.634 -190.884)" fill="#f7a9a0"/>
      <path id="Caminho_754" data-name="Caminho 754" d="M260.85,411.69c.082,3.577.218,6.583.442,8.317a.048.048,0,0,0,0,.034,3.3,3.3,0,0,0,.381,1.516v.034c1.482.972,40.918,1.612,42.305,1.176s.231-4.413-1.279-5.658a85.646,85.646,0,0,0-8.31-4.339c1.2.938,2.4,2.095,1.85,2.564C295.308,416.158,271.391,415.3,260.85,411.69Z" transform="translate(-202.308 -204.52)" fill="#263238"/>
      <path id="Caminho_755" data-name="Caminho 755" d="M298.086,411.278s-6.977-3.176-18.946,2.571" transform="translate(-208.16 -204.109)" fill="#263238"/>
      <path id="Caminho_756" data-name="Caminho 756" d="M251.046,334.277l25.23-.551L259.818,204.77H233.8Z" transform="translate(-193.653 -138.315)" fill="#f7a9a0"/>
      <path id="Caminho_757" data-name="Caminho 757" d="M217.619,369.31s-3.305,24.59-3.305,24.6c0,4.937-.143,9.262-.415,11.493a.061.061,0,0,1,0,.034,3.434,3.434,0,0,1-.367,1.523h0c-1.476.986-36.722,1.884-38.082,1.455s-.258-4.42,1.244-5.672,12.241-8.351,12.241-8.351l4.141-25.767Z" transform="translate(-174.786 -190.743)" fill="#f7a9a0"/>
      <path id="Caminho_758" data-name="Caminho 758" d="M175.394,421.328c1.36.428,36.6-.469,38.082-1.448v-.041a3.3,3.3,0,0,0,.381-1.517.088.088,0,0,0,0-.041,62.366,62.366,0,0,0,.367-7.8c-5.753,3.645-20.639,5.27-25.372,4.23-4.2-.918-3.278-4.3-2.394-5.821-3.244,2.162-8.786,5.882-9.847,6.766C175.135,416.908,174.006,420.9,175.394,421.328Z" transform="translate(-174.764 -203.625)" fill="#263238"/>
      <path id="Caminho_759" data-name="Caminho 759" d="M192,408.761s11.853-1.931,19.952,4.475" transform="translate(-180.279 -203.496)" fill="#263238"/>
      <path id="Caminho_760" data-name="Caminho 760" d="M245.85,204.73c-.1.476-1.734,8.038-3.4,14.532-1.231,4.76-2.5,8.915-3.217,9.344a17.643,17.643,0,0,1-2.72,1.36L222.6,333.9l-25.06-.558,13.281-112,3.142-16.613Z" transform="translate(-182.051 -138.302)" fill="#f7a9a0"/>
      <path id="Caminho_761" data-name="Caminho 761" d="M214.829,204.84h36.165l10.677,79.232s-17.3,4.4-27.929,4.291-29.521-5.889-29.521-5.889Z" transform="translate(-184.189 -138.337)" fill="#263238"/>
      <path id="Caminho_762" data-name="Caminho 762" d="M259.864,139.174a.306.306,0,0,1-.279.279l-1.163-.109c-.612-3.047-1.4-5.515-1.238-4.577a15.741,15.741,0,0,1,.1,4.468c-.51-.048-1.693-.184-2.285-.245-.17-5.223-.775-9.174-.87-8-.388,4.76-.864,6.2-1.394,7.752-5.529-.612-12.764-1.51-17.987-2.271-.2-2.9-.286-6.025-.408-5.828a15.456,15.456,0,0,0-1.734,5.508c-1.659-.258-2.979-.5-3.781-.68,0,0-.048-2.428,0-3.21a17.3,17.3,0,0,1,1.428-5.814,29.779,29.779,0,0,1,3.2-5.1v-.034h0a17.185,17.185,0,0,0,1.911-3.4h0a17.25,17.25,0,0,0,.836-2.72c.734-3.4,2.985-6.12,6.154-6.556,6.154-3.9,12.418,0,13.329,4.76h0c.3,2.1.456,4.76.68,6.868h0a21.637,21.637,0,0,0,.347,2.428C257.667,126.526,260.68,129.117,259.864,139.174Z" transform="translate(-192.053 -107.047)" fill="#263238"/>
      <path id="Caminho_763" data-name="Caminho 763" d="M240.7,110.336a6.46,6.46,0,0,0-4.277,4.7A17.993,17.993,0,0,1,235,119.21a15.267,15.267,0,0,1-2.843,3.4,11.445,11.445,0,0,0-3.5,5.787,20.612,20.612,0,0,0-.449,7.963h0a21.877,21.877,0,0,1,.911-8.229c.83-2.673,2.53-4.169,4.311-6.012a11.8,11.8,0,0,0,3-5.216,14.465,14.465,0,0,1,1.136-3.631,7.072,7.072,0,0,1,3.23-2.645C240.968,110.533,240.859,110.274,240.7,110.336Z" transform="translate(-191.804 -108.097)" fill="#263238"/>
      <path id="Caminho_764" data-name="Caminho 764" d="M272.2,130.032c-1.122-2.19-2.346-4.08-2.815-6.671-.435-2.346-.524-4.76-.972-7.1,0-.041-.054,0-.048,0,.605,4.128.265,8.16,2.163,11.84a26.992,26.992,0,0,1,2.618,6.182,20.741,20.741,0,0,1,.306,7.338c0,.088.1.1.116,0A17.124,17.124,0,0,0,272.2,130.032Z" transform="translate(-204.71 -109.99)" fill="#263238"/>
      <path id="Caminho_765" data-name="Caminho 765" d="M253.4,159.187c2.04,6.644,10.609,28.269,17.246,30.3,4.352,1.36,22.407,1.081,25.842-2.9,1.5-1.734.292-14.8-2.135-14.485s-16.947,1.013-18.667.354-13.676-17-18.3-21.163C249.407,144.063,252.29,155.6,253.4,159.187Z" transform="translate(-199.467 -120.457)" fill="#f7a9a0"/>
      <path id="Caminho_766" data-name="Caminho 766" d="M288.26,170.2l-1.224,19.374s-14.41,1.414-20.286-1.435c-7.134-3.461-15.267-27.807-16.321-31.772-1.707-6.508-.578-10.2,2.781-8.841a14.46,14.46,0,0,1,4.9,3.958c1.945,2.176,13.54,16.675,17.382,19.633C277.631,172.764,288.26,170.2,288.26,170.2Z" transform="translate(-198.721 -119.91)" fill="#ebebeb"/>
      <path id="Caminho_767" data-name="Caminho 767" d="M299.44,199.682c.1-2.87.918-14.594,1.265-17.117,0-.17.143-.2.143,0a155.82,155.82,0,0,1-1.292,17.13C299.549,199.75,299.44,199.757,299.44,199.682Z" transform="translate(-214.655 -131.166)" fill="#263238"/>
      <path id="Caminho_768" data-name="Caminho 768" d="M280.956,189.858c-4.658.1-10.84-.136-14.206-1.768-7.134-3.461-15.267-27.807-16.321-31.772-1.707-6.508-.578-10.2,2.781-8.841l.313.136Z" transform="translate(-198.721 -119.894)" fill="#263238"/>
      <path id="Caminho_769" data-name="Caminho 769" d="M254.161,175.264l2.849,19.578s-31.908.469-39.83-.088c0,0,6.46-36.6,14.961-45.848,4.257-4.624,9.255-4.277,12.445-1.04.809.816,10.432,13.533,11.445,18.4C256.935,170.544,254.161,175.264,254.161,175.264Z" transform="translate(-188.335 -119.329)" fill="#2784ff"/>
      <path id="Caminho_770" data-name="Caminho 770" d="M230.338,146.56s6,13.642,6.358,24.706c.966,29.677-3.183,78.667-4.617,82.2-1.972,4.842-31.629,9.657-31.629,9.657s8.7-73.05,16.6-95.206C224.367,147.342,230.338,146.56,230.338,146.56Z" transform="translate(-182.982 -119.69)" fill="#ebebeb"/>
      <path id="Caminho_771" data-name="Caminho 771" d="M214.982,245.294c-.136,4.359.061,9.3.993,10.2,1.741,1.7,6.365,1.557,7.82,1.55s6.637,0,7.854-2.72c.537-1.176.68-7.27.68-9.425,0-.877-.2-5.182-.272-5.665,0-.109-.32-.1-.333,0-.075.5,0,2.285-.054,2.625a48.213,48.213,0,0,1-16.192-.34v-2.237a45.722,45.722,0,0,0,7.909.748,86.069,86.069,0,0,0,8.671-.619c.068,0,0-.326-.082-.326-1.088,0-4.862.388-8.657.388a70.8,70.8,0,0,1-8.12-.632C215.036,238.874,215.029,243.2,214.982,245.294Zm1.5,9.7c-.918-1.054-1.034-4.08-1.034-5.923V242.05a42.91,42.91,0,0,0,16.178.218c0,.109.054,5.4,0,7.086-.061,2.156-.129,4.08-.959,5.223-.68.959-2.72,1.924-7.3,1.918-3.319-.007-6.12-.612-6.9-1.5Z" transform="translate(-187.619 -149.216)" fill="#a6a6a6"/>
      <path id="Caminho_772" data-name="Caminho 772" d="M267.686,254.286c1.639,3.89,11.452,6.515,11.452,6.515l-12.363-85.162a12.724,12.724,0,0,0,1.727-8.562c-.83-4.76-10.833-18.633-12.452-19.347a154.471,154.471,0,0,1,3.468,21.721C262.293,199.386,265.89,250.056,267.686,254.286Z" transform="translate(-200.772 -120.064)" fill="#ebebeb"/>
      <path id="Caminho_773" data-name="Caminho 773" d="M268.459,164.637c-.891-1.421-1.8-2.829-2.679-4.257,0-.041.041-.088.068-.048.891,1.17,1.761,2.36,2.625,3.55-.286-.639-.564-1.278-.823-1.931,0-.075.075-.136.116-.061.394.836.755,1.693,1.1,2.55a24.646,24.646,0,0,1,2.04,3.4,11.738,11.738,0,0,1,1.081,7.9,10.491,10.491,0,0,1-.8,2.183c-.238.469-1.007,1.5-1,1.523.5,2.788.877,5.61,1.272,8.419s.8,5.685,1.129,8.535c.19,1.612.313,3.244.544,4.849,0,.061-.082.082-.088,0-.2-1.4-.51-2.788-.762-4.182s-.483-2.788-.68-4.189c-.456-2.829-.857-5.665-1.265-8.5-.231-1.6-.49-3.2-.68-4.815a14.856,14.856,0,0,1,.925-1.761,11.562,11.562,0,0,0,.68-1.843A10.4,10.4,0,0,0,271.6,172C271.288,169.33,269.887,166.9,268.459,164.637Z" transform="translate(-203.885 -124.092)" fill="#263238"/>
      <path id="Caminho_774" data-name="Caminho 774" d="M256.16,148.19q.986,1.319,2.006,2.611c.68.857,1.36,1.727,2.04,2.584v-.2l-1.68,1.544-.136.129.15.122c.68.605,1.421,1.19,2.135,1.782l-.061-.15c-.258,1.6-.537,3.2-.768,4.8s-.476,3.21-.68,4.815q.51-2.387.959-4.76c.32-1.6.592-3.2.877-4.794v-.088l-.075-.061c-.68-.6-1.414-1.2-2.129-1.788v.252l1.646-1.571.1-.1-.088-.109c-.68-.85-1.435-1.68-2.156-2.516S256.908,149.013,256.16,148.19Z" transform="translate(-200.807 -120.211)" fill="#dbdbdb"/>
      <path id="Caminho_775" data-name="Caminho 775" d="M245.321,141.583c.17.626,2.04,4.862,4.883,5.168,1.8.19,2.04-6.012,2.04-6.012l.068-.381.932-5.352-6.352-3.747-.918-.49s-.17,1.476-.367,3.312v.258l-.041.3c-.034.272-.061.558-.088.836s-.041.415-.061.639-.034.449-.054.68a35.367,35.367,0,0,0-.041,4.787Z" transform="translate(-197.319 -114.638)" fill="#f7a9a0"/>
      <path id="Caminho_776" data-name="Caminho 776" d="M245.81,134.109a10.881,10.881,0,0,0,6.651,6.25l.959-5.352-6.352-3.747-.918-.49S246.007,132.286,245.81,134.109Z" transform="translate(-197.496 -114.638)" fill="#263238"/>
      <path id="Caminho_777" data-name="Caminho 777" d="M259.989,121.7c-1.034,9.446-6.8,9.888-8.841,9.663-1.843-.2-8.113-1.142-8.058-10.643s4.76-12,9.031-11.758S261.029,112.254,259.989,121.7Z" transform="translate(-196.625 -107.655)" fill="#f7a9a0"/>
      <path id="Caminho_778" data-name="Caminho 778" d="M264.821,123.8a6.007,6.007,0,0,1-.612-.238,1.054,1.054,0,0,1-.578-.36.333.333,0,0,1,.068-.408.843.843,0,0,1,.85-.061,1.265,1.265,0,0,1,.68.558.36.36,0,0,1-.408.51Z" transform="translate(-203.184 -112.037)" fill="#263238"/>
      <path id="Caminho_779" data-name="Caminho 779" d="M255.807,122.357a5.246,5.246,0,0,0,.68,0,1.081,1.081,0,0,0,.68-.156.354.354,0,0,0,.068-.408.836.836,0,0,0-.782-.326,1.2,1.2,0,0,0-.836.3.36.36,0,0,0,.19.592Z" transform="translate(-200.604 -111.658)" fill="#263238"/>
      <path id="Caminho_780" data-name="Caminho 780" d="M256.892,126.59s-.054,0-.061.048c-.068.68-.258,1.36-.87,1.5v.041C256.667,128.174,256.926,127.209,256.892,126.59Z" transform="translate(-200.743 -113.3)" fill="#263238"/>
      <path id="Caminho_781" data-name="Caminho 781" d="M256.17,125.482c-1.02-.231-1.36,1.829-.449,2.04S257.02,125.665,256.17,125.482Z" transform="translate(-200.497 -112.94)" fill="#263238"/>
      <path id="Caminho_782" data-name="Caminho 782" d="M255.427,125.412c-.2.082-.415.252-.639.238s-.4-.272-.53-.51h0a.755.755,0,0,0,.408.959c.374.122.68-.177.884-.551C255.556,125.494,255.508,125.378,255.427,125.412Z" transform="translate(-200.183 -112.836)" fill="#263238"/>
      <path id="Caminho_783" data-name="Caminho 783" d="M262.922,127.47s.041.041.034.068c-.143.632-.2,1.36.34,1.7v.034C262.609,129.041,262.691,128.048,262.922,127.47Z" transform="translate(-202.917 -113.582)" fill="#263238"/>
      <path id="Caminho_784" data-name="Caminho 784" d="M263.617,126.658c1.034.116.721,2.183-.238,2.074S262.767,126.556,263.617,126.658Z" transform="translate(-202.932 -113.321)" fill="#263238"/>
      <path id="Caminho_785" data-name="Caminho 785" d="M264.56,126.983c.15.136.279.36.469.4s.428-.15.605-.34h0c-.048.394-.245.782-.632.8s-.558-.36-.592-.768C264.43,126.983,264.5,126.894,264.56,126.983Z" transform="translate(-203.447 -113.414)" fill="#263238"/>
      <path id="Caminho_786" data-name="Caminho 786" d="M256.5,134.151c.122.177.224.415.449.49a1.8,1.8,0,0,0,.68,0v.034a.891.891,0,0,1-.884.163.68.68,0,0,1-.367-.68C256.432,134.124,256.487,134.124,256.5,134.151Z" transform="translate(-200.876 -115.713)" fill="#263238"/>
      <path id="Caminho_787" data-name="Caminho 787" d="M259.969,128.483a13.6,13.6,0,0,1-.109,1.421c0,.041-.116.041-.272,0h0a2.169,2.169,0,0,1-1.938-1.156c0-.048.041-.082.075-.048a3.285,3.285,0,0,0,1.857.891c.054-.122,0-1.673.068-1.666a3.808,3.808,0,0,1,.979.408c.122-2.04-.082-4.08.075-6.08,0-.075.116-.075.122,0a33.07,33.07,0,0,1,.2,6.556C261,129.081,260.139,128.585,259.969,128.483Z" transform="translate(-201.284 -111.895)" fill="#263238"/>
      <path id="Caminho_788" data-name="Caminho 788" d="M259.172,132.711a2.319,2.319,0,0,1-1.02.6,1.04,1.04,0,0,1-.639-.041c-.442-.177-.394-.6-.265-.945a2.239,2.239,0,0,1,.272-.524A3.054,3.054,0,0,0,259.172,132.711Z" transform="translate(-201.126 -114.967)" fill="#263238"/>
      <path id="Caminho_789" data-name="Caminho 789" d="M258.152,133.536a1.04,1.04,0,0,1-.639-.041c-.442-.177-.394-.6-.265-.945a1.074,1.074,0,0,1,.9.986Z" transform="translate(-201.126 -115.207)" fill="#ff9cbd"/>
      <path id="Caminho_790" data-name="Caminho 790" d="M259.921,118.071c-1.163.129-4.556-3.087-5.406-6.889a8.9,8.9,0,0,1-3.829,4.7,9.153,9.153,0,0,1-5.44,1.51s-1.618,4.039-2.326,3.985-2.129-15.287,10.112-12.941c0,0,3.638.374,5.44,2.911S259.921,118.071,259.921,118.071Z" transform="translate(-196.428 -107.413)" fill="#263238"/>
      <path id="Caminho_791" data-name="Caminho 791" d="M253.237,128.408a3.074,3.074,0,1,1,3.951-2.829h0a3.087,3.087,0,0,1-3.2,2.958A3.027,3.027,0,0,1,253.237,128.408Zm1.632-5.5a2.523,2.523,0,0,0-.68-.109,2.666,2.666,0,1,0,.68.109Z" transform="translate(-199.17 -111.956)" fill="#37474f"/>
      <path id="Caminho_792" data-name="Caminho 792" d="M263.759,130.128c-1.129-.333-1.809-1.789-1.537-3.4a3.713,3.713,0,0,1,1.006-2.04,1.918,1.918,0,0,1,3.237.558,3.706,3.706,0,0,1,.272,2.231c-.292,1.673-1.537,2.856-2.781,2.639A.931.931,0,0,1,263.759,130.128Zm1.326-5.57a.96.96,0,0,0-.15-.041,1.632,1.632,0,0,0-1.414.524,3.2,3.2,0,0,0-.891,1.782c-.252,1.448.367,2.775,1.36,2.951s2.04-.857,2.305-2.305a3.258,3.258,0,0,0-.231-1.979,1.686,1.686,0,0,0-.979-.959Z" transform="translate(-202.728 -112.479)" fill="#37474f"/>
      <path id="Caminho_793" data-name="Caminho 793" d="M259.744,127.253l-.2-.354a1.677,1.677,0,0,1,2.278.279l-.34.224C260.934,126.58,259.792,127.226,259.744,127.253Z" transform="translate(-201.889 -113.297)" fill="#37474f"/>
      <path id="Caminho_794" data-name="Caminho 794" d="M239.626,124.464l-.326-.252c.116-.15,1.156-1.489,2.088-1.482s6.216,1.462,6.44,1.523l-.109.4c-1.53-.422-5.665-1.5-6.338-1.51S239.905,124.09,239.626,124.464Z" transform="translate(-195.413 -112.065)" fill="#37474f"/>
      <path id="Caminho_795" data-name="Caminho 795" d="M243.7,124.869s-1.455-3.312-2.917-2.849-.775,4.978.68,5.869a1.6,1.6,0,0,0,2.278-.428Z" transform="translate(-195.626 -111.824)" fill="#f7a9a0"/>
      <path id="Caminho_796" data-name="Caminho 796" d="M241.5,123.94a4.08,4.08,0,0,1,1.564,2.9.884.884,0,0,0-1.251-.5c-.034,0,0,.061,0,.061a.993.993,0,0,1,1,.551,4.938,4.938,0,0,1,.34.966c.034.109.218.088.2,0h0C243.649,126.524,242.955,124.375,241.5,123.94Z" transform="translate(-196.117 -112.452)" fill="#263238"/>
      <path id="Caminho_797" data-name="Caminho 797" d="M253.374,163.761s-2.3-3.026-.109-4.42,3.971,1.959,3.971,1.959Z" transform="translate(-199.578 -123.67)" fill="#455a64"/>
      <path id="Caminho_798" data-name="Caminho 798" d="M272,184.673h0l.313,3.706.116,1.224L271.359,189l-3.23-1.857h0L253.76,164.619l3.863-2.469L272,184.68Z" transform="translate(-200.039 -124.678)" fill="#455a64"/>
      <path id="Caminho_799" data-name="Caminho 799" d="M280.6,200.72l.109,1.224-1.074-.605Z" transform="translate(-208.317 -137.019)" fill="#37474f"/>
      <rect id="Retângulo_319" data-name="Retângulo 319" width="5.352" height="1.061" transform="translate(53.31 40.019) rotate(-32.54)" fill="#263238"/>
      <rect id="Retângulo_320" data-name="Retângulo 320" width="5.352" height="1.061" transform="translate(53.942 41.019) rotate(-32.54)" fill="#263238"/>
      <path id="Caminho_800" data-name="Caminho 800" d="M254.93,168.232l1.455-.932,4.4,8.664-.558.313Z" transform="translate(-200.414 -126.326)" fill="#263238"/>
      <path id="Caminho_801" data-name="Caminho 801" d="M223.1,153.486c-11.248,11.914-24.08,32.125-18.864,36.607,4.76,4.08,22.53.68,33.744-3.448,2.135-.782-6.059-19.687-8.242-18.62a60.634,60.634,0,0,1-7.106,3.019c-.612.156,2.543-7.066,6.413-15.818C233.356,145.462,229.534,146.686,223.1,153.486Z" transform="translate(-183.81 -120.196)" fill="#f7a9a0"/>
      <path id="Caminho_802" data-name="Caminho 802" d="M268.751,173.847c0,2.176-5.393,1.639-5.393,1.639a4.033,4.033,0,0,1,1.591,2.224c.367,1.612-2,2.9-2,2.9a4.971,4.971,0,0,1,1.306,2.611c.2,1.578-2.04,3.217-2.04,3.217a4.352,4.352,0,0,1-.3,3.019c-1.326,2.455-5.624,2.414-8.283,2.911a56.6,56.6,0,0,0-8.745,2.591L240.4,175.3s11.642-6.583,14.852-6.365C257.952,169.128,268.805,170.522,268.751,173.847Z" transform="translate(-195.765 -126.848)" fill="#f7a9a0"/>
      <path id="Caminho_803" data-name="Caminho 803" d="M269.939,177.885a36.266,36.266,0,0,0-8.793-1.265.051.051,0,1,0,0,.1c2.917.129,5.869,1.047,8.773,1.3a.069.069,0,1,0,.02-.136Z" transform="translate(-202.386 -129.308)" fill="#263238"/>
      <path id="Caminho_804" data-name="Caminho 804" d="M269.437,185.7a7.67,7.67,0,0,0-2.04-.156h-2.142c-1.435,0-2.87.1-4.3.218-.061,0-.068.1,0,.1,1.428-.034,2.856-.048,4.284,0l2.149.054a9.121,9.121,0,0,0,2.04,0,.109.109,0,1,0,.007-.218Z" transform="translate(-202.327 -132.159)" fill="#263238"/>
      <path id="Caminho_805" data-name="Caminho 805" d="M268.8,194.634a5.44,5.44,0,0,0-1.816-.041l-1.959.082c-1.306.041-2.611.088-3.917.088a.051.051,0,0,0,0,.1h5.937a4.991,4.991,0,0,0,1.768-.17.041.041,0,0,0-.014-.061Z" transform="translate(-202.373 -135.04)" fill="#263238"/>
      <path id="Caminho_806" data-name="Caminho 806" d="M228.334,148.072c-8.058,4.617-29.3,32.642-25.842,40.646s29.242.143,29.242.143l-1.564-21.5s-6.8,3.557-7.032,3.21,4.005-10,5.726-13.934S232.639,145.61,228.334,148.072Z" transform="translate(-183.515 -120.011)" fill="#ebebeb"/>
      <path id="Caminho_807" data-name="Caminho 807" d="M240.254,198.245c-.381-2.849-1.51-14.546-1.584-17.089,0-.177.1-.224.136-.041a143.287,143.287,0,0,1,1.557,17.11C240.384,198.293,240.254,198.313,240.254,198.245Z" transform="translate(-195.211 -130.709)" fill="#263238"/>
      <path id="Caminho_808" data-name="Caminho 808" d="M235.531,176.71a15.057,15.057,0,0,0-2.19.918c-.639.292-1.278.592-1.911.9l-4.08,2.04c-1.36.68-2.72,1.421-4.08,2.156s-2.632,1.55-3.971,2.292c-.061.034,0,.122.054.088,1.36-.68,2.768-1.36,4.148-2.04l4.046-2.006c1.36-.68,2.72-1.36,4.046-2l1.972-.993a16.219,16.219,0,0,0,2.088-1.122.15.15,0,0,0-.122-.231Z" transform="translate(-189.005 -129.337)" fill="#263238"/>
      <path id="Caminho_809" data-name="Caminho 809" d="M237.69,166.631c-.428.517-.85,1.027-1.251,1.564-.075.1-.143.2-.211.3l.34-.83a27.242,27.242,0,0,0,1.156-2.945c0-.041-.054-.068-.075,0a29.928,29.928,0,0,0-1.442,2.972q-.673,1.459-1.36,2.924c-.456.979-.877,1.959-1.292,2.951a22.263,22.263,0,0,0-1.115,2.965.055.055,0,0,0,.1.034,23.342,23.342,0,0,0,1.476-2.945c.442-.979.864-1.965,1.292-2.951l.524-1.244.211-.279c.2-.252.394-.517.578-.782.374-.551.728-1.115,1.081-1.686C237.731,166.638,237.7,166.618,237.69,166.631Z" transform="translate(-193.218 -125.487)" fill="#263238"/>
      <path id="Caminho_810" data-name="Caminho 810" d="M236.323,207.545c0-.143-.082-.17-.116,0s0,.238-.048.32c-.877.2-4.08,1.074-4.855,1.279q-2.469.646-4.964,1.115c-1.673.313-3.346.571-5.039.782s-3.4.428-5.066.483a.054.054,0,1,0,0,.109c1.727-.034,3.441-.034,5.161-.17a45.632,45.632,0,0,0,5.026-.68c1.625-.313,3.4-.68,5.039-1.129.836-.224,1.659-.469,2.482-.728a12.8,12.8,0,0,0,2.319-.85.177.177,0,0,0,.082-.156Z" transform="translate(-188.015 -139.165)" fill="#263238"/>
      <path id="Caminho_811" data-name="Caminho 811" d="M246.994,164.658l-.571.272-4.6-6.236-.1-.136.068-.15,1.693-3.652-4.76-.231h-.238l.088-.211c.979-2.333,1.931-4.679,2.924-7-.83,2.312-1.693,4.6-2.537,6.9l4.9.122h.34l-.143.313-1.666,3.842Z" transform="translate(-195.15 -119.93)" fill="#dbdbdb"/>
      <path id="Caminho_812" data-name="Caminho 812" d="M238.77,157.43h.224l-.082.218Z" transform="translate(-195.243 -123.168)" fill="#dbdbdb"/>
      <path id="Caminho_813" data-name="Caminho 813" d="M244.01,163.55l.1.129-.061.156Z" transform="translate(-196.92 -125.126)" fill="#dbdbdb"/>
      <path id="Caminho_814" data-name="Caminho 814" d="M245.923,157.81l.2.326-.347-.02Z" transform="translate(-197.486 -123.289)" fill="#dbdbdb"/>
      <path id="Caminho_815" data-name="Caminho 815" d="M287.32,197.863l-22.53-1.387,12.3-28.256,22.53,1.387Z" transform="translate(-203.568 -126.62)" fill="#fff"/>
      <path id="Caminho_816" data-name="Caminho 816" d="M289.59,198l-22.53-1.387,12.3-28.256,22.53,1.387Z" transform="translate(-204.295 -126.665)" fill="#455a64"/>
      <path id="Caminho_817" data-name="Caminho 817" d="M287.953,168.065a2.04,2.04,0,0,1-1.04,1.115c-.224.1-.265-.184-.041-.279a1.476,1.476,0,0,0,.68-.68c0-.054.048-.109.068-.156a1.129,1.129,0,0,0,.068-.551.38.38,0,0,0-.116-.2h-.041a.333.333,0,0,0-.163,0,.578.578,0,0,0-.265.15,2.373,2.373,0,0,0-.354.449h0a.169.169,0,0,0,0,.054V168h-.32a2.259,2.259,0,0,1,.333-.537,1.251,1.251,0,0,1,.9-.5.5.5,0,0,1,.476.49,1.36,1.36,0,0,1-.19.605Z" transform="translate(-210.492 -126.22)" fill="#2784ff"/>
      <path id="Caminho_818" data-name="Caminho 818" d="M290.524,168.225a2,2,0,0,1-1.04,1.115c-.218.1-.258-.184-.041-.279a1.517,1.517,0,0,0,.68-.68c0-.054.048-.109.061-.156a1.129,1.129,0,0,0,.068-.551.347.347,0,0,0-.116-.2H290.1a.306.306,0,0,0-.156,0,.605.605,0,0,0-.272.15,1.36,1.36,0,0,0-.245.286c-.041.048-.068.109-.109.163h0a.382.382,0,0,1-.034.054s0,0,0,.041h-.32a2.094,2.094,0,0,1,.34-.537,1.224,1.224,0,0,1,.9-.5.5.5,0,0,1,.476.49,1.305,1.305,0,0,1-.15.605Z" transform="translate(-211.302 -126.271)" fill="#2784ff"/>
      <path id="Caminho_819" data-name="Caminho 819" d="M293.13,168.385A1.986,1.986,0,0,1,292.1,169.5c-.224.1-.265-.184-.048-.279a1.517,1.517,0,0,0,.68-.68c0-.054.048-.109.061-.156a1.054,1.054,0,0,0,.068-.551.347.347,0,0,0-.116-.2h-.048a.313.313,0,0,0-.156,0,.639.639,0,0,0-.272.15,1.564,1.564,0,0,0-.238.286,1.36,1.36,0,0,0-.109.163h0a.4.4,0,0,0,0,.054v.041h-.32a2.291,2.291,0,0,1,.34-.537,1.238,1.238,0,0,1,.9-.5.5.5,0,0,1,.476.49,1.306,1.306,0,0,1-.184.605Z" transform="translate(-212.146 -126.323)" fill="#2784ff"/>
      <path id="Caminho_820" data-name="Caminho 820" d="M295.717,168.561a2.04,2.04,0,0,1-1.04,1.115c-.224.1-.265-.184-.041-.279a1.476,1.476,0,0,0,.68-.68c0-.054.048-.109.068-.156a1.129,1.129,0,0,0,.068-.551.381.381,0,0,0-.116-.2H295.3a.333.333,0,0,0-.163,0,.578.578,0,0,0-.265.15,2.373,2.373,0,0,0-.354.449v.034a.169.169,0,0,0-.034.054v.041h-.32a2.258,2.258,0,0,1,.333-.537,1.251,1.251,0,0,1,.9-.5.5.5,0,0,1,.476.49,1.36,1.36,0,0,1-.156.571Z" transform="translate(-212.966 -126.39)" fill="#2784ff"/>
      <path id="Caminho_821" data-name="Caminho 821" d="M298.28,168.721a2,2,0,0,1-1.04,1.115c-.218.1-.258-.184-.041-.279a1.517,1.517,0,0,0,.68-.68c0-.054.048-.109.061-.156a1.054,1.054,0,0,0,.068-.551.347.347,0,0,0-.116-.2h-.041a.306.306,0,0,0-.156,0,.6.6,0,0,0-.272.15,1.359,1.359,0,0,0-.245.286c-.041.048-.068.109-.109.163v.034a.377.377,0,0,1,0,.054v.041h-.32a2.094,2.094,0,0,1,.34-.537,1.224,1.224,0,0,1,.9-.5.5.5,0,0,1,.476.49,1.306,1.306,0,0,1-.184.571Z" transform="translate(-213.794 -126.441)" fill="#2784ff"/>
      <path id="Caminho_822" data-name="Caminho 822" d="M300.91,168.881A1.986,1.986,0,0,1,299.876,170c-.224.1-.265-.184-.048-.279a1.516,1.516,0,0,0,.68-.68c0-.054.048-.109.061-.156a1.054,1.054,0,0,0,.068-.551.347.347,0,0,0-.116-.2h-.048a.312.312,0,0,0-.156,0,.639.639,0,0,0-.272.15,1.563,1.563,0,0,0-.238.286.973.973,0,0,0-.109.163v.034a.4.4,0,0,0,0,.054v.041h-.32a2.293,2.293,0,0,1,.34-.537,1.238,1.238,0,0,1,.9-.5.5.5,0,0,1,.476.49A1.305,1.305,0,0,1,300.91,168.881Z" transform="translate(-214.636 -126.492)" fill="#2784ff"/>
      <path id="Caminho_823" data-name="Caminho 823" d="M303.513,169.041a2.04,2.04,0,0,1-1.04,1.115c-.224.1-.265-.184-.041-.279a1.476,1.476,0,0,0,.68-.68c0-.054.048-.109.068-.156a1.129,1.129,0,0,0,.068-.551.381.381,0,0,0-.116-.2h-.041a.272.272,0,0,0-.163,0,.578.578,0,0,0-.265.15,1.359,1.359,0,0,0-.245.286.974.974,0,0,0-.109.163v.034a.169.169,0,0,0,0,.054v.041h-.32a2.258,2.258,0,0,1,.333-.537,1.251,1.251,0,0,1,.9-.5.5.5,0,0,1,.476.49A1.361,1.361,0,0,1,303.513,169.041Z" transform="translate(-215.471 -126.543)" fill="#2784ff"/>
      <path id="Caminho_824" data-name="Caminho 824" d="M306.084,169.2a2,2,0,0,1-1.04,1.115c-.218.1-.258-.184-.041-.279a1.517,1.517,0,0,0,.68-.68c0-.054.048-.109.061-.156a1.054,1.054,0,0,0,.068-.551.347.347,0,0,0-.116-.2h-.041a.245.245,0,0,0-.156,0,.606.606,0,0,0-.272.15,1.36,1.36,0,0,0-.245.286,1.693,1.693,0,0,0-.109.163v.034a.381.381,0,0,1-.034.054v.041h-.32a2.292,2.292,0,0,1,.34-.537,1.224,1.224,0,0,1,.9-.5.5.5,0,0,1,.476.49,1.306,1.306,0,0,1-.15.571Z" transform="translate(-216.28 -126.595)" fill="#2784ff"/>
      <path id="Caminho_825" data-name="Caminho 825" d="M308.69,169.345a1.986,1.986,0,0,1-1.034,1.115c-.224.1-.265-.184-.048-.279a1.516,1.516,0,0,0,.68-.68c0-.054.048-.109.061-.156a1.055,1.055,0,0,0,.068-.551.347.347,0,0,0-.116-.2h-.048a.252.252,0,0,0-.156,0,.639.639,0,0,0-.272.15,1.564,1.564,0,0,0-.238.286.971.971,0,0,0-.109.163h0v.1h-.32a2.291,2.291,0,0,1,.34-.537,1.238,1.238,0,0,1,.9-.5.5.5,0,0,1,.476.49,1.306,1.306,0,0,1-.184.605Z" transform="translate(-217.125 -126.63)" fill="#2784ff"/>
      <path id="Caminho_826" data-name="Caminho 826" d="M311.267,169.485a2.04,2.04,0,0,1-1.04,1.115c-.224.1-.265-.184-.041-.279a1.476,1.476,0,0,0,.68-.68c0-.054.048-.109.068-.156a1.129,1.129,0,0,0,.068-.551.381.381,0,0,0-.116-.2h-.041a.272.272,0,0,0-.163,0,.578.578,0,0,0-.265.15,1.36,1.36,0,0,0-.245.286.971.971,0,0,0-.109.163h0a.169.169,0,0,0-.034.054v.041h-.32a2.258,2.258,0,0,1,.333-.537,1.251,1.251,0,0,1,.9-.5.5.5,0,0,1,.476.49A1.36,1.36,0,0,1,311.267,169.485Z" transform="translate(-217.941 -126.675)" fill="#2784ff"/>
      <path id="Caminho_827" data-name="Caminho 827" d="M313.88,169.665a2,2,0,0,1-1.04,1.115c-.218.1-.258-.184-.041-.279a1.516,1.516,0,0,0,.68-.68c0-.054.048-.109.061-.156a1.054,1.054,0,0,0,.068-.551.347.347,0,0,0-.116-.2h-.041a.245.245,0,0,0-.156,0,.605.605,0,0,0-.272.15,1.359,1.359,0,0,0-.245.286,1.7,1.7,0,0,0-.109.163h0a.377.377,0,0,1,0,.054v.041h-.32a2.291,2.291,0,0,1,.34-.537,1.224,1.224,0,0,1,.9-.5.5.5,0,0,1,.476.49A1.306,1.306,0,0,1,313.88,169.665Z" transform="translate(-218.786 -126.732)" fill="#2784ff"/>
      <path id="Caminho_828" data-name="Caminho 828" d="M316.47,169.841a1.986,1.986,0,0,1-1.034,1.115c-.224.1-.265-.184-.048-.279a1.517,1.517,0,0,0,.68-.68c0-.054.048-.109.061-.156a1.054,1.054,0,0,0,.068-.551.347.347,0,0,0-.116-.2h-.048a.252.252,0,0,0-.156,0,.64.64,0,0,0-.272.15,1.564,1.564,0,0,0-.238.286.973.973,0,0,0-.109.163v.034a.4.4,0,0,0,0,.054v.041h-.32a2.293,2.293,0,0,1,.34-.537,1.238,1.238,0,0,1,.9-.5.5.5,0,0,1,.476.49,1.305,1.305,0,0,1-.184.571Z" transform="translate(-219.614 -126.799)" fill="#2784ff"/>
      <path id="Caminho_829" data-name="Caminho 829" d="M308.6,179.9c.85,2.571,3.4,5.95,3.4,7.97a2.305,2.305,0,0,1-1.6,2.3s1.863,1.231,1.557,3.06c-.163.945-1.8,1.516-1.8,1.516a2.761,2.761,0,0,1,1.074,2.666c-.3,1.285-1.9,1.666-1.9,1.666s.918,1.659.2,2.87c-1.469,2.448-12.683,1.068-13.907-3.278-.571-2.04,2.149-1.537,2.149-1.537s-3.747-1.646-3.523-3.965,3.727-1.476,3.727-1.476-3.618-1.625-3.142-4.005c.5-2.482,3.849-1.034,3.849-1.034s-2.285-2-1.5-3.74c1.292-2.87,5.556,1.462,8.092,1.183l1.857-3.9Z" transform="translate(-212.99 -130.357)" fill="#f7a9a0"/>
      <path id="Caminho_830" data-name="Caminho 830" d="M316.25,181.231c-.6-2.509,2.72-5.107,2.516-7.589-.306-3.353-4.379-.605-5.787,4.046l-.449,3.795Z" transform="translate(-218.843 -127.88)" fill="#f7a9a0"/>
      <path id="Caminho_831" data-name="Caminho 831" d="M310.666,207.118v.061a19.633,19.633,0,0,1-11.466-2.108c-.116-.061-.061-.272.075-.224a39.972,39.972,0,0,0,11.391,2.271Z" transform="translate(-214.558 -138.337)" fill="#263238"/>
      <path id="Caminho_832" data-name="Caminho 832" d="M311.861,200.211c.048,0,.048.075,0,.082a18.361,18.361,0,0,1-12.37-3.081c-.129-.1-.15-.3,0-.2C302.027,198.572,308.216,200.075,311.861,200.211Z" transform="translate(-214.638 -135.823)" fill="#263238"/>
      <path id="Caminho_833" data-name="Caminho 833" d="M300.447,189.365a24.994,24.994,0,0,0,11.765,3.822c.054,0,.041.082,0,.088a16.318,16.318,0,0,1-6.8-.823,11.3,11.3,0,0,1-5.012-2.958C300.311,189.44,300.372,189.317,300.447,189.365Z" transform="translate(-214.948 -133.382)" fill="#263238"/>
    </g>
    <g id="freepik--Counter--inject-488" transform="translate(58.34 204.261)">
      <rect id="Retângulo_321" data-name="Retângulo 321" width="260.68" height="18.667" fill="#37474f"/>
      <rect id="Retângulo_322" data-name="Retângulo 322" width="250.412" height="108.344" transform="translate(5.128 18.667)" fill="#37474f"/>
      <rect id="Retângulo_323" data-name="Retângulo 323" width="250.412" height="11.445" transform="translate(5.128 18.667)" fill="#263238"/>
      <path id="Caminho_834" data-name="Caminho 834" d="M164.05,359.32a.5.5,0,0,1,.49-.49h4.039a4.08,4.08,0,0,1,0,8.161l-3.529.041v5.61a.5.5,0,0,1-1,0Zm4.529,6.692a3.094,3.094,0,0,0,0-6.182H165.05v6.182Z" transform="translate(-92.163 -284.821)" fill="#fff"/>
      <path id="Caminho_835" data-name="Caminho 835" d="M192.881,366.481H185.53v6.161a.5.5,0,0,1-1,0v-13.3a.5.5,0,0,1,1,0V365.5h7.344v-6.161a.5.5,0,0,1,1,0v13.3a.5.5,0,0,1-1,0Z" transform="translate(-98.716 -284.842)" fill="#fff"/>
      <path id="Caminho_836" data-name="Caminho 836" d="M214.233,369.46h-6.508l-1.265,3.4a.5.5,0,0,1-.469.326h-.184a.524.524,0,0,1-.286-.68l4.957-13.24a.544.544,0,0,1,.49-.306.5.5,0,0,1,.49.306l4.957,13.24a.51.51,0,0,1-.265.68h-.184a.524.524,0,0,1-.469-.326Zm-6.12-1h5.774l-2.877-7.671Z" transform="translate(-105.42 -284.862)" fill="#fff"/>
      <path id="Caminho_837" data-name="Caminho 837" d="M236.205,369.887a2.577,2.577,0,0,0-1.163-2.163,4.561,4.561,0,0,0-1.652-.714c-.061,0-.082-.041-.1-.041H229.82v5.651a.5.5,0,0,1-1,0v-13.3a.5.5,0,0,1,.449-.49h4.08a4.08,4.08,0,0,1,1.714,7.773,1.9,1.9,0,0,0,.2.1,3.611,3.611,0,0,1,1.918,3.183,5.481,5.481,0,0,0,.184,1.653.748.748,0,0,0,.2.347.537.537,0,0,1,.551.326.558.558,0,0,1-.326.68,2.149,2.149,0,0,1-.245,0h-.041a1.136,1.136,0,0,1-.918-.68,5.046,5.046,0,0,1-.388-2.326Zm-2.856-10.058H229.82v6.161h3.611a3.081,3.081,0,1,0-.082-6.161Z" transform="translate(-112.887 -284.821)" fill="#fff"/>
      <path id="Caminho_838" data-name="Caminho 838" d="M262.007,360.9l-4.57,6.345a.476.476,0,0,1-.408.224h-.041a.462.462,0,0,1-.428-.224l-4.57-6.324v11.731a.5.5,0,0,1-1,0v-13.22a.462.462,0,0,1,.2-.388l.041-.041a.517.517,0,0,1,.68.122l5.08,7.038,5.06-7.038a.51.51,0,0,1,.68-.122,1.019,1.019,0,0,1,.143.163.679.679,0,0,1,.082.265v13.22a.5.5,0,0,1-.49.49.483.483,0,0,1-.49-.49Z" transform="translate(-119.98 -284.851)" fill="#fff"/>
      <path id="Caminho_839" data-name="Caminho 839" d="M284.733,369.46h-6.508l-1.265,3.4a.5.5,0,0,1-.469.326h-.184a.524.524,0,0,1-.286-.68l4.958-13.24a.544.544,0,0,1,.49-.306.5.5,0,0,1,.49.306l4.957,13.24a.51.51,0,0,1-.265.68h-.184a.524.524,0,0,1-.469-.326Zm-6.12-1h5.774l-2.877-7.671Z" transform="translate(-127.977 -284.862)" fill="#fff"/>
      <path id="Caminho_840" data-name="Caminho 840" d="M305.113,358.53a7.576,7.576,0,0,1,4.611,1.571.5.5,0,0,1,.082.714.476.476,0,0,1-.68.1,6.508,6.508,0,0,0-4-1.36,6.243,6.243,0,0,0,0,12.486,6.073,6.073,0,0,0,3.958-1.36.5.5,0,0,1,.68.122.483.483,0,0,1-.061.714,7.555,7.555,0,0,1-4.611,1.55,7.242,7.242,0,0,1,0-14.485Z" transform="translate(-134.973 -284.725)" fill="#fff"/>
      <path id="Caminho_841" data-name="Caminho 841" d="M327.537,366.3l-4.794-6.549a.53.53,0,0,1,.1-.68.469.469,0,0,1,.68.082l4.468,6.12,4.488-6.12a.469.469,0,0,1,.68-.082.49.49,0,0,1,.1.68l-4.76,6.508v6.406a.483.483,0,0,1-.49.49.5.5,0,0,1-.49-.49Z" transform="translate(-142.912 -284.862)" fill="#fff"/>
      <rect id="Retângulo_324" data-name="Retângulo 324" width="250.412" height="0.68" transform="translate(5.128 67.732)" fill="#fff"/>
      <rect id="Retângulo_325" data-name="Retângulo 325" width="250.412" height="0.68" transform="translate(5.128 65.774)" fill="#fff"/>
      <rect id="Retângulo_326" data-name="Retângulo 326" width="250.412" height="0.68" transform="translate(5.128 95.818)" fill="#fff"/>
      <rect id="Retângulo_327" data-name="Retângulo 327" width="250.412" height="0.68" transform="translate(5.128 93.852)" fill="#fff"/>
      <rect id="Retângulo_328" data-name="Retângulo 328" width="4.162" height="17.803" transform="translate(128.256 39.619)" fill="#ebebeb"/>
      <rect id="Retângulo_329" data-name="Retângulo 329" width="4.162" height="17.803" transform="translate(139.238 46.44) rotate(90)" fill="#ebebeb"/>
    </g>
    <g id="freepik--Plant--inject-488" transform="translate(273.097 237.073)">
      <path id="Caminho_842" data-name="Caminho 842" d="M427.82,367.459s10.806-2.455,16.729-7.909,9.235-15.24,9.235-15.24a93.9,93.9,0,0,0-12.125,3.189,20.4,20.4,0,0,0-3.665,5.189,24.55,24.55,0,0,1,0-3.706,16.456,16.456,0,0,0-3.849,2.333C429.207,355.605,427.82,367.459,427.82,367.459Z" transform="translate(-391.315 -312.987)" fill="#2784ff"/>
      <path id="Caminho_843" data-name="Caminho 843" d="M444.024,349.8c1.469-1.02,2.972-2,4.434-3.033a.084.084,0,0,0-.088-.143c-2.781,1.666-5.529,3.441-8.16,5.3q-1.387.969-2.72,2.04l.19-.32c.326-.544.68-1.074,1.006-1.6a22.975,22.975,0,0,1,2.3-3.067c0-.034,0-.088-.054-.048-.843.966-1.68,1.931-2.448,2.958-.367.49-.68,1-1.027,1.517q-.252.394-.49.816c-.048.088-.109.184-.163.279-1.36,1.095-2.72,2.237-4.08,3.448q-1.2,1.122-2.326,2.326c.422-1.312.782-2.632,1.272-3.924,0-.041-.054-.061-.075,0-.469,1.36-.986,2.72-1.36,4.08q-1.244,1.36-2.367,2.788l.041-.177c.122-.51.245-1.02.381-1.523.265-.979.551-1.952.884-2.911a16.743,16.743,0,0,1,2.9-5.481s0-.088-.054-.054a21.164,21.164,0,0,0-4.141,8.643q-.17.68-.326,1.36c-.054.245-.122.5-.163.748-.326.442-.646.891-.952,1.36a46.976,46.976,0,0,0-4.577,8.963,103.876,103.876,0,0,0-3.461,10.813.054.054,0,1,0,.109,0c2.115-6.324,4.271-12.737,7.9-18.361a41.281,41.281,0,0,1,2.462-3.455,20.314,20.314,0,0,0,5.257-1.047,23.265,23.265,0,0,0,5.27-2.543,32.629,32.629,0,0,0,2.72-2.04.036.036,0,1,0-.048-.054,21.61,21.61,0,0,1-4.951,3,27.647,27.647,0,0,1-5.44,1.829c-.8.17-1.6.3-2.414.408a44.634,44.634,0,0,1,3.149-3.577c.367-.367.741-.68,1.122-1.068a25.457,25.457,0,0,1,3.992-2.285c1.768-.857,3.516-1.761,5.27-2.652.986-.5,1.965-1.02,2.965-1.51.041,0,0-.082-.041-.061-1.775.857-3.577,1.659-5.372,2.482-1.686.775-3.4,1.55-5.012,2.462-.075,0-.136.082-.2.116,1.462-1.272,2.979-2.489,4.529-3.659C441.093,351.881,442.541,350.82,444.024,349.8Z" transform="translate(-388.301 -313.724)" fill="#263238"/>
      <path id="Caminho_844" data-name="Caminho 844" d="M452.7,359.49c-.877.388-1.775.728-2.645,1.136s-1.741.911-2.591,1.414c-.034,0,0,.075,0,.054.864-.415,1.734-.8,2.591-1.231s1.741-.9,2.632-1.3a.041.041,0,0,0,.014-.075Z" transform="translate(-397.595 -317.844)" fill="#263238"/>
      <path id="Caminho_845" data-name="Caminho 845" d="M376.19,298.25a15.457,15.457,0,0,1,3.23,8.977c.034.972-.122,2.319-.231,3.91a25.663,25.663,0,0,1,7.072,6.025,12.8,12.8,0,0,0-7.127-1.707,20.909,20.909,0,0,0,.415,3.23,12.241,12.241,0,0,1,4.583.911,10.282,10.282,0,0,0-4.135.816c1.924,6.12,7.65,12.431,23.468,15.1a33.2,33.2,0,0,0-2.8-22.251C395.9,303.942,376.19,298.25,376.19,298.25Z" transform="translate(-374.796 -298.25)" fill="#2784ff"/>
      <path id="Caminho_846" data-name="Caminho 846" d="M410.894,363.71q-.415-3.931-1.027-7.834a155.724,155.724,0,0,0-3.189-15.478,60.939,60.939,0,0,0-2.285-7.032,9.957,9.957,0,0,0,.061-1.272c0-.5,0-1.013,0-1.516,0-1.013-.054-2.04-.143-3.033a36.434,36.434,0,0,0-.972-5.93c-.292-1.129-.626-2.237-.959-3.353,0-.041-.082,0-.068,0a43.855,43.855,0,0,1,1.17,5.923,55.984,55.984,0,0,1,.53,5.93v2.312a51.414,51.414,0,0,0-2.666-5.515,67.452,67.452,0,0,0-5.44-8.1,3.561,3.561,0,0,0-.129-.884c-.075-.354-.15-.68-.231-1.061-.163-.721-.347-1.435-.537-2.156-.394-1.428-.911-2.815-1.36-4.23a.041.041,0,0,0-.075,0c.422,1.4.68,2.856,1.02,4.277.156.68.313,1.414.462,2.122.082.347.156.68.231,1.054a.344.344,0,0,0,0,.082q-.959-1.21-1.959-2.387c-3.019-3.536-6.331-6.8-9.663-10.051-.408-.394-.83-.789-1.244-1.176-.034-.034-.082,0-.054.054,3.189,3.319,6.324,6.678,9.289,10.2.68.83,1.4,1.68,2.088,2.537l-1.081-.68c-.918-.605-1.85-1.19-2.809-1.727s-1.931-1.061-2.917-1.55-2.095-.911-3.074-1.482c-.041,0-.082.048-.034.068a21.71,21.71,0,0,1,2.883,1.6q1.449.843,2.87,1.741c.932.592,1.863,1.17,2.788,1.775.768.5,1.523,1.04,2.326,1.5a75.782,75.782,0,0,1,5.1,7.385,55.77,55.77,0,0,1,2.618,4.964l-.571-.245-1.448-.68c-.925-.415-1.863-.816-2.795-1.217-1.775-.775-3.577-1.482-5.318-2.333a24.024,24.024,0,0,1-2.836-1.571c-.041,0-.075.034-.034.061a63.192,63.192,0,0,0,10.466,5.4l1.557.68c.422.19.85.4,1.292.564a55.161,55.161,0,0,1,2.7,7.358,147.124,147.124,0,0,1,3.441,15.3c.911,5.162,1.523,10.364,2,15.587.054.68.116,1.3.19,1.952a.211.211,0,0,0,.415,0C411.438,369,411.166,366.342,410.894,363.71Z" transform="translate(-376.769 -300.215)" fill="#263238"/>
      <path id="Caminho_847" data-name="Caminho 847" d="M409.594,325.15c-.292-1.612-.721-3.183-1.149-4.76,0-.048-.082,0-.075,0,.4,1.544.68,3.121.979,4.685s.558,3.2.782,4.815h.041A41.484,41.484,0,0,0,409.594,325.15Z" transform="translate(-385.092 -305.327)" fill="#263238"/>
      <path id="Caminho_848" data-name="Caminho 848" d="M396.83,332.1a28.971,28.971,0,0,0-3.441-1.938c-.578-.3-1.163-.578-1.741-.864s-1.231-.53-1.829-.83c-.041,0-.075.041,0,.061.578.292,1.129.639,1.693.952s1.17.68,1.754.959c1.163.619,2.3,1.312,3.509,1.816a.088.088,0,0,0,.054-.156Z" transform="translate(-379.142 -307.919)" fill="#263238"/>
      <path id="Caminho_849" data-name="Caminho 849" d="M428.11,337.932s10-2.394,14.594-9.1c4.379-6.413,5.8-17.334,5.91-18.293-.177.884-2.244,10.425-9.051,14.872C434.353,328.82,429.314,331.621,428.11,337.932Z" transform="translate(-391.408 -302.182)" fill="#263238" opacity="0.1"/>
      <path id="Caminho_850" data-name="Caminho 850" d="M439.946,325.4a12.73,12.73,0,0,0-3.686,6.073h0a14.962,14.962,0,0,1,3.706-6.025C440.027,325.425,439.98,325.371,439.946,325.4Z" transform="translate(-394.016 -306.935)" fill="#263238"/>
      <path id="Caminho_851" data-name="Caminho 851" d="M428.021,337.9s10-2.394,14.594-9.1c4.379-6.413,5.8-17.334,5.91-18.293a.237.237,0,0,0,0-.068s-4.76,6.8-9.84,8.562S426.586,326.754,428.021,337.9Z" transform="translate(-391.319 -302.15)" fill="#2784ff"/>
      <path id="Caminho_852" data-name="Caminho 852" d="M444.845,315.988a40.674,40.674,0,0,1-3.087,5.291,21.27,21.27,0,0,1-4.114,4.23c-1.36,1.081-2.795,2.04-4.169,3.115v-.048c.258-.388.537-.755.823-1.122.571-.728,1.2-1.421,1.823-2.1,1.244-1.36,2.516-2.673,3.631-4.135a15.289,15.289,0,0,0,1.6-2.584c0-.041-.048-.061-.068,0-1.618,3.4-4.862,5.542-7.174,8.4a15.439,15.439,0,0,0-.925,1.265,5.264,5.264,0,0,0-.571,1.013,21.263,21.263,0,0,0-3.4,3.448,13.248,13.248,0,0,1,.4-1.938,9.781,9.781,0,0,1,1.061-2.537c0-.041-.041-.082-.061-.041a11.913,11.913,0,0,0-1.17,2.516,9.047,9.047,0,0,0-.36,2.163h0a19.392,19.392,0,0,0-1.36,2.1c.041-.211.082-.428.129-.639.2-1,.415-1.993.68-2.972a17.681,17.681,0,0,1,2.407-5.638.037.037,0,1,0-.061-.041,21.529,21.529,0,0,0-2.666,5.515c-.32.979-.578,1.979-.8,2.985-.109.49-.2.986-.3,1.482-.048.252-.1.517-.143.775a36.088,36.088,0,0,0-2.312,6.8,99.609,99.609,0,0,0-2.129,12.649,105.41,105.41,0,0,0-.68,13.424c0,.564.041,1.129.075,1.687a.116.116,0,1,0,.231,0c.1-2.217.156-4.441.286-6.658s.326-4.434.564-6.644a120.078,120.078,0,0,1,2.081-12.921,33.373,33.373,0,0,1,3.863-10.541A19.838,19.838,0,0,1,432.556,330c1.4-1.258,2.931-2.36,4.413-3.529a24.081,24.081,0,0,0,4.046-3.89,32.211,32.211,0,0,0,3.183-5.161l.721-1.36C444.933,315.988,444.872,315.927,444.845,315.988Z" transform="translate(-389.401 -303.917)" fill="#263238"/>
      <path id="Caminho_853" data-name="Caminho 853" d="M452.091,318.119a34.529,34.529,0,0,1-2.231,3.9s0,.054.048,0a27.053,27.053,0,0,0,2.251-3.9C452.179,318.1,452.111,318.078,452.091,318.119Z" transform="translate(-398.367 -304.599)" fill="#263238"/>
      <path id="Caminho_854" data-name="Caminho 854" d="M374.14,344.31s-.163,14.213,8.337,18.314,13.057.68,18.83,2.04h0c-.224-.34-4.345-6.263-10.881-7.9C383.654,355.1,376.18,350.22,374.14,344.31Z" transform="translate(-374.14 -312.987)" fill="#2784ff"/>
      <path id="Caminho_855" data-name="Caminho 855" d="M374.14,344.31s-.163,14.213,8.337,18.314,13.057.68,18.83,2.04h0a32.193,32.193,0,0,0-9.663-2.849C386.285,361.182,376.037,357.7,374.14,344.31Z" transform="translate(-374.14 -312.987)" opacity="0.1"/>
      <path id="Caminho_856" data-name="Caminho 856" d="M403.626,369.033a14.239,14.239,0,0,0-3.4-2.292c-.184-.088-.367-.156-.558-.238s-.184-.218-.286-.326c-.252-.265-.517-.517-.8-.762a12.284,12.284,0,0,0-1.714-1.231c-1.408-.83-2.945-1.408-4.386-2.176a.041.041,0,0,0-.034.068c.68.367,1.4.775,2.088,1.176s1.36.768,2.04,1.19a13.915,13.915,0,0,1,1.68,1.265c.15.129.292.272.442.415a23.265,23.265,0,0,0-2.877-.762c-1.557-.313-3.128-.537-4.679-.87a21.669,21.669,0,0,1-2.258-.605c-.68-.571-1.408-1.136-2.074-1.748a16.566,16.566,0,0,1-2.2-2.435c0-.041-.1,0-.061.034a25.923,25.923,0,0,0,3.482,3.849c-.367-.143-.728-.292-1.088-.456a17.518,17.518,0,0,1-7.242-6.018c0-.041-.088,0-.061.034a19.9,19.9,0,0,0,5.855,5.624,17.443,17.443,0,0,0,3.706,1.754,35.291,35.291,0,0,0,4.6,1.088,31.854,31.854,0,0,1,4.5,1.068,13.676,13.676,0,0,1,3.781,1.986,17.681,17.681,0,0,1,5.094,6.318,31.853,31.853,0,0,1,2.8,10.391c0,.156.252.156.245,0C409.807,379.4,408.23,373.181,403.626,369.033Z" transform="translate(-375.9 -317.078)" fill="#263238"/>
      <path id="Caminho_857" data-name="Caminho 857" d="M398.577,366.268a4.89,4.89,0,0,0-1.748-1.585,6.447,6.447,0,0,1-2.081-1.72c0-.034-.088,0-.061.041a7.066,7.066,0,0,0,1.836,1.646,6.351,6.351,0,0,1,2,1.652C398.543,366.336,398.6,366.3,398.577,366.268Z" transform="translate(-380.713 -318.951)" fill="#263238"/>
      <path id="Caminho_858" data-name="Caminho 858" d="M407.04,390.07l.388,7.814,1.183,23.883h17.831l1.183-23.883.388-7.814Z" transform="translate(-384.666 -327.629)" fill="#455a64"/>
      <path id="Caminho_859" data-name="Caminho 859" d="M407.04,390.07l.388,7.814h20.2l.388-7.814Z" transform="translate(-384.666 -327.629)" fill="#263238"/>
      <rect id="Retângulo_330" data-name="Retângulo 330" width="23.468" height="7.453" transform="translate(44.597 66.637) rotate(180)" fill="#455a64"/>
    </g>
    <g id="freepik--Device--inject-488" transform="translate(208.146 155.393)">
      <path id="Caminho_860" data-name="Caminho 860" d="M311.088,248.32H278.63V245.8l32.458-1.047Z" transform="translate(-278.63 -199.452)" fill="#455a64"/>
      <path id="Caminho_861" data-name="Caminho 861" d="M353.53,246.389H332.116c-1.822,0,.823-5.2,7.48-7.2S355.659,244.437,353.53,246.389Z" transform="translate(-295.564 -197.562)" fill="#37474f"/>
      <path id="Caminho_862" data-name="Caminho 862" d="M351.5,247.275a5.168,5.168,0,0,1,.163-1.8,6.447,6.447,0,0,1,.68-1.68,5.311,5.311,0,0,1,1.2-1.36,4.21,4.21,0,0,1,1.6-.83,13.951,13.951,0,0,0-1.238,1.21,9.568,9.568,0,0,0-.979,1.36,19.044,19.044,0,0,0-1.428,3.094Z" transform="translate(-301.94 -198.448)" fill="#263238"/>
      <path id="Caminho_863" data-name="Caminho 863" d="M355.25,242.66a8.5,8.5,0,0,1,1.911.626,10.979,10.979,0,0,1,1.761,1,6.8,6.8,0,0,1,1.489,1.414,2.883,2.883,0,0,1,.68,1.911,4.162,4.162,0,0,0-1.1-1.564,11.563,11.563,0,0,0-1.482-1.2C357.481,244.088,356.358,243.422,355.25,242.66Z" transform="translate(-303.145 -198.784)" fill="#263238"/>
      <path id="Caminho_864" data-name="Caminho 864" d="M361.977,216.9H309.92L318.2,178.14h52.05Z" transform="translate(-288.642 -178.14)" fill="#455a64"/>
      <path id="Caminho_865" data-name="Caminho 865" d="M364.807,216.9H312.75l8.283-38.756h52.05Z" transform="translate(-289.547 -178.14)" fill="#37474f"/>
      <path id="Caminho_866" data-name="Caminho 866" d="M347.437,210.608H346.22l1.85-8.7h1.224Z" transform="translate(-300.256 -185.745)" fill="#263238"/>
      <path id="Caminho_867" data-name="Caminho 867" d="M350.984,210.608H349.76l1.857-8.7h1.217Z" transform="translate(-301.389 -185.745)" fill="#263238"/>
      <path id="Caminho_868" data-name="Caminho 868" d="M354.524,210.608H353.3l1.857-8.7h1.217Z" transform="translate(-302.521 -185.745)" fill="#263238"/>
      <path id="Caminho_869" data-name="Caminho 869" d="M358.064,210.608H356.84l1.857-8.7h1.217Z" transform="translate(-303.654 -185.745)" fill="#263238"/>
      <path id="Caminho_870" data-name="Caminho 870" d="M361.607,210.608H360.39l1.85-8.7h1.224Z" transform="translate(-304.79 -185.745)" fill="#263238"/>
      <path id="Caminho_871" data-name="Caminho 871" d="M365.147,210.608H363.93l1.85-8.7H367Z" transform="translate(-305.922 -185.745)" fill="#263238"/>
      <path id="Caminho_872" data-name="Caminho 872" d="M368.687,210.608H367.47l1.85-8.7h1.224Z" transform="translate(-307.055 -185.745)" fill="#263238"/>
      <path id="Caminho_873" data-name="Caminho 873" d="M355.6,248.685H330V246.7l25.6-.83Z" transform="translate(-295.066 -199.811)" fill="#455a64"/>
      <path id="Caminho_874" data-name="Caminho 874" d="M367.52,239.794H353.776L345.5,218.08h13.744Z" transform="translate(-300.026 -190.919)" fill="#455a64"/>
      <path id="Caminho_875" data-name="Caminho 875" d="M370.85,239.794H357.106L348.83,218.08h13.744Z" transform="translate(-301.091 -190.919)" fill="#263238"/>
    </g>
  </g>
</svg>
