<svg xmlns="http://www.w3.org/2000/svg" width="286.663" height="303.024" viewBox="0 0 286.663 303.024">
  <g id="Savings-cuate" transform="translate(-43.72)">
    <g id="freepik--background-complete--inject-89" transform="translate(43.72)">
      <path id="Caminho_473" data-name="Caminho 473" d="M95.885,87.88c-35.267,0-35.328,50.144,0,50.144S131.206,87.88,95.885,87.88Z" transform="translate(-51.927 -28.072)" fill="#ebebeb"/>
      <path id="Caminho_474" data-name="Caminho 474" d="M119.442,119.655c-1.885,8.623-9.038,16.109-21.452,16.109-29.312,0-29.264-41.624,0-41.624h.572c-27.536.5-27.407,39.915.544,39.915C110.506,134.069,117.3,127.474,119.442,119.655Z" transform="translate(-54.039 -30.071)" fill="#dbdbdb"/>
      <path id="Caminho_475" data-name="Caminho 475" d="M103.965,102.2a.9.9,0,0,1,.919.844V104.4a13.08,13.08,0,0,1,6.806,2.443c.34.245.531.449.531.8a.939.939,0,0,1-.987.871.973.973,0,0,1-.681-.245,11.372,11.372,0,0,0-5.724-2.266v9.773c5.8,1.116,8.242,3.1,8.242,6.527,0,3.7-3.4,6.316-8.167,6.459v2.722a.919.919,0,0,1-1.831,0v-2.722a14.972,14.972,0,0,1-8.582-3.4.864.864,0,0,1-.422-.728.96.96,0,0,1,.953-.878,1.021,1.021,0,0,1,.681.245,12.836,12.836,0,0,0,7.439,3.178v-9.936c-5.717-1.15-8.1-3.069-8.1-6.561s3.355-6.214,8.01-6.316V103.01a.9.9,0,0,1,.912-.81Zm-.837,13.271v-9.528c-3.7.075-6.125,2.1-6.125,4.607C96.99,112.953,98.208,114.389,103.128,115.471Zm1.681,2.123v9.65c3.811-.068,6.3-2.1,6.3-4.764C111.1,120.078,109.771,118.608,104.809,117.594Z" transform="translate(-59.803 -32.646)" fill="#dbdbdb"/>
      <path id="Caminho_476" data-name="Caminho 476" d="M391.869,308.035c-31.755,5.7-23.371,52.737,8.439,47.027S423.672,302.325,391.869,308.035Z" transform="translate(-148.531 -98.242)" fill="#dbdbdb"/>
      <path id="Caminho_477" data-name="Caminho 477" d="M396.765,307.265c-30.265,5.445-21.874,52.472,8.439,47.027S427.071,301.827,396.765,307.265Z" transform="translate(-150.446 -98.01)" fill="#ebebeb"/>
      <path id="Caminho_478" data-name="Caminho 478" d="M422.019,333.933c-.163,8.378-5.043,16.5-15.694,18.409-25.181,4.512-32.123-34.525-7-39.031a4.6,4.6,0,0,1,.49-.082c-23.548,4.716-16.8,41.658,7.187,37.356C416.779,348.831,421.5,341.6,422.019,333.933Z" transform="translate(-152.289 -100.055)" fill="#dbdbdb"/>
      <path id="Caminho_479" data-name="Caminho 479" d="M409.306,320.828a.81.81,0,0,1,.681.885l-.157,1.32a10.889,10.889,0,0,1,5.608,3.008.912.912,0,0,1,.374.81.857.857,0,0,1-.953.728.83.83,0,0,1-.572-.3,9.4,9.4,0,0,0-4.7-2.722l-1.089,9.249c4.9,1.647,6.806,3.777,6.411,7.017-.408,3.5-3.641,5.628-7.786,5.274l-.306,2.579a.8.8,0,1,1-1.586-.184l.306-2.613a12.489,12.489,0,0,1-7.051-4.083.837.837,0,0,1,.64-1.463.851.851,0,0,1,.565.3,10.753,10.753,0,0,0,6.091,3.764l1.13-9.419c-4.825-1.667-6.656-3.73-6.268-7.03s3.593-5.54,7.636-5.166l.15-1.252A.81.81,0,0,1,409.306,320.828Zm-2.2,12.468,1.055-9.018c-3.212-.313-5.547,1.361-5.826,3.736C402.072,330.261,402.963,331.772,407.108,333.3Zm1.211,2.185-1.068,9.12c3.308.32,5.683-1.361,5.975-3.852C413.5,338.469,412.505,336.944,408.32,335.481Z" transform="translate(-156.951 -102.481)" fill="#dbdbdb"/>
      <path id="Caminho_480" data-name="Caminho 480" d="M414.7,281.156l9.092-.191,4.478-.075c1.49-.034,2.967,0,4.451-.041l-.3.306-.041-7.616.34.34-9.031-.041c-3,0-6-.082-9.011-.116l.191-.184c0,1.245-.061,2.5-.1,3.77Zm0,0-.1-3.77c0-1.266-.075-2.552-.088-3.845v-.184h.184c3.008-.034,6.009-.109,9.011-.116l9.011-.041h.34v8.262h-.306c-1.518,0-3.042,0-4.553-.041l-4.533-.075Z" transform="translate(-162.165 -87.268)" fill="#ebebeb"/>
      <path id="Caminho_481" data-name="Caminho 481" d="M429.474,295.266l9.092-.191,4.478-.075c1.49-.034,2.967,0,4.451-.041l-.3.306-.034-7.616.333.34-9.011-.041c-3,0-6-.082-9.011-.116l.191-.184c0,1.245-.061,2.5-.088,3.77Zm0,0-.1-3.77c0-1.266-.075-2.552-.088-3.845v-.184h.184c3.008-.034,6.009-.109,9.011-.116l9.011-.041h.347v.34l-.041,7.616v.306h-.333c-1.518,0-3.035,0-4.553-.041l-4.533-.075Z" transform="translate(-166.883 -91.775)" fill="#ebebeb"/>
      <path id="Caminho_482" data-name="Caminho 482" d="M399.914,295.266l9.092-.191,4.478-.075c1.484-.034,2.967,0,4.451-.041l-.3.306-.027-7.616.34.34-9.011-.041c-3,0-6.009-.082-9.011-.116l.184-.184c0,1.245-.054,2.5-.088,3.77Zm0,0-.1-3.77c-.034-1.266-.075-2.552-.088-3.845v-.184h.184c3-.034,6.009-.109,9.011-.116l9.011-.041h.34v.34l.014,7.616v.306h-.3c-1.518,0-3.042,0-4.553-.041l-4.533-.075Z" transform="translate(-157.44 -91.775)" fill="#ebebeb"/>
      <path id="Caminho_483" data-name="Caminho 483" d="M58.641,295.266l9.086-.191L72.2,295c1.49-.034,2.974,0,4.458-.041l-.306.306-.034-7.616.34.34-8.99-.041c-3.008,0-6.009-.082-9.011-.116l.184-.184c0,1.245-.061,2.5-.088,3.77Zm0,0-.1-3.77c0-1.266-.075-2.552-.088-3.845v-.184h.191c3-.034,6-.109,9.011-.116l9.011-.041H77v.34l-.041,7.616v.306h-.3c-1.518,0-3.042,0-4.56-.041l-4.533-.075Z" transform="translate(-48.425 -91.775)" fill="#ebebeb"/>
      <path id="Caminho_484" data-name="Caminho 484" d="M58.641,44.039l9.086-.191,4.478-.082h4.458l-.306.306-.034-7.616.34.333-8.99-.082c-3.008,0-6.009-.075-9.011-.109l.184-.184c0,1.245-.061,2.5-.088,3.764Zm0,0-.1-3.77c0-1.273-.075-2.559-.088-3.845V36.24h.191c3,0,6-.109,9.011-.109l9.011-.041H77v.347l-.041,7.616v.3h-.3c-1.518,0-3.042,0-4.56-.034L67.57,44.2Z" transform="translate(-48.425 -11.528)" fill="#ebebeb"/>
      <path id="Caminho_485" data-name="Caminho 485" d="M43.911,58.149,53,57.958l4.478-.082h4.458l-.306.306V50.568l.34.333-9.072-.075c-3.008,0-6.009-.082-8.984-.082l.184-.184c0,1.245-.061,2.5-.088,3.764Zm0,0-.1-3.77c0-1.273-.075-2.559-.088-3.845V50.35h.191c3,0,6-.109,9.011-.109l9.011-.041h.34v.347l-.041,7.616v.3H57.372L52.84,58.38Z" transform="translate(-43.72 -16.035)" fill="#ebebeb"/>
      <path id="Caminho_486" data-name="Caminho 486" d="M429.474,44.046l9.092-.191,4.478-.075c1.49,0,2.967,0,4.451-.041l-.3.306-.034-7.616.333.34-9.011-.061c-3,0-6-.075-9.011-.109l.191-.184c0,1.245-.061,2.5-.088,3.764Zm0,0-.1-3.77c0-1.273-.075-2.552-.088-3.845v-.184h.184c3.008-.034,6.009-.1,9.011-.109l8.984-.048h.347v.34l-.034,7.616v.306h-4.866l-4.533-.075Z" transform="translate(-166.883 -11.528)" fill="#ebebeb"/>
      <path id="Caminho_487" data-name="Caminho 487" d="M277.592,122.68l-9.086.191-4.478.075c-1.49,0-2.974,0-4.458.041l.306-.306.034,7.616-.34-.34,9.011.048c3.008,0,6.009.075,9.011.109l-.184.184c0-1.245.061-2.5.088-3.764Zm0,0,.1,3.77c0,1.273.075,2.552.088,3.845v.184h-.191c-3,0-6,.1-9.011.109l-9.011.041h-.34v-.347l.041-7.616v-.306h4.859l4.533.075Z" transform="translate(-112.56 -39.085)" fill="#ebebeb"/>
      <path id="Caminho_488" data-name="Caminho 488" d="M262.819,108.573l-9.086.191-4.478.075c-1.49,0-2.974,0-4.458.041l.306-.306.034,7.616-.34-.34,9.011.048c3,0,6.009.075,9.011.109l-.184.184c0-1.245.054-2.5.088-3.764Zm0,0,.1,3.77c.034,1.273.082,2.552.088,3.845v.184h-.191c-3,0-6.009.1-9.011.109l-9.011.041h-.34v-.34l.041-7.616v-.306h4.893l4.533.075Z" transform="translate(-107.839 -34.582)" fill="#ebebeb"/>
      <rect id="Retângulo_184" data-name="Retângulo 184" width="0.681" height="81.144" transform="translate(258.14)" fill="#c7c7c7"/>
      <path id="Caminho_489" data-name="Caminho 489" d="M382.12,151.962l2.266,4.982h51.825l2.26-4.982L416.407,136.69H404.184Z" transform="translate(-151.815 -43.663)" fill="#ebebeb"/>
      <path id="Caminho_490" data-name="Caminho 490" d="M412.29,115.07l1.531,14.714h12.223l1.531-14.714Z" transform="translate(-161.452 -36.757)" fill="#dbdbdb"/>
      <path id="Caminho_491" data-name="Caminho 491" d="M382.13,159.14l2.266,4.982h51.825l2.259-4.982Z" transform="translate(-151.818 -50.834)" fill="#dbdbdb"/>
      <rect id="Retângulo_185" data-name="Retângulo 185" width="0.681" height="65.069" transform="translate(197.644)" fill="#c7c7c7"/>
      <path id="Caminho_492" data-name="Caminho 492" d="M293.23,128.352l2.266,4.982h51.825l2.259-4.982L327.517,113.08H315.294Z" transform="translate(-123.421 -36.121)" fill="#ebebeb"/>
      <path id="Caminho_493" data-name="Caminho 493" d="M323.4,91.46l1.531,14.714h12.223l1.531-14.714Z" transform="translate(-133.058 -29.215)" fill="#dbdbdb"/>
      <path id="Caminho_494" data-name="Caminho 494" d="M293.23,135.52,295.5,140.5h51.825l2.259-4.982Z" transform="translate(-123.421 -43.289)" fill="#dbdbdb"/>
    </g>
    <g id="freepik--Desk--inject-89" transform="translate(44.795 272.568)">
      <path id="Caminho_495" data-name="Caminho 495" d="M45.3,400.84l34.832-.163,34.825-.061,69.656-.116,69.656.116,34.825.054,34.825.17L289.094,401l-34.825.061-69.656.116-69.656-.116L80.132,401Z" transform="translate(-45.3 -400.5)" fill="#263238"/>
    </g>
    <g id="freepik--Shadow--inject-89" transform="translate(58.359 284.417)">
      <ellipse id="Elipse_37" data-name="Elipse 37" cx="125.749" cy="9.303" rx="125.749" ry="9.303" fill="#ebebeb"/>
    </g>
    <g id="freepik--Character--inject-89" transform="translate(85.202 53.519)">
      <path id="Caminho_496" data-name="Caminho 496" d="M257.782,320.958v.163a.453.453,0,0,1-.034.184v.122a2.092,2.092,0,0,0-.048.265.392.392,0,0,1-.034.191,4,4,0,0,0-.082.449c-.034.163-.1.551-.156.878l-.306,1.661c-.034.177-.068.368-.1.565s-.1.531-.15.81-.109.626-.17.96c-.041.231-.088.47-.129.715-.129.728-.265,1.5-.422,2.334a.2.2,0,0,0,0,.061c-.163.926-.34,1.919-.531,2.96-.048.272-.1.544-.157.817s-.109.572-.157.858h0a2.637,2.637,0,0,1-.1.544h0q-.388,2.171-.837,4.6c-.1.544-.2,1.1-.3,1.654-.2,1.089-.4,2.205-.613,3.355-.054.265-.1.531-.143.8q-.463,2.5-.946,5.2c-.041.184-.068.368-.1.551-.157.844-.313,1.695-.463,2.566a1.083,1.083,0,0,0-.041.2l-.225,1.239q-.449,2.491-.926,5.1c-.082.429-.163.864-.238,1.307-.157.878-.32,1.763-.483,2.654-.2,1.109-.408,2.225-.613,3.362s-.408,2.273-.619,3.4c-.109.578-.211,1.157-.32,1.735-.122.681-.252,1.361-.374,2.089H189.14c7.255-30.142,13.373-54.446,13.373-54.446Z" transform="translate(-131.653 -156.015)" fill="#263238"/>
      <path id="Caminho_497" data-name="Caminho 497" d="M272.366,330.928q-4.417,23.82-8.929,47.64h-.817c3.124-15.919,6.343-31.81,9.528-47.708A.114.114,0,1,1,272.366,330.928Z" transform="translate(-155.125 -159.179)" fill="#263238"/>
      <path id="Caminho_498" data-name="Caminho 498" d="M269.033,321v.163a.454.454,0,0,1-.034.184v.122a2.092,2.092,0,0,0-.048.265.392.392,0,0,1-.034.191,2.871,2.871,0,0,0-.082.449c-.027.163-.1.551-.157.878-.1.483-.191,1.034-.306,1.661-.034.177-.068.368-.1.565s-.1.531-.15.81-.109.626-.17.96c-.041.231-.088.47-.129.715-.136.728-.272,1.5-.422,2.334a.2.2,0,0,0,0,.061c-.17.926-.347,1.906-.538,2.947-.054.272-.1.551-.15.83s-.109.572-.157.858h0c-.041.177-.068.361-.1.544h0c-.265,1.443-.544,2.981-.837,4.6-.1.544-.2,1.1-.3,1.654-.2,1.089-.408,2.205-.613,3.355-.054.265-.1.531-.143.8q-.47,2.511-.946,5.2c-.041.184-.068.367-.1.551-.157.844-.313,1.695-.463,2.566a1.082,1.082,0,0,0-.041.2l-.225,1.239q-.463,2.491-.926,5.1c-.082.429-.163.864-.238,1.307-.163.878-.32,1.763-.483,2.654-.2,1.109-.408,2.225-.612,3.362s-.415,2.273-.619,3.4c-.109.578-.211,1.157-.32,1.735-.122.681-.252,1.361-.381,2.089H229.682l-2.362-24.174-.082-.857-.1-.926h0l-.463-4.73h0l-.4-4.083L224.36,321Z" transform="translate(-142.904 -156.056)" fill="#455a64"/>
      <path id="Caminho_499" data-name="Caminho 499" d="M298.047,375.465H234.611c-.109-5.839-.225-11.488-.368-16.817h0v-.388a101.584,101.584,0,0,1-11.393-7.82,14.08,14.08,0,0,1-1.865-1.851h0c-2.552-3.253-5.111-15.762-10.406-27.529h77.585C300.769,345.52,299.884,365.175,298.047,375.465Z" transform="translate(-138.502 -156.076)" fill="#263238"/>
      <path id="Caminho_500" data-name="Caminho 500" d="M223.059,360.234a58.035,58.035,0,0,1,10.515,6.214c3.484,2.375,6.676,5.125,10.025,7.677.129.1,0,.313-.136.218-3.532-2.253-7.228-4.233-10.719-6.554a67.247,67.247,0,0,1-9.855-7.282C222.773,360.4,222.9,360.166,223.059,360.234Z" transform="translate(-142.42 -168.585)" fill="#455a64"/>
      <path id="Caminho_501" data-name="Caminho 501" d="M222.338,328.125c.449,2.416,1.034,4.812,1.559,7.214.483,2.253.844,4.546,1.443,6.806a11.515,11.515,0,0,0,3.158,5.676c.885.823,1.858,1.552,2.8,2.3.51.408,1.055.8,1.586,1.211-.068-.32-.122-.681-.184-.973l-.47-2.722c-.34-2.042-.681-4.083-.98-6.125-.613-4.009-1.171-8.058-2.042-12.026a.129.129,0,0,1,.245-.068c1,3.934,2.1,7.827,2.974,11.794.429,1.94,1.946,11.57,2.042,12.25s.129,1.409.157,2.11a8.481,8.481,0,0,1,0,2.157.177.177,0,0,1-.327,0h0a8.419,8.419,0,0,1-.606-2.083c-.177-.681-.333-1.361-.456-2.083-.048-.245-.082-.5-.116-.762-.946-.578-1.824-1.361-2.722-1.974a34.784,34.784,0,0,1-2.824-2.123,10.787,10.787,0,0,1-3.451-5.39,39.35,39.35,0,0,1-1.13-6.9c-.306-2.722-.531-5.445-.912-8.167C222.066,328.009,222.3,327.962,222.338,328.125Z" transform="translate(-142.175 -158.302)" fill="#455a64"/>
      <path id="Caminho_502" data-name="Caminho 502" d="M306.215,345.38c-1.014-.524-4.934.408-12.08-.81A8.167,8.167,0,0,1,290.283,343a20.326,20.326,0,0,1-4.4-6.05,31.626,31.626,0,0,1-3.076-7.486c-.034-.163-.259-.082-.231.068.265,1.477.408,2.954.8,4.417a27.22,27.22,0,0,0,1.477,4.009c1.075,2.423,2.334,5.023,4.512,6.663,2.28,1.715,5.445,2.042,8.221,2.232,1.593.109,7.861-.061,8.7-.953a.354.354,0,0,0-.082-.524Z" transform="translate(-161.5 -158.733)" fill="#455a64"/>
      <path id="Caminho_503" data-name="Caminho 503" d="M190.347,184.925c-6.533,9.657-51.914,67.819-58.481,69.01-16.735,3.015-32.062-2.722-25.739-17.137,7.364-16.783,48.32-50.056,75.611-64.79C201.284,161.452,196.772,175.39,190.347,184.925Z" transform="translate(-104.672 -107.258)" fill="#dd6a57"/>
      <path id="Caminho_504" data-name="Caminho 504" d="M181.294,216.628,145.7,200.294s32.933-22.894,48.32-29.863c16.075-7.262,22.575-3.015,8.847,15.878C189.4,204.9,181.294,216.628,181.294,216.628Z" transform="translate(-117.777 -106.892)" fill="#455a64"/>
      <path id="Caminho_505" data-name="Caminho 505" d="M166.315,197.26a2.408,2.408,0,0,0-.218.143l27.692,13.516.136-.191Zm-7.656,5.029a2.236,2.236,0,0,0-.211.136L189.175,217.4l.129-.184Zm-7.548,5.077-.211.143,33.7,16.443c.034-.061.082-.122.122-.184Z" transform="translate(-119.438 -116.53)" fill="#fff"/>
      <path id="Caminho_506" data-name="Caminho 506" d="M185.883,223.437a28.126,28.126,0,0,0-2.518-1.273l-2.593-1.273c-1.749-.858-3.512-1.688-5.288-2.5-3.532-1.64-7.064-3.294-10.624-4.866-.98-.436-1.967-.871-2.954-1.273s-2.117-.789-3.158-1.218c-.061,0-.1.068-.034.1.864.429,1.695.932,2.552,1.361s1.776.878,2.668,1.307q2.647,1.245,5.308,2.464c3.491,1.586,6.983,3.185,10.508,4.7.987.429,1.974.837,2.96,1.259s2.042.953,3.124,1.293C185.89,223.546,185.938,223.464,185.883,223.437Z" transform="translate(-121.924 -120.929)" fill="#263238"/>
      <path id="Caminho_507" data-name="Caminho 507" d="M214.288,186.64c-13.523,18.614-21.629,30.34-21.629,30.34l-11.379-5.234,39.01-43.556C223.285,170.239,221.869,176.228,214.288,186.64Z" transform="translate(-129.143 -107.244)" fill="#263238"/>
      <path id="Caminho_508" data-name="Caminho 508" d="M200.218,283.831h91.809S278,196.229,244.155,166.27c-4.179-3.7-13.611-2.858-19.737.2-2.2,1.1-10.086,12.128-12.339,22.568S199.966,283.518,200.218,283.831Z" transform="translate(-135.19 -105.848)" fill="#455a64"/>
      <path id="Caminho_509" data-name="Caminho 509" d="M303.739,247.172,263,166.15a7.092,7.092,0,0,1,1.211.864C283.417,184.015,296.239,219.582,303.739,247.172Z" transform="translate(-155.246 -106.593)" fill="#263238"/>
      <path id="Caminho_510" data-name="Caminho 510" d="M240.281,164.445h-9.337c.436-.082.864-.157,1.3-.225h6.935C239.546,164.281,239.9,164.356,240.281,164.445Zm9.6,7.65H219.742c-.048.075-.1.15-.15.225h30.442Zm6.057,7.874H215.311l-.1.225h40.875Zm4.955,7.874H212.426a.92.92,0,0,1-.061.225h48.661Zm4.247,7.874H211.017a.517.517,0,0,1-.034.225h54.269C265.211,195.866,265.17,195.792,265.136,195.717Zm3.73,7.874H209.914v.225h59.067A.446.446,0,0,1,268.865,203.591Zm3.328,7.881H208.9v.218h63.368a.651.651,0,0,0-.082-.218Zm3,7.874H207.859v.218h67.4c-.02-.075-.048-.143-.075-.218Zm2.722,7.874H206.872v.225H278a2.163,2.163,0,0,0-.068-.225Zm2.518,7.874H205.9v.225H280.51A.967.967,0,0,1,280.435,235.095Zm2.314,7.874h-77.8v.225h77.871Zm2.137,7.874H204v.225h80.988a.459.459,0,0,1-.1-.225Zm1.967,7.874H203.068v.225h83.846c-.02-.075-.034-.15-.054-.225Zm1.81,7.874H202.169v.225h86.548c-.014-.075-.027-.15-.048-.225Zm1.661,7.874H201.251v.225h89.155Zm1.484,7.874H200.4v.225h91.469a1.347,1.347,0,0,1-.054-.225Z" transform="translate(-135.25 -105.976)" fill="#fff"/>
      <path id="Caminho_511" data-name="Caminho 511" d="M279.23,169.634c23.139,8.555,80.117,31.259,83.03,44.543,2.123,9.766-41.351,15.837-42.59,14.258-.973-1.252-41.345-32.7-55.575-49.627C251.721,164.108,271.832,166.9,279.23,169.634Z" transform="translate(-154.34 -107.007)" fill="#dd6a57"/>
      <path id="Caminho_512" data-name="Caminho 512" d="M295.85,209.058l30.483-21.1s-36.424-16.8-52.826-20.962c-17.1-4.342-22.751.966-5.935,17.171A366.953,366.953,0,0,0,295.85,209.058Z" transform="translate(-153.476 -106.4)" fill="#455a64"/>
      <path id="Caminho_513" data-name="Caminho 513" d="M314.459,183.94,290.83,201.716c.061.048.109.1.17.143l23.7-17.824Zm8.357,3.566-25.93,19.505.17.15,26-19.553A1.206,1.206,0,0,0,322.817,187.506Zm8.283,3.627-28,21.1a1.806,1.806,0,0,0,.177.143l28.053-21.1A1.767,1.767,0,0,1,331.1,191.134Z" transform="translate(-164.136 -112.275)" fill="#fff"/>
      <path id="Caminho_514" data-name="Caminho 514" d="M334.873,196.346c-.817.449-1.586,1.014-2.362,1.538s-1.593,1.075-2.4,1.606c-1.62,1.082-3.226,2.2-4.825,3.314-3.185,2.239-6.391,4.465-9.528,6.758-.864.626-1.729,1.259-2.579,1.912s-1.742,1.436-2.634,2.123c-.054.041,0,.116.068.082.8-.531,1.661-.994,2.47-1.524s1.654-1.089,2.47-1.654c1.606-1.1,3.2-2.219,4.764-3.348,3.124-2.225,6.261-4.444,9.337-6.738l2.573-1.926c.9-.681,1.851-1.307,2.688-2.042C334.975,196.394,334.934,196.312,334.873,196.346Z" transform="translate(-170.428 -116.236)" fill="#263238"/>
      <path id="Caminho_515" data-name="Caminho 515" d="M297.719,215.213c-.858-.721-1.654-1.511-2.484-2.259s-1.688-1.49-2.525-2.239c-1.64-1.456-3.3-2.892-4.948-4.349-3.328-2.954-6.656-5.914-9.95-8.9-1.872-1.7-3.709-3.45-5.642-5.084l-.041.041c1.518,1.64,3.151,3.185,4.764,4.723a11.885,11.885,0,0,1-1.007-.681c-.327-.252-.721-.517-1.069-.8s-.681-.592-1.075-.851c-.061-.041-.116.041-.075.088a9.071,9.071,0,0,0,2.137,1.844c.395.265.81.5,1.225.728l.456.211q2.164,2.042,4.356,4.083,4.9,4.519,10,8.847c.939.789,1.885,1.565,2.838,2.341s2,1.524,2.974,2.321C297.7,215.336,297.767,215.261,297.719,215.213Z" transform="translate(-158.163 -114.971)" fill="#263238"/>
      <path id="Caminho_516" data-name="Caminho 516" d="M235.694,175.06c5.4.681,13.611-8.3,16.483-15.19.2-.476-.98-5.118-2.151-10.828-.681-3.464-1.361-7.343-1.756-10.923-.075-.735-21.9,7.813-21.9,7.813a57.509,57.509,0,0,1,3.614,13.523,8.383,8.383,0,0,1,0,1.49v.245C229.814,164.028,230.481,174.387,235.694,175.06Z" transform="translate(-143.546 -97.624)" fill="#dd6a57"/>
      <path id="Caminho_517" data-name="Caminho 517" d="M232.3,161.1a13.938,13.938,0,0,1-2.321.123v-.252a7.222,7.222,0,0,0,0-1.484,57.55,57.55,0,0,0-3.6-13.523s17.695-6.942,21.275-7.779C247.4,142.4,245.518,159.424,232.3,161.1Z" transform="translate(-143.549 -97.661)" fill="#263238"/>
      <path id="Caminho_518" data-name="Caminho 518" d="M239.308,93.527c4.526,7.044,6.724,30.469,2.641,36.975-5.921,9.439-18.743,13.8-27.549,5.962-8.541-7.588-10.889-38.166-6.016-44.4C215.488,82.876,232.611,83.094,239.308,93.527Z" transform="translate(-136.999 -80.806)" fill="#dd6a57"/>
      <path id="Caminho_519" data-name="Caminho 519" d="M233.618,127.372c0-.061.136.068.136.129.109,1.586.5,3.4,1.974,3.757.048,0,.048.1,0,.088C233.958,131.279,233.468,128.89,233.618,127.372Z" transform="translate(-145.853 -94.201)" fill="#263238"/>
      <path id="Caminho_520" data-name="Caminho 520" d="M234.864,124.747c2.518-.442,3.219,4.621.892,5.036S232.755,125.121,234.864,124.747Z" transform="translate(-145.854 -93.359)" fill="#263238"/>
      <path id="Caminho_521" data-name="Caminho 521" d="M218.9,128.995c0-.054-.116.1-.1.157.265,1.565.306,3.4-1.041,4.117-.041,0,0,.1,0,.082C219.49,132.887,219.408,130.458,218.9,128.995Z" transform="translate(-140.79 -94.72)" fill="#263238"/>
      <path id="Caminho_522" data-name="Caminho 522" d="M216.255,126.909c-2.545.157-2.042,5.247.32,5.1S218.4,126.78,216.255,126.909Z" transform="translate(-139.774 -94.057)" fill="#263238"/>
      <path id="Caminho_523" data-name="Caminho 523" d="M235.908,119.449a20.751,20.751,0,0,1-2.042-.422,3.437,3.437,0,0,1-2.042-.823,1.082,1.082,0,0,1,0-1.32,2.78,2.78,0,0,1,2.641-.681,3.947,3.947,0,0,1,2.484,1.361,1.157,1.157,0,0,1-1.041,1.885Z" transform="translate(-145.216 -90.619)" fill="#263238"/>
      <path id="Caminho_524" data-name="Caminho 524" d="M212.958,121.81a19.1,19.1,0,0,0,1.94-.8,3.4,3.4,0,0,0,1.824-1.191,1.082,1.082,0,0,0-.245-1.3,2.683,2.683,0,0,0-2.722-.129,3.934,3.934,0,0,0-2.178,1.817,1.157,1.157,0,0,0,1.382,1.606Z" transform="translate(-138.784 -91.238)" fill="#263238"/>
      <path id="Caminho_525" data-name="Caminho 525" d="M237.041,147.743c-.32.422-.626.98-1.191,1.1a4.213,4.213,0,0,1-1.742-.157.054.054,0,0,0-.054.088,2.144,2.144,0,0,0,2.11.578,1.7,1.7,0,0,0,1.041-1.565C237.218,147.7,237.089,147.682,237.041,147.743Z" transform="translate(-145.996 -100.702)" fill="#263238"/>
      <path id="Caminho_526" data-name="Caminho 526" d="M230.53,133.66a5.39,5.39,0,0,1-3.233,2.872,6.7,6.7,0,0,1-1.912.354,2.323,2.323,0,0,1-.374,0h-.347a.4.4,0,0,1-.368-.306h0a.68.68,0,0,1,0-.163h0v-.136c-.2-1.2-.333-3.056-.333-3.056-.415.279-2.525,1.606-2.573.966-.415-5.268-.871-11.127-.17-16.456a.15.15,0,0,1,.293,0c.592,5.05.3,10.168.817,15.245a9.6,9.6,0,0,1,2.416-1.109c.184,0,.2,3.587.333,4.117a.3.3,0,0,0,0,.054c2.042,0,3.512-.844,5.295-2.477C230.482,133.435,230.611,133.531,230.53,133.66Z" transform="translate(-141.784 -91.09)" fill="#263238"/>
      <path id="Caminho_527" data-name="Caminho 527" d="M228.43,143.689a6.431,6.431,0,0,0,2.811,1.613,2.872,2.872,0,0,0,1.749-.129c1.211-.5,1.082-1.661.715-2.613a7.009,7.009,0,0,0-.769-1.429A8.31,8.31,0,0,1,228.43,143.689Z" transform="translate(-144.204 -98.601)" fill="#263238"/>
      <path id="Caminho_528" data-name="Caminho 528" d="M232.559,145.973a2.872,2.872,0,0,0,1.749-.129c1.211-.5,1.082-1.661.715-2.613A2.985,2.985,0,0,0,232.559,145.973Z" transform="translate(-145.522 -99.271)" fill="#ff98b9"/>
      <path id="Caminho_529" data-name="Caminho 529" d="M238.646,109.184c-4.124,1.055-6.908-8.956-6.908-8.956s-6.527.878-12.25-6.622c0,0-6.336,7.534-13.387,8.466-11.052,1.45-15.136-12.2-12.114-16.211,4.281-5.7,15.973-3.158,15.973-3.158s13.611-8.949,21.268-.286a8.043,8.043,0,0,1,9.569,5.356C243.614,94.973,241.722,108.394,238.646,109.184Z" transform="translate(-132.893 -78.639)" fill="#263238"/>
      <path id="Caminho_530" data-name="Caminho 530" d="M245.661,106.577a14.435,14.435,0,0,1-9.167-1.756c-2.838-1.715-5.206-4.982-5.308-8.371,0-.184-.306-.157-.286,0,.368,3.689,1.708,7.166,4.839,9.371a10.086,10.086,0,0,0,10,1.034.163.163,0,0,0-.075-.279Z" transform="translate(-144.992 -84.288)" fill="#263238"/>
      <path id="Caminho_531" data-name="Caminho 531" d="M257.628,84.882c-2.892-1.946-6.159-1.361-9.229-.238-.17.061-.061.347.1.265,2.94-1.361,6.67-.279,9.065,1.715s2.981,5.145,3.219,8.051a22.772,22.772,0,0,1-4.519,15.694c-.054.068.054.157.109.088A22.772,22.772,0,0,0,261.548,93.2C261.16,90.184,260.269,86.679,257.628,84.882Z" transform="translate(-150.555 -80.226)" fill="#263238"/>
      <path id="Caminho_532" data-name="Caminho 532" d="M210.511,83.941a10.658,10.658,0,0,0-7.139-2.552,12.788,12.788,0,0,0-8.378,3.661,7.221,7.221,0,0,0-1.729,7.023c.721,2.886,2.9,5.118,5.206,6.806a.061.061,0,1,0,.075-.1,12.751,12.751,0,0,1-4.376-6.316,6.642,6.642,0,0,1,1.926-6.806c3.668-3.28,10.038-4.975,14.238-1.524a.143.143,0,0,0,.177-.2Z" transform="translate(-132.879 -79.517)" fill="#263238"/>
      <path id="Caminho_533" data-name="Caminho 533" d="M255.73,123.514s3.178-8.562,6.935-7.609,2.681,12.441-.8,14.877a4.083,4.083,0,0,1-5.805-.742Z" transform="translate(-152.924 -90.519)" fill="#dd6a57"/>
      <path id="Caminho_534" data-name="Caminho 534" d="M263.3,120.769a.054.054,0,0,1,.048.1c-2.423,1.8-3.192,4.682-3.512,7.541.544-1.211,1.5-2.042,3.083-1.436a.088.088,0,0,1-.034.163,2.5,2.5,0,0,0-2.436,1.531,12.066,12.066,0,0,0-.715,2.484c-.061.272-.531.259-.517-.048a.211.211,0,0,0,0-.068C258.253,127.6,259.655,122.076,263.3,120.769Z" transform="translate(-153.943 -92.096)" fill="#263238"/>
      <path id="Caminho_535" data-name="Caminho 535" d="M368.772,313.183c-6.472,22.581-24.991,40.929-28.781,43.332-3.226,2.042-4.907,3.09-4.907,3.09-5.717,3.811-9.65,2.777-9.65,2.777s-5.315,6.35-9.685,3.77c-4.907-2.865,3.512-11.216,5.336-18.641,4.172-17.014,5.349-42.352,6.064-47.381Z" transform="translate(-171.612 -149.39)" fill="#dd6a57"/>
      <path id="Caminho_536" data-name="Caminho 536" d="M343.214,348a112.89,112.89,0,0,1-4.5,14.687c-2.191,5.24-5.172,9.916-8.092,14.748a.136.136,0,0,0,.218.157,59.638,59.638,0,0,0,12.808-29.489C343.684,347.853,343.282,347.758,343.214,348Z" transform="translate(-176.843 -164.637)" fill="#263238"/>
      <path id="Caminho_537" data-name="Caminho 537" d="M358.33,349.5c-1.559,4.764-4.356,13.149-13.666,25.726-.034.041,0,.1.068.061a53.492,53.492,0,0,0,14.074-25.61C358.881,349.374,358.438,349.191,358.33,349.5Z" transform="translate(-181.328 -165.11)" fill="#263238"/>
      <path id="Caminho_538" data-name="Caminho 538" d="M320.777,326.7c-.333-2.43-1.613-2.273-3.818,1.49s-7.731,20.526-13.414,18.1,2.457-25.964,6.608-31.946,12.931-14.217,12.931-14.217C322.444,305.03,321.961,317.056,320.777,326.7Z" transform="translate(-167.575 -149.39)" fill="#dd6a57"/>
      <path id="Caminho_539" data-name="Caminho 539" d="M385.41,234.423c4.539,14.258-7.439,46.054-10.746,56.623-1.443,4.607-43.516-7.7-41.944-12.618,3.226-10.066,11.57-28.387,10.1-29.748C341.656,247.6,381.278,221.472,385.41,234.423Z" transform="translate(-177.503 -127.253)" fill="#dd6a57"/>
      <path id="Caminho_540" data-name="Caminho 540" d="M359.216,244.456a14.442,14.442,0,0,0-1.661.681c-.544.293-1.123.524-1.661.817a21.778,21.778,0,0,0-2.967,2,26.742,26.742,0,0,0-2.668,2.368c-.436.436-.858.885-1.259,1.361a7.834,7.834,0,0,0-1.062,1.436.157.157,0,0,0,0,.163s0,.048.041.054c.177.075.279-.075.408-.184l.64-.592c.449-.415.885-.858,1.361-1.279.905-.837,1.858-1.64,2.838-2.4s1.987-1.47,3.008-2.157c.51-.347,1.014-.681,1.531-1.041s1.028-.681,1.559-.987C359.427,244.605,359.346,244.4,359.216,244.456Z" transform="translate(-182.371 -131.603)" fill="#263238"/>
      <path id="Caminho_541" data-name="Caminho 541" d="M129.782,234.17c-6.806,4.764-27.529,23.323-23.35,33.464s20.131,9.9,42.44,5.86Z" transform="translate(-105.057 -128.32)" fill="#dd6a57"/>
      <path id="Caminho_542" data-name="Caminho 542" d="M140.12,227.039c9.14-7.616,22.418-16.865,27.856-16.572,5.7.306,25.705,2.2,30.211,4.131s17.463,14.544,18.791,18.722c1.062,3.348-5.513,6.506-13.856,1.137-7.806-5.023-9.426-6.608-11.971-7.486s-12.577,1.048-13.788,4.832c-.715,2.232,2.178,8.255,6.2,9.528s8.167-1.116,13.836-.81,11.114,5.9,10.018,7.738-3.634.851-11.372,3.437c-4.975,1.667-10.889,4.662-19.308,9.616-8.623,5.07-21.1,4.982-21.1,4.982Z" transform="translate(-115.995 -120.747)" fill="#dd6a57"/>
      <path id="Caminho_543" data-name="Caminho 543" d="M226.667,246.843c13.611,4.26,7.33,24.439-6.316,20.172S213.028,242.569,226.667,246.843Z" transform="translate(-139.194 -132.18)" fill="#2784ff"/>
      <path id="Caminho_544" data-name="Caminho 544" d="M226.667,246.843c13.611,4.26,7.33,24.439-6.316,20.172S213.028,242.569,226.667,246.843Z" transform="translate(-139.194 -132.18)" opacity="0.1"/>
      <path id="Caminho_545" data-name="Caminho 545" d="M225,246.277c12.978,4.083,6.69,24.242-6.316,20.172S212,242.207,225,246.277Z" transform="translate(-138.807 -132.015)" fill="#2784ff"/>
      <path id="Caminho_546" data-name="Caminho 546" d="M214.185,256.814a8.087,8.087,0,0,0,5.867,8.949c10.794,3.4,16.014-13.373,5.24-16.742l-.211-.061c10.072,3.4,5.063,19.212-5.227,15.993A7.724,7.724,0,0,1,214.185,256.814Z" transform="translate(-139.636 -133.045)" opacity="0.1"/>
      <g id="Grupo_104" data-name="Grupo 104" transform="translate(77.926 118.025)" opacity="0.1">
        <path id="Caminho_547" data-name="Caminho 547" d="M226.242,252.1a.361.361,0,0,1,.2.456l-.211.551a4.846,4.846,0,0,1,2.042,1.906.429.429,0,0,1,.068.395.381.381,0,0,1-.49.2.374.374,0,0,1-.211-.191,4.213,4.213,0,0,0-1.708-1.695l-1.5,3.845c1.919,1.245,2.491,2.368,1.967,3.709-.558,1.456-2.185,2.042-3.92,1.4l-.415,1.069a.364.364,0,0,1-.681-.259l.415-1.082a5.554,5.554,0,0,1-2.566-2.525.374.374,0,0,1-.041-.347.388.388,0,0,1,.476-.211.4.4,0,0,1,.211.191,4.764,4.764,0,0,0,2.191,2.287l1.518-3.906c-1.885-1.252-2.443-2.341-1.912-3.709a2.873,2.873,0,0,1,3.845-1.361l.2-.517a.361.361,0,0,1,.51-.211Zm-2.321,5.1,1.45-3.743c-1.361-.49-2.525-.034-2.913.953S222.315,256.1,223.921,257.2Zm.279,1.068-1.47,3.791a2.187,2.187,0,0,0,2.988-.987C226.126,260.03,225.861,259.356,224.2,258.267Z" transform="translate(-219.173 -252.06)"/>
      </g>
      <path id="Caminho_548" data-name="Caminho 548" d="M181.05,209.606c6.724-1.824,20.955-3.212,30.428.49,6.4,2.5,15.49,25.324,12.169,28.012s-6.125.157-9.8-4.083c-1.361-1.545-6.7-11.651-9.569-11.216-4.138.619-14.081,6.567-14.081,6.567Z" transform="translate(-129.069 -119.886)" fill="#dd6a57"/>
      <path id="Caminho_549" data-name="Caminho 549" d="M242.3,242.273c1.021-5.179-1.79-11-4.914-16.429-.054-.082-.184,0-.136.068.8,1.361,4.968,11.243,4.948,16.368C242.2,242.348,242.291,242.334,242.3,242.273Z" transform="translate(-147.019 -125.65)" fill="#263238"/>
      <path id="Caminho_550" data-name="Caminho 550" d="M181.05,209.606c6.724-1.824,20.955-3.212,30.428.49,6.4,2.5,10.052,24.439,6.731,27.128s-7.548-.715-10.576-6.288c-.98-1.8-2.722-9.528-5.574-9.12-4.138.626-14.292,2.253-14.292,2.253Z" transform="translate(-129.069 -119.886)" fill="#dd6a57"/>
      <path id="Caminho_551" data-name="Caminho 551" d="M199.72,223.208c1.068-.279,1.443-.381,2.518-.647s2.144-.5,3.233-.681a8.521,8.521,0,0,1,2.872-.211,4.254,4.254,0,0,1,2.307,1.4c1.409,1.538,1.906,3.777,2.525,5.71.681,2.164,2.484,6.261,5.016,8.126a6.173,6.173,0,0,0,2.273,1.164,3.825,3.825,0,0,0,1.885.122c2.552-.789,3.063-3.866,3.035-6.4-.054-4.764-1.565-9.528-3.294-13.877-.422-1.068-.871-2.13-1.32-3.192a9.3,9.3,0,0,0-2.042-3.348c-1.6-1.477-5.71-2.239-6.983-2.491-.1,0-.048-.163.048-.143,1.545.279,5.812.5,8.289,2.995a10.7,10.7,0,0,1,1.865,3.362c.5,1.157,1.062,2.443,1.538,3.689a49.347,49.347,0,0,1,2.28,7.411,20.769,20.769,0,0,1,.558,7.486,6.078,6.078,0,0,1-3.927,4.873c-1.776.538-3.546-.558-4.322-1.1a10.448,10.448,0,0,1-2.042-1.885,43.182,43.182,0,0,1-3.28-5.356c-.9-1.838-1.3-3.934-2.348-5.69a3.668,3.668,0,0,0-2.219-1.769,9.67,9.67,0,0,0-2.872,0,29.947,29.947,0,0,0-5.445.721C199.4,223.6,199.271,223.3,199.72,223.208Z" transform="translate(-134.944 -120.196)" fill="#263238"/>
      <path id="Caminho_552" data-name="Caminho 552" d="M173.44,207.558c1.8-1.062,12.046-7.486,16.075-8.616s19.777-3.314,22.928.272c3.961,4.512-7.867,8.276-13.162,9.439s-9.964,7.092-9.964,7.092Z" transform="translate(-126.638 -116.525)" fill="#dd6a57"/>
      <path id="Caminho_553" data-name="Caminho 553" d="M214.987,210.349a53.761,53.761,0,0,0-5.268,1.239,34.373,34.373,0,0,0-4.927,1.45,15.544,15.544,0,0,0-4.165,2.845c-.619.565-1.191,1.157-1.756,1.769s-1.177,1.4-1.8,2.042c-.068.068,0,.184.1.109a39.2,39.2,0,0,1,3.811-3.219,21,21,0,0,1,4.417-2.634c3.137-1.361,6.52-2.042,9.664-3.4C215.191,210.513,215.109,210.329,214.987,210.349Z" transform="translate(-134.177 -120.711)" fill="#263238"/>
      <path id="Caminho_554" data-name="Caminho 554" d="M234.41,251.006a7.807,7.807,0,0,0,4.015,1.3,3.1,3.1,0,0,0,1.708-.572,3.056,3.056,0,0,0,.681-.681,1.47,1.47,0,0,0,.354-.946c0-.1.129-.088.109,0a4.157,4.157,0,0,0-.054.585,2.374,2.374,0,0,1-.136.476,2.47,2.47,0,0,1-.524.817,3.178,3.178,0,0,1-1.885.932,5.354,5.354,0,0,1-4.342-1.8.069.069,0,0,1,.075-.116Z" transform="translate(-146.08 -133.389)" fill="#263238"/>
      <path id="Caminho_555" data-name="Caminho 555" d="M188.657,227.511a60.8,60.8,0,0,0-4.015,6.67,26.794,26.794,0,0,0-2.4,7.262,46,46,0,0,0-.143,8.221,23.641,23.641,0,0,1-.157,3.927,16,16,0,0,1-.858,3.321,15.653,15.653,0,0,1-4.553,6.207c-.075.068,0,.191.109.136a15.8,15.8,0,0,0,6.738-11.57c.245-2.818-.231-5.642,0-8.466a30.149,30.149,0,0,1,1.688-7.527,47.537,47.537,0,0,1,3.682-8.167.048.048,0,0,0-.1-.014Z" transform="translate(-127.618 -126.18)" fill="#263238"/>
      <path id="Caminho_556" data-name="Caminho 556" d="M142.114,221.243a122.825,122.825,0,0,0-15.061,10.828,82.159,82.159,0,0,0-12.931,13.244,55.631,55.631,0,0,0-5.485,8.847c-.034.061.054.109.1.048a69.678,69.678,0,0,1,5.247-7.588,83.911,83.911,0,0,1,6.064-6.853,124.02,124.02,0,0,1,14.081-12.08c2.8-2.11,5.376-4.124,8.167-6.241C142.549,221.243,142.413,221.053,142.114,221.243Z" transform="translate(-105.936 -124.166)" fill="#263238"/>
      <path id="Caminho_557" data-name="Caminho 557" d="M273.3,412.47c-.048.279-.1.558-.157.844.048-.279.1-.565.15-.844Z" transform="translate(-158.485 -185.275)" fill="#ebebeb"/>
    </g>
    <g id="freepik--Plant--inject-89" transform="translate(45.381 181.628)">
      <path id="Caminho_558" data-name="Caminho 558" d="M104.838,301.844c-9.195,12.448-18.777,26.9-21.1,42.508,0,.231.354.313.408.075a92.033,92.033,0,0,1,4.083-12.5c6.043-1.667,11.971-3.029,15.149-9.031,3.233-6.166,2.824-14.2,2.212-20.921A.435.435,0,0,0,104.838,301.844Z" transform="translate(-58.164 -277.994)" fill="#2784ff"/>
      <path id="Caminho_559" data-name="Caminho 559" d="M90.412,333.7c4.131-9.263,9.433-18.566,16.17-26.188.048-.054.116,0,.075.075a111.9,111.9,0,0,0-11.039,17.348c3.042-3.09,6.377-5.853,9.263-9.133.054-.061.15,0,.1.1-2.865,3.4-5.989,7.166-9.719,9.712q-1.511,2.763-3.035,5.547c.252-.143.51-.265.769-.395.041,0,.082.048.041.068-.286.143-.572.3-.864.422-.483.878-.96,1.749-1.463,2.627C90.6,334.031,90.323,333.861,90.412,333.7Z" transform="translate(-60.29 -279.849)" fill="#263238"/>
      <path id="Caminho_560" data-name="Caminho 560" d="M94.916,338.983a53.211,53.211,0,0,0,7.051-4.71c.061-.048.15.034.088.089a37.473,37.473,0,0,1-7.037,4.764A.089.089,0,1,1,94.916,338.983Z" transform="translate(-61.718 -288.401)" fill="#263238"/>
      <path id="Caminho_561" data-name="Caminho 561" d="M81.85,330.934c0,.191.34.184.333,0,.048-5.145,0-10.311.082-15.476,1.32-2.654,4.145-4.124,6.125-6.254a27.653,27.653,0,0,0,3.668-5.111,36.751,36.751,0,0,0,4.254-14.183c.544-5.5-1.545-23.643-3.866-23.017-1.2.327-5.091,9.317-6.125,12.291a85.35,85.35,0,0,0-3.655,15.068C80.775,306.311,80.931,318.738,81.85,330.934Z" transform="translate(-57.35 -266.877)" fill="#2784ff"/>
      <path id="Caminho_562" data-name="Caminho 562" d="M82.077,310.22h0c.279-6.506,1.749-13.074,3.117-19.383,1.477-6.806,3.205-13.2,6.7-19.26.068-.116.231,0,.177.1a71.535,71.535,0,0,0-5.39,14.782c.238-.368.524-.715.762-1.062.1-.136.32,0,.231.136a9.527,9.527,0,0,1-1.1,1.538.061.061,0,0,1-.048,0c-1.2,4.859-2.042,9.827-2.8,14.789l.163-.191a.048.048,0,0,1,.075.054c-.088.163-.2.327-.293.49-.374,2.518-.721,5.029-1.068,7.52,4.505-3.859,8.337-8.344,10.494-13.9h.041c-2.117,5.764-5.445,10.889-10.576,14.394l-.286,2.008c0,.136-.238.1-.238-.034,0-.592,0-1.184.054-1.776A.119.119,0,0,1,82.077,310.22Z" transform="translate(-57.618 -268.363)" fill="#263238"/>
      <path id="Caminho_563" data-name="Caminho 563" d="M85.192,307.139a106.048,106.048,0,0,0,9.133-15.721c0-.061.136,0,.109.048a50.993,50.993,0,0,1-9.065,15.8C85.288,307.364,85.124,307.241,85.192,307.139Z" transform="translate(-58.623 -274.708)" fill="#263238"/>
      <path id="Caminho_564" data-name="Caminho 564" d="M91.881,286.053c1.416-2.511,2.913-4.955,4.247-7.486.041-.068.136,0,.109.061A38.93,38.93,0,0,1,92.1,286.2C92,286.339,91.8,286.2,91.881,286.053Z" transform="translate(-60.759 -270.602)" fill="#263238"/>
      <path id="Caminho_565" data-name="Caminho 565" d="M91.069,291.18v.041S91.014,291.18,91.069,291.18Z" transform="translate(-60.498 -274.64)" fill="#263238"/>
      <path id="Caminho_566" data-name="Caminho 566" d="M70.275,319.664A51.587,51.587,0,0,1,69.1,329.791c.054.368.1.735.157,1.109a48.205,48.205,0,0,0,1.817-11.318.347.347,0,0,0,0-.347h0a74.9,74.9,0,0,0-1.123-15.306c-1.593-9.453-5.07-18.518-11.658-25.6a.47.47,0,0,0-.728.15c-2.661,6.765-1.735,14.83.531,21.574A39.473,39.473,0,0,0,63.326,310.3C65.586,313.505,68.472,316.18,70.275,319.664Z" transform="translate(-49.287 -270.498)" fill="#2784ff"/>
      <path id="Caminho_567" data-name="Caminho 567" d="M60.428,283.048c6.248,10.161,10.59,22.153,11.121,34.124,0,.218-.347.272-.374.054-.15-1.075-.313-2.144-.483-3.205h0a41.516,41.516,0,0,1-7.085-8.167c0-.054.048-.116.088-.068a87.48,87.48,0,0,0,6.881,7.486q-.681-3.975-1.6-7.82c-.17-.191-.333-.388-.5-.585s.075-.306.184-.184.1.116.15.17a90.7,90.7,0,0,0-3.26-10.372c-1.593-1.892-3.369-3.532-4.526-5.819,0-.054.048-.1.082-.048.932,1.307,1.831,2.62,2.886,3.832.422.483.885.939,1.32,1.409A80.745,80.745,0,0,0,60.2,283.2a.136.136,0,0,1,.225-.15Z" transform="translate(-50.642 -272.027)" fill="#263238"/>
      <path id="Caminho_568" data-name="Caminho 568" d="M62.33,301.425c2.042,2.722,4.315,5.308,6.193,8.119.054.082-.061.163-.129.1a41.148,41.148,0,0,1-6.2-8.167C62.139,301.418,62.269,301.35,62.33,301.425Z" transform="translate(-51.278 -277.902)" fill="#263238"/>
      <path id="Caminho_569" data-name="Caminho 569" d="M71.866,314.282l.082.088c.061.061-.034.15-.088.1l-.088-.088C71.709,314.316,71.8,314.228,71.866,314.282Z" transform="translate(-54.335 -282.014)" fill="#263238"/>
      <path id="Caminho_570" data-name="Caminho 570" d="M46.167,311.415a31.025,31.025,0,0,0,6.588,15.463A16.456,16.456,0,0,0,58.1,331.05c2.314,1.143,4.764,2.464,7.132,3.4a46.77,46.77,0,0,1,2.525,8.97c.082-.259.157-.531.231-.8-1.538-13.2-10.079-24.5-21.009-31.728a.524.524,0,0,0-.81.517Z" transform="translate(-46.16 -280.91)" fill="#2784ff"/>
      <path id="Caminho_571" data-name="Caminho 571" d="M51.7,317.356a.092.092,0,0,1,.116-.143,44.74,44.74,0,0,1,13.924,17.164c.075.177-.17.333-.272.157-.51-.892-1.028-1.756-1.552-2.607h0c-2.5-.47-4.859-2.225-6.71-3.893-.048-.041,0-.116.075-.068a15.368,15.368,0,0,0,3.151,2.212c1.021.517,2.117.844,3.171,1.259-.926-1.47-1.885-2.879-2.892-4.24a29.108,29.108,0,0,1-7.486-4.213c-.075-.054,0-.17.068-.122a75.381,75.381,0,0,0,6.955,3.729,63.044,63.044,0,0,0-4.948-5.737c-.851-.449-1.708-.9-2.532-1.361-.068-.034,0-.15.054-.129a9.347,9.347,0,0,1,1.94.96C53.8,319.3,52.785,318.315,51.7,317.356Z" transform="translate(-47.919 -282.951)" fill="#263238"/>
      <path id="Caminho_572" data-name="Caminho 572" d="M52,324.125a2.754,2.754,0,0,1,.422.3c.041.034,0,.089-.054.068a3.081,3.081,0,0,1-.436-.245C51.86,324.2,51.928,324.077,52,324.125Z" transform="translate(-47.995 -285.16)" fill="#263238"/>
      <path id="Caminho_573" data-name="Caminho 573" d="M89.235,385.117H59.29l2.416-27.27.531-6.016H86.288l.531,6.016Z" transform="translate(-50.354 -294.013)" fill="#455a64"/>
      <path id="Caminho_574" data-name="Caminho 574" d="M87.953,357.846H62.84l.531-6.016H87.422Z" transform="translate(-51.488 -294.013)" fill="#263238"/>
      <rect id="Retângulo_186" data-name="Retângulo 186" width="26.917" height="5.955" transform="translate(10.453 53.617)" fill="#455a64"/>
    </g>
    <g id="freepik--piggy-bank--inject-89" transform="translate(110.055 183.327)">
      <path id="Caminho_575" data-name="Caminho 575" d="M159.082,316.908c.225-1.157.361-2.191.476-3.294a29.9,29.9,0,0,0,.163-3.321,18.908,18.908,0,0,0-.3-3.444,8.35,8.35,0,0,0-1.538-3.634,4.839,4.839,0,0,0-1.851-1.388,4.621,4.621,0,0,0-1.123-.313,5.327,5.327,0,0,0-1.089-.048,6.547,6.547,0,0,0-3.668,1.477,10.092,10.092,0,0,0-2.348,2.688,9.167,9.167,0,0,0-1.286,3.321,3.981,3.981,0,0,0,.163,2.11,2.307,2.307,0,0,0,.851,1.075,2.478,2.478,0,0,0,1.232.408,2.341,2.341,0,0,0,1.293-.313,2.722,2.722,0,0,0,.837-.83,4.825,4.825,0,0,0,.681-1.763,9.773,9.773,0,0,0,0-3.362,7.943,7.943,0,0,0-1.191-3.124,3.75,3.75,0,0,0-1.293-1.211,2.722,2.722,0,0,0-1.769-.293,5.349,5.349,0,0,0-2.811,1.647,17.8,17.8,0,0,0-3.321,5.288,17.654,17.654,0,0,1,3.661-4.921,4.621,4.621,0,0,1,2.559-1.259,2.185,2.185,0,0,1,2.042,1.314,6.839,6.839,0,0,1,.742,2.722,8.4,8.4,0,0,1-.238,2.818,3.157,3.157,0,0,1-.517,1.1.749.749,0,0,1-.286.225.279.279,0,0,1-.2,0,.3.3,0,0,1-.218-.109.552.552,0,0,1-.061-.157,2.218,2.218,0,0,1,.068-.953,7.8,7.8,0,0,1,3.09-4.138,3.58,3.58,0,0,1,2.042-.681,2.524,2.524,0,0,1,.463.068,1.539,1.539,0,0,1,.354.143,1.477,1.477,0,0,1,.517.51,5.07,5.07,0,0,1,.619,2.13,15.452,15.452,0,0,1,0,2.722,28.191,28.191,0,0,1-.388,2.872,23.556,23.556,0,0,1-.681,2.811Z" transform="translate(-141.19 -279.621)" fill="#2784ff"/>
      <path id="Caminho_576" data-name="Caminho 576" d="M159.082,316.908c.225-1.157.361-2.191.476-3.294a29.9,29.9,0,0,0,.163-3.321,18.908,18.908,0,0,0-.3-3.444,8.35,8.35,0,0,0-1.538-3.634,4.839,4.839,0,0,0-1.851-1.388,4.621,4.621,0,0,0-1.123-.313,5.327,5.327,0,0,0-1.089-.048,6.547,6.547,0,0,0-3.668,1.477,10.092,10.092,0,0,0-2.348,2.688,9.167,9.167,0,0,0-1.286,3.321,3.981,3.981,0,0,0,.163,2.11,2.307,2.307,0,0,0,.851,1.075,2.478,2.478,0,0,0,1.232.408,2.341,2.341,0,0,0,1.293-.313,2.722,2.722,0,0,0,.837-.83,4.825,4.825,0,0,0,.681-1.763,9.773,9.773,0,0,0,0-3.362,7.943,7.943,0,0,0-1.191-3.124,3.75,3.75,0,0,0-1.293-1.211,2.722,2.722,0,0,0-1.769-.293,5.349,5.349,0,0,0-2.811,1.647,17.8,17.8,0,0,0-3.321,5.288,17.654,17.654,0,0,1,3.661-4.921,4.621,4.621,0,0,1,2.559-1.259,2.185,2.185,0,0,1,2.042,1.314,6.839,6.839,0,0,1,.742,2.722,8.4,8.4,0,0,1-.238,2.818,3.157,3.157,0,0,1-.517,1.1.749.749,0,0,1-.286.225.279.279,0,0,1-.2,0,.3.3,0,0,1-.218-.109.552.552,0,0,1-.061-.157,2.218,2.218,0,0,1,.068-.953,7.8,7.8,0,0,1,3.09-4.138,3.58,3.58,0,0,1,2.042-.681,2.524,2.524,0,0,1,.463.068,1.539,1.539,0,0,1,.354.143,1.477,1.477,0,0,1,.517.51,5.07,5.07,0,0,1,.619,2.13,15.452,15.452,0,0,1,0,2.722,28.191,28.191,0,0,1-.388,2.872,23.556,23.556,0,0,1-.681,2.811Z" transform="translate(-141.19 -279.621)" opacity="0.1"/>
      <path id="Caminho_577" data-name="Caminho 577" d="M172.55,398.46c3,4.24,2.389,17.191,4.206,19.008s20.417,1.62,21.7.551.681-5.642,2.042-6.391C201.073,411.33,172.55,398.46,172.55,398.46Z" transform="translate(-151.207 -310.607)" fill="#2784ff"/>
      <path id="Caminho_578" data-name="Caminho 578" d="M172.55,398.46c3,4.24,2.389,17.191,4.206,19.008s20.417,1.62,21.7.551.681-5.642,2.042-6.391C201.073,411.33,172.55,398.46,172.55,398.46Z" transform="translate(-151.207 -310.607)" opacity="0.1"/>
      <path id="Caminho_579" data-name="Caminho 579" d="M276.876,398.77c-3.75,5.445-1.722,17.014-3.539,18.8s-20.417,1.62-21.7.551-.681-5.887-1.422-6.806C249.83,410.83,276.876,398.77,276.876,398.77Z" transform="translate(-176.016 -310.706)" fill="#2784ff"/>
      <path id="Caminho_580" data-name="Caminho 580" d="M276.876,398.77c-3.75,5.445-1.722,17.014-3.539,18.8s-20.417,1.62-21.7.551-.681-5.887-1.422-6.806C249.83,410.83,276.876,398.77,276.876,398.77Z" transform="translate(-176.016 -310.706)" opacity="0.1"/>
      <path id="Caminho_581" data-name="Caminho 581" d="M200.521,411.639a2.042,2.042,0,0,0-.8,1.361,88.6,88.6,0,0,1-24.936-6.676c-.436-3.158-1.055-6.166-2.232-7.833C172.55,398.476,201.073,411.346,200.521,411.639Z" transform="translate(-151.207 -310.617)" opacity="0.3"/>
      <path id="Caminho_582" data-name="Caminho 582" d="M276.879,398.77c-1.4,2.042-1.994,4.893-2.287,7.8a84.638,84.638,0,0,1-23.956,6.622,4.186,4.186,0,0,0-.408-1.878C249.826,410.83,276.879,398.77,276.879,398.77Z" transform="translate(-176.019 -310.706)" opacity="0.3"/>
      <path id="Caminho_583" data-name="Caminho 583" d="M204.825,283.44c-37.431,0-51.8,29.326-51.8,46.49,0,16.933,10.889,45.707,51.8,45.707s54.48-24.378,54.48-46.1S242.671,283.44,204.825,283.44Z" transform="translate(-144.969 -273.866)" fill="#2784ff"/>
      <path id="Caminho_584" data-name="Caminho 584" d="M204.825,283.44c-37.431,0-51.8,29.326-51.8,46.49,0,16.933,10.889,45.707,51.8,45.707s54.48-24.378,54.48-46.1S242.671,283.44,204.825,283.44Z" transform="translate(-144.969 -273.866)" opacity="0.1"/>
      <path id="Caminho_585" data-name="Caminho 585" d="M244.67,281.07s17.11-13.121,35.641-11.57c6.377.538-4.213,14.367-4.41,25.181Z" transform="translate(-174.245 -269.373)" fill="#2784ff"/>
      <path id="Caminho_586" data-name="Caminho 586" d="M244.67,281.07s17.11-13.121,35.641-11.57c6.377.538-4.213,14.367-4.41,25.181Z" transform="translate(-174.245 -269.373)" opacity="0.1"/>
      <path id="Caminho_587" data-name="Caminho 587" d="M280.059,291.614c-.109.681,5.8,3.212,6.411,2.824s1.225-8.9,6.043-17.96C293.221,275.145,281.2,284.278,280.059,291.614Z" transform="translate(-185.549 -271.601)" opacity="0.3"/>
      <path id="Caminho_588" data-name="Caminho 588" d="M283.321,343.327a3.042,3.042,0,0,0,2.457-2.144,4.533,4.533,0,0,1-1.994,3.4c-.082.054-.041.211.068.177,3.274-1.232,2.92-5.853,1.77-8.8-.061-.163-.122-.327-.2-.483-.735-1.708-2.042-2.947-3.621-2.722C276.515,333.52,278.421,344.035,283.321,343.327Z" transform="translate(-185.094 -289.611)" opacity="0.3"/>
      <path id="Caminho_589" data-name="Caminho 589" d="M302.416,326.3c.817,2.457,8.248.463,10.12,2.042,2.947,2.45,2.13,32.8-.565,35.24-1.511,1.361-9.936-.075-12.3,1.593S302.416,326.3,302.416,326.3Z" transform="translate(-191.612 -287.557)" fill="#2784ff"/>
      <path id="Caminho_590" data-name="Caminho 590" d="M302.416,326.3c.817,2.457,8.248.463,10.12,2.042,2.947,2.45,2.13,32.8-.565,35.24-1.511,1.361-9.936-.075-12.3,1.593S302.416,326.3,302.416,326.3Z" transform="translate(-191.612 -287.557)" opacity="0.1"/>
      <path id="Caminho_591" data-name="Caminho 591" d="M318.212,347.787c0,7.391-.619,13.387-1.361,13.387s-1.361-6-1.361-13.387.612-13.387,1.361-13.387S318.212,340.4,318.212,347.787Z" transform="translate(-196.867 -290.144)" opacity="0.3"/>
      <path id="Caminho_592" data-name="Caminho 592" d="M207.139,294.626c.122-.041,12.754-4.145,24.5-.932l1.171-4.281c-13.081-3.58-26.542.817-27.08,1l1.4,4.213-.681-2.1Z" transform="translate(-161.806 -275.327)" opacity="0.3"/>
      <path id="Caminho_593" data-name="Caminho 593" d="M174.894,370.458c-16.871-19.389-6.547-41.9-6.077-42.876a2.777,2.777,0,0,0-4.982-2.443,46.959,46.959,0,0,0-3.981,16.164c-.81,12.332,3.267,23.657,12.931,31.367C175.7,375,177.085,372.955,174.894,370.458Z" transform="translate(-147.119 -286.722)" fill="#fff"/>
      <path id="Caminho_594" data-name="Caminho 594" d="M171.24,315.355a3.022,3.022,0,1,0,3.022-3.015A3.022,3.022,0,0,0,171.24,315.355Z" transform="translate(-150.789 -283.098)" fill="#fff"/>
    </g>
    <g id="freepik--Coins--inject-89" transform="translate(87.802 260.536)">
      <rect id="Retângulo_187" data-name="Retângulo 187" width="21.336" height="4.716" transform="translate(171.264 26.379)" fill="#2784ff"/>
      <g id="Grupo_105" data-name="Grupo 105" transform="translate(171.804 26.808)" opacity="0.1">
        <path id="Caminho_595" data-name="Caminho 595" d="M361.271,422.21a5.445,5.445,0,0,1,0,3.777A5.445,5.445,0,0,1,361.271,422.21Z" transform="translate(-360.933 -422.21)"/>
        <path id="Caminho_596" data-name="Caminho 596" d="M363.6,422.21a5.445,5.445,0,0,1,0,3.777A5.445,5.445,0,0,1,363.6,422.21Z" transform="translate(-361.678 -422.21)"/>
        <path id="Caminho_597" data-name="Caminho 597" d="M364.741,422.21a5.445,5.445,0,0,1,0,3.777A5.445,5.445,0,0,1,364.741,422.21Z" transform="translate(-362.042 -422.21)"/>
        <path id="Caminho_598" data-name="Caminho 598" d="M371.011,422.21a5.513,5.513,0,0,1,0,3.777,5.445,5.445,0,0,1,0-3.777Z" transform="translate(-364.045 -422.21)"/>
        <path id="Caminho_599" data-name="Caminho 599" d="M372.7,422.21a5.017,5.017,0,0,1,.34,1.892,4.872,4.872,0,0,1-.34,1.885,4.764,4.764,0,0,1-.34-1.885,5.016,5.016,0,0,1,.34-1.892Z" transform="translate(-364.583 -422.21)"/>
        <path id="Caminho_600" data-name="Caminho 600" d="M379.7,422.21a5.445,5.445,0,0,1,0,3.777A5.445,5.445,0,0,1,379.7,422.21Z" transform="translate(-366.82 -422.21)"/>
        <path id="Caminho_601" data-name="Caminho 601" d="M381.321,422.21a5.445,5.445,0,0,1,0,3.777A5.445,5.445,0,0,1,381.321,422.21Z" transform="translate(-367.338 -422.21)"/>
        <path id="Caminho_602" data-name="Caminho 602" d="M384.293,422.21a5.445,5.445,0,0,1,0,3.777A5.513,5.513,0,0,1,384.293,422.21Z" transform="translate(-368.289 -422.21)"/>
        <path id="Caminho_603" data-name="Caminho 603" d="M378.347,422.21a4.886,4.886,0,0,1,.333,1.9,4.764,4.764,0,0,1-.34,1.885,4.873,4.873,0,0,1-.34-1.885A5.016,5.016,0,0,1,378.347,422.21Z" transform="translate(-366.384 -422.21)"/>
        <path id="Caminho_604" data-name="Caminho 604" d="M366.841,422.21a5.444,5.444,0,0,1,0,3.777A5.445,5.445,0,0,1,366.841,422.21Z" transform="translate(-362.713 -422.21)"/>
        <path id="Caminho_605" data-name="Caminho 605" d="M374.93,422.21a5.444,5.444,0,0,1,0,3.777,4.765,4.765,0,0,1-.34-1.885,4.887,4.887,0,0,1,.34-1.892Z" transform="translate(-365.295 -422.21)"/>
        <path id="Caminho_606" data-name="Caminho 606" d="M376.1,422.21a5.444,5.444,0,0,1,0,3.777A5.445,5.445,0,0,1,376.1,422.21Z" transform="translate(-365.67 -422.21)"/>
        <path id="Caminho_607" data-name="Caminho 607" d="M388.17,422.21a5.016,5.016,0,0,1,.34,1.892,4.873,4.873,0,0,1-.34,1.885,4.765,4.765,0,0,1-.34-1.885A4.887,4.887,0,0,1,388.17,422.21Z" transform="translate(-369.524 -422.21)"/>
        <path id="Caminho_608" data-name="Caminho 608" d="M389.92,422.21a5.016,5.016,0,0,1,.34,1.892,4.764,4.764,0,0,1-.34,1.885,4.873,4.873,0,0,1-.34-1.885A5.015,5.015,0,0,1,389.92,422.21Z" transform="translate(-370.083 -422.21)"/>
        <path id="Caminho_609" data-name="Caminho 609" d="M385.671,422.21a5.445,5.445,0,0,1,0,3.777A5.445,5.445,0,0,1,385.671,422.21Z" transform="translate(-368.727 -422.21)"/>
        <path id="Caminho_610" data-name="Caminho 610" d="M369.651,422.21a4.887,4.887,0,0,1,.34,1.892,4.763,4.763,0,0,1-.34,1.885A5.445,5.445,0,0,1,369.651,422.21Z" transform="translate(-363.61 -422.21)"/>
      </g>
      <path id="Caminho_611" data-name="Caminho 611" d="M381.473,421.58v1l-21.343.674V421.58Z" transform="translate(-188.873 -395.201)" opacity="0.1"/>
      <rect id="Retângulo_188" data-name="Retângulo 188" width="21.336" height="4.716" transform="translate(169.481 21.663)" fill="#2784ff"/>
      <g id="Grupo_106" data-name="Grupo 106" transform="translate(170.017 22.098)" opacity="0.1">
        <path id="Caminho_612" data-name="Caminho 612" d="M387.3,419.06a5.39,5.39,0,0,1,0-3.77A5.39,5.39,0,0,1,387.3,419.06Z" transform="translate(-367.461 -415.29)"/>
        <path id="Caminho_613" data-name="Caminho 613" d="M384.97,419.06a4.853,4.853,0,0,1-.34-1.885,4.71,4.71,0,0,1,.34-1.885,4.832,4.832,0,0,1,.34,1.885,4.983,4.983,0,0,1-.34,1.885Z" transform="translate(-366.716 -415.29)"/>
        <path id="Caminho_614" data-name="Caminho 614" d="M383.84,419.06a5.39,5.39,0,0,1,0-3.77A5.39,5.39,0,0,1,383.84,419.06Z" transform="translate(-366.355 -415.29)"/>
        <path id="Caminho_615" data-name="Caminho 615" d="M377.57,419.06a5.39,5.39,0,0,1,0-3.77,5.39,5.39,0,0,1,0,3.77Z" transform="translate(-364.352 -415.29)"/>
        <path id="Caminho_616" data-name="Caminho 616" d="M375.84,419.06a4.981,4.981,0,0,1-.34-1.885,4.832,4.832,0,0,1,.34-1.885,4.709,4.709,0,0,1,.34,1.885A4.853,4.853,0,0,1,375.84,419.06Z" transform="translate(-363.799 -415.29)"/>
        <path id="Caminho_617" data-name="Caminho 617" d="M368.84,419.06a5.39,5.39,0,0,1,0-3.77A5.39,5.39,0,0,1,368.84,419.06Z" transform="translate(-361.564 -415.29)"/>
        <path id="Caminho_618" data-name="Caminho 618" d="M367.25,419.06a4.853,4.853,0,0,1-.34-1.885,4.71,4.71,0,0,1,.34-1.885A5.39,5.39,0,0,1,367.25,419.06Z" transform="translate(-361.055 -415.29)"/>
        <path id="Caminho_619" data-name="Caminho 619" d="M364.28,419.06a5.39,5.39,0,0,1,0-3.77,5.39,5.39,0,0,1,0,3.77Z" transform="translate(-360.107 -415.29)"/>
        <path id="Caminho_620" data-name="Caminho 620" d="M370.22,419.06a4.981,4.981,0,0,1-.34-1.885,4.71,4.71,0,0,1,.34-1.885,4.833,4.833,0,0,1,.34,1.885,4.982,4.982,0,0,1-.34,1.885Z" transform="translate(-362.004 -415.29)"/>
        <path id="Caminho_621" data-name="Caminho 621" d="M381.76,419.06a4.853,4.853,0,0,1-.34-1.885,4.709,4.709,0,0,1,.34-1.885,5.39,5.39,0,0,1,0,3.77Z" transform="translate(-365.69 -415.29)"/>
        <path id="Caminho_622" data-name="Caminho 622" d="M373.64,419.06a5.39,5.39,0,0,1,0-3.77,5.39,5.39,0,0,1,0,3.77Z" transform="translate(-363.097 -415.29)"/>
        <path id="Caminho_623" data-name="Caminho 623" d="M372.48,419.06a5.39,5.39,0,0,1,0-3.77,5.492,5.492,0,0,1,0,3.77Z" transform="translate(-362.727 -415.29)"/>
        <path id="Caminho_624" data-name="Caminho 624" d="M360.4,419.06a5.39,5.39,0,0,1,0-3.77,4.71,4.71,0,0,1,.34,1.885A4.852,4.852,0,0,1,360.4,419.06Z" transform="translate(-358.868 -415.29)"/>
        <path id="Caminho_625" data-name="Caminho 625" d="M358.65,419.06a4.982,4.982,0,0,1-.34-1.885,4.832,4.832,0,0,1,.34-1.885,4.709,4.709,0,0,1,.34,1.885,4.852,4.852,0,0,1-.34,1.885Z" transform="translate(-358.308 -415.29)"/>
        <path id="Caminho_626" data-name="Caminho 626" d="M362.9,419.06a5.39,5.39,0,0,1,0-3.77A5.39,5.39,0,0,1,362.9,419.06Z" transform="translate(-359.666 -415.29)"/>
        <path id="Caminho_627" data-name="Caminho 627" d="M378.919,419.06a4.853,4.853,0,0,1-.34-1.885,4.709,4.709,0,0,1,.34-1.885,4.832,4.832,0,0,1,.34,1.885,4.983,4.983,0,0,1-.34,1.885Z" transform="translate(-364.783 -415.29)"/>
      </g>
      <path id="Caminho_628" data-name="Caminho 628" d="M378.856,414.65v1l-21.336.674V414.65Z" transform="translate(-188.039 -392.987)" opacity="0.1"/>
      <rect id="Retângulo_189" data-name="Retângulo 189" width="21.336" height="4.716" transform="translate(171.121 16.987)" fill="#2784ff"/>
      <g id="Grupo_107" data-name="Grupo 107" transform="translate(171.667 17.416)" opacity="0.1">
        <path id="Caminho_629" data-name="Caminho 629" d="M361.071,408.41a5.445,5.445,0,0,1,0,3.777A5.444,5.444,0,0,1,361.071,408.41Z" transform="translate(-360.733 -408.41)"/>
        <path id="Caminho_630" data-name="Caminho 630" d="M363.4,408.41a4.886,4.886,0,0,1,.34,1.892,4.764,4.764,0,0,1-.34,1.885A5.445,5.445,0,0,1,363.4,408.41Z" transform="translate(-361.478 -408.41)"/>
        <path id="Caminho_631" data-name="Caminho 631" d="M364.541,408.41a5.445,5.445,0,0,1,0,3.777A5.445,5.445,0,0,1,364.541,408.41Z" transform="translate(-361.842 -408.41)"/>
        <path id="Caminho_632" data-name="Caminho 632" d="M370.841,408.41a5.445,5.445,0,0,1,0,3.777A5.445,5.445,0,0,1,370.841,408.41Z" transform="translate(-363.854 -408.41)"/>
        <path id="Caminho_633" data-name="Caminho 633" d="M372.5,408.41a5.016,5.016,0,0,1,.34,1.892,4.872,4.872,0,0,1-.34,1.885,4.764,4.764,0,0,1-.34-1.885A4.887,4.887,0,0,1,372.5,408.41Z" transform="translate(-364.383 -408.41)"/>
        <path id="Caminho_634" data-name="Caminho 634" d="M379.5,408.41a5.445,5.445,0,0,1,0,3.777A5.444,5.444,0,0,1,379.5,408.41Z" transform="translate(-366.62 -408.41)"/>
        <path id="Caminho_635" data-name="Caminho 635" d="M381.121,408.41a5.445,5.445,0,0,1,0,3.777A5.445,5.445,0,0,1,381.121,408.41Z" transform="translate(-367.138 -408.41)"/>
        <path id="Caminho_636" data-name="Caminho 636" d="M384.091,408.41a5.444,5.444,0,0,1,0,3.777A5.445,5.445,0,0,1,384.091,408.41Z" transform="translate(-368.087 -408.41)"/>
        <path id="Caminho_637" data-name="Caminho 637" d="M378.15,408.41a5.016,5.016,0,0,1,.34,1.892,4.764,4.764,0,0,1-.34,1.885,4.872,4.872,0,0,1-.34-1.885,5.015,5.015,0,0,1,.34-1.892Z" transform="translate(-366.188 -408.41)"/>
        <path id="Caminho_638" data-name="Caminho 638" d="M366.611,408.41a5.445,5.445,0,0,1,0,3.777A5.444,5.444,0,0,1,366.611,408.41Z" transform="translate(-362.503 -408.41)"/>
        <path id="Caminho_639" data-name="Caminho 639" d="M374.731,408.41a5.445,5.445,0,0,1,0,3.777A5.445,5.445,0,0,1,374.731,408.41Z" transform="translate(-365.097 -408.41)"/>
        <path id="Caminho_640" data-name="Caminho 640" d="M375.9,408.41a5.513,5.513,0,0,1,0,3.777A5.444,5.444,0,0,1,375.9,408.41Z" transform="translate(-365.47 -408.41)"/>
        <path id="Caminho_641" data-name="Caminho 641" d="M387.97,408.41a5.445,5.445,0,0,1,0,3.777,4.764,4.764,0,0,1-.34-1.885A4.885,4.885,0,0,1,387.97,408.41Z" transform="translate(-369.324 -408.41)"/>
        <path id="Caminho_642" data-name="Caminho 642" d="M389.72,408.41a5.016,5.016,0,0,1,.34,1.892,4.872,4.872,0,0,1-.34,1.885,4.764,4.764,0,0,1-.34-1.885,5.015,5.015,0,0,1,.34-1.892Z" transform="translate(-369.883 -408.41)"/>
        <path id="Caminho_643" data-name="Caminho 643" d="M385.471,408.41a5.445,5.445,0,0,1,0,3.777A5.445,5.445,0,0,1,385.471,408.41Z" transform="translate(-368.527 -408.41)"/>
        <path id="Caminho_644" data-name="Caminho 644" d="M369.45,408.41a4.886,4.886,0,0,1,.34,1.892,4.763,4.763,0,0,1-.34,1.885,4.873,4.873,0,0,1-.34-1.885,5.015,5.015,0,0,1,.34-1.892Z" transform="translate(-363.409 -408.41)"/>
      </g>
      <path id="Caminho_645" data-name="Caminho 645" d="M381.273,407.78v1l-21.343.674V407.78Z" transform="translate(-188.809 -390.793)" opacity="0.1"/>
      <rect id="Retângulo_190" data-name="Retângulo 190" width="21.336" height="4.716" transform="translate(15.216 23.541)" fill="#2784ff"/>
      <g id="Grupo_108" data-name="Grupo 108" transform="translate(15.756 23.942)" opacity="0.1">
        <path id="Caminho_646" data-name="Caminho 646" d="M131.981,418a5.445,5.445,0,0,1,0,3.777A5.445,5.445,0,0,1,131.981,418Z" transform="translate(-131.643 -418)"/>
        <path id="Caminho_647" data-name="Caminho 647" d="M134.32,418a5,5,0,0,1,.34,1.885,4.886,4.886,0,0,1-.34,1.892,4.764,4.764,0,0,1-.34-1.892A4.873,4.873,0,0,1,134.32,418Z" transform="translate(-132.389 -418)"/>
        <path id="Caminho_648" data-name="Caminho 648" d="M135.46,418a5,5,0,0,1,.34,1.885,4.764,4.764,0,0,1-.34,1.892,4.886,4.886,0,0,1-.34-1.892,5,5,0,0,1,.34-1.885Z" transform="translate(-132.753 -418)"/>
        <path id="Caminho_649" data-name="Caminho 649" d="M141.721,418a5.445,5.445,0,0,1,0,3.777A5.445,5.445,0,0,1,141.721,418Z" transform="translate(-134.755 -418)"/>
        <path id="Caminho_650" data-name="Caminho 650" d="M143.421,418a5.445,5.445,0,0,1,0,3.777A5.445,5.445,0,0,1,143.421,418Z" transform="translate(-135.298 -418)"/>
        <path id="Caminho_651" data-name="Caminho 651" d="M150.421,418a4.873,4.873,0,0,1,.34,1.885,4.764,4.764,0,0,1-.34,1.892A5.444,5.444,0,0,1,150.421,418Z" transform="translate(-137.534 -418)"/>
        <path id="Caminho_652" data-name="Caminho 652" d="M152.04,418a5,5,0,0,1,.34,1.885,4.764,4.764,0,0,1-.34,1.892,4.886,4.886,0,0,1-.34-1.892,5,5,0,0,1,.34-1.885Z" transform="translate(-138.05 -418)"/>
        <path id="Caminho_653" data-name="Caminho 653" d="M155.011,418a4.873,4.873,0,0,1,.34,1.885,4.764,4.764,0,0,1-.34,1.892A5.444,5.444,0,0,1,155.011,418Z" transform="translate(-139 -418)"/>
        <path id="Caminho_654" data-name="Caminho 654" d="M149.07,418a5.445,5.445,0,0,1,0,3.777,4.764,4.764,0,0,1-.34-1.892A4.873,4.873,0,0,1,149.07,418Z" transform="translate(-137.101 -418)"/>
        <path id="Caminho_655" data-name="Caminho 655" d="M137.53,418a5,5,0,0,1,.34,1.885,4.886,4.886,0,0,1-.34,1.892,4.764,4.764,0,0,1-.34-1.892A5,5,0,0,1,137.53,418Z" transform="translate(-133.414 -418)"/>
        <path id="Caminho_656" data-name="Caminho 656" d="M145.651,418a5.445,5.445,0,0,1,0,3.777A5.445,5.445,0,0,1,145.651,418Z" transform="translate(-136.01 -418)"/>
        <path id="Caminho_657" data-name="Caminho 657" d="M146.841,418a5.445,5.445,0,0,1,0,3.777A5.445,5.445,0,0,1,146.841,418Z" transform="translate(-136.39 -418)"/>
        <path id="Caminho_658" data-name="Caminho 658" d="M158.891,418a5.445,5.445,0,0,1,0,3.777A5.445,5.445,0,0,1,158.891,418Z" transform="translate(-140.239 -418)"/>
        <path id="Caminho_659" data-name="Caminho 659" d="M160.641,418a5.445,5.445,0,0,1,0,3.777A5.445,5.445,0,0,1,160.641,418Z" transform="translate(-140.798 -418)"/>
        <path id="Caminho_660" data-name="Caminho 660" d="M156.391,418a4.873,4.873,0,0,1,.34,1.885,4.764,4.764,0,0,1-.34,1.892A5.444,5.444,0,0,1,156.391,418Z" transform="translate(-139.441 -418)"/>
        <path id="Caminho_661" data-name="Caminho 661" d="M140.37,418a5,5,0,0,1,.34,1.885,4.886,4.886,0,0,1-.34,1.892,4.763,4.763,0,0,1-.34-1.892,4.873,4.873,0,0,1,.34-1.885Z" transform="translate(-134.322 -418)"/>
      </g>
      <path id="Caminho_662" data-name="Caminho 662" d="M152.193,417.41v1l-21.343.674V417.41Z" transform="translate(-115.634 -393.869)" opacity="0.1"/>
      <rect id="Retângulo_191" data-name="Retângulo 191" width="21.336" height="4.716" transform="translate(13.759 18.825)" fill="#2784ff"/>
      <g id="Grupo_109" data-name="Grupo 109" transform="translate(14.296 19.253)" opacity="0.1">
        <path id="Caminho_663" data-name="Caminho 663" d="M129.84,411.11a5.016,5.016,0,0,1,.34,1.892,4.764,4.764,0,0,1-.34,1.885A4.765,4.765,0,0,1,129.5,413,5.016,5.016,0,0,1,129.84,411.11Z" transform="translate(-129.498 -411.11)"/>
        <path id="Caminho_664" data-name="Caminho 664" d="M132.173,411.11a5.445,5.445,0,0,1,0,3.777A5.513,5.513,0,0,1,132.173,411.11Z" transform="translate(-130.246 -411.11)"/>
        <path id="Caminho_665" data-name="Caminho 665" d="M133.321,411.11a5.444,5.444,0,0,1,0,3.777A5.444,5.444,0,0,1,133.321,411.11Z" transform="translate(-130.611 -411.11)"/>
        <path id="Caminho_666" data-name="Caminho 666" d="M139.58,411.11a5.444,5.444,0,0,1,0,3.777,4.763,4.763,0,0,1-.34-1.885A4.887,4.887,0,0,1,139.58,411.11Z" transform="translate(-132.609 -411.11)"/>
        <path id="Caminho_667" data-name="Caminho 667" d="M141.271,411.11a5.444,5.444,0,0,1,0,3.777A5.444,5.444,0,0,1,141.271,411.11Z" transform="translate(-133.151 -411.11)"/>
        <path id="Caminho_668" data-name="Caminho 668" d="M148.281,411.11a5.445,5.445,0,0,1,0,3.777A5.444,5.444,0,0,1,148.281,411.11Z" transform="translate(-135.39 -411.11)"/>
        <path id="Caminho_669" data-name="Caminho 669" d="M149.9,411.11a5.444,5.444,0,0,1,0,3.777A5.444,5.444,0,0,1,149.9,411.11Z" transform="translate(-135.907 -411.11)"/>
        <path id="Caminho_670" data-name="Caminho 670" d="M152.841,411.11a5.444,5.444,0,0,1,0,3.777A5.444,5.444,0,0,1,152.841,411.11Z" transform="translate(-136.847 -411.11)"/>
        <path id="Caminho_671" data-name="Caminho 671" d="M146.921,411.11a5.444,5.444,0,0,1,0,3.777A5.444,5.444,0,0,1,146.921,411.11Z" transform="translate(-134.956 -411.11)"/>
        <path id="Caminho_672" data-name="Caminho 672" d="M135.391,411.11a5.444,5.444,0,0,1,0,3.777A5.444,5.444,0,0,1,135.391,411.11Z" transform="translate(-131.273 -411.11)"/>
        <path id="Caminho_673" data-name="Caminho 673" d="M143.5,411.11a4.887,4.887,0,0,1,.34,1.892,4.764,4.764,0,0,1-.34,1.885,4.873,4.873,0,0,1-.34-1.885,5.016,5.016,0,0,1,.34-1.892Z" transform="translate(-133.862 -411.11)"/>
        <path id="Caminho_674" data-name="Caminho 674" d="M144.67,411.11a5.444,5.444,0,0,1,0,3.777,4.764,4.764,0,0,1-.34-1.885A4.886,4.886,0,0,1,144.67,411.11Z" transform="translate(-134.235 -411.11)"/>
        <path id="Caminho_675" data-name="Caminho 675" d="M156.741,411.11a4.887,4.887,0,0,1,.34,1.892,4.764,4.764,0,0,1-.34,1.885,5.444,5.444,0,0,1,0-3.777Z" transform="translate(-138.092 -411.11)"/>
        <path id="Caminho_676" data-name="Caminho 676" d="M158.491,411.11a5.444,5.444,0,0,1,0,3.777A5.444,5.444,0,0,1,158.491,411.11Z" transform="translate(-138.651 -411.11)"/>
        <path id="Caminho_677" data-name="Caminho 677" d="M154.251,411.11a5.445,5.445,0,0,1,0,3.777A5.444,5.444,0,0,1,154.251,411.11Z" transform="translate(-137.297 -411.11)"/>
        <path id="Caminho_678" data-name="Caminho 678" d="M138.221,411.11a5.444,5.444,0,0,1,0,3.777A5.444,5.444,0,0,1,138.221,411.11Z" transform="translate(-132.177 -411.11)"/>
      </g>
      <path id="Caminho_679" data-name="Caminho 679" d="M150.046,410.48v1l-21.336.674V410.48Z" transform="translate(-114.951 -391.655)" opacity="0.1"/>
      <rect id="Retângulo_192" data-name="Retângulo 192" width="21.336" height="4.716" transform="translate(17.053 9.433)" fill="#2784ff"/>
      <g id="Grupo_110" data-name="Grupo 110" transform="translate(17.593 9.861)" opacity="0.1">
        <path id="Caminho_680" data-name="Caminho 680" d="M134.681,397.31a5.445,5.445,0,0,1,0,3.777A5.445,5.445,0,0,1,134.681,397.31Z" transform="translate(-134.343 -397.31)"/>
        <path id="Caminho_681" data-name="Caminho 681" d="M137.02,397.31a5.016,5.016,0,0,1,.34,1.892,4.873,4.873,0,0,1-.34,1.885,4.764,4.764,0,0,1-.34-1.885A4.887,4.887,0,0,1,137.02,397.31Z" transform="translate(-135.089 -397.31)"/>
        <path id="Caminho_682" data-name="Caminho 682" d="M138.16,397.31a5.016,5.016,0,0,1,.34,1.892,4.873,4.873,0,0,1-.34,1.885,4.764,4.764,0,0,1-.34-1.885A5.016,5.016,0,0,1,138.16,397.31Z" transform="translate(-135.453 -397.31)"/>
        <path id="Caminho_683" data-name="Caminho 683" d="M144.421,397.31a4.887,4.887,0,0,1,.34,1.892,4.764,4.764,0,0,1-.34,1.885A5.444,5.444,0,0,1,144.421,397.31Z" transform="translate(-137.455 -397.31)"/>
        <path id="Caminho_684" data-name="Caminho 684" d="M146.121,397.31a5.445,5.445,0,0,1,0,3.777A5.445,5.445,0,0,1,146.121,397.31Z" transform="translate(-137.998 -397.31)"/>
        <path id="Caminho_685" data-name="Caminho 685" d="M153.12,397.31a4.887,4.887,0,0,1,.34,1.892,4.764,4.764,0,0,1-.34,1.885,4.873,4.873,0,0,1-.34-1.885,5.016,5.016,0,0,1,.34-1.892Z" transform="translate(-140.232 -397.31)"/>
        <path id="Caminho_686" data-name="Caminho 686" d="M154.74,397.31a5.016,5.016,0,0,1,.34,1.892,4.873,4.873,0,0,1-.34,1.885,4.764,4.764,0,0,1-.34-1.885,5.016,5.016,0,0,1,.34-1.892Z" transform="translate(-140.749 -397.31)"/>
        <path id="Caminho_687" data-name="Caminho 687" d="M157.711,397.31a4.887,4.887,0,0,1,.34,1.892,4.764,4.764,0,0,1-.34,1.885,5.444,5.444,0,0,1,0-3.777Z" transform="translate(-141.7 -397.31)"/>
        <path id="Caminho_688" data-name="Caminho 688" d="M151.771,397.31a5.445,5.445,0,0,1,0,3.777A5.445,5.445,0,0,1,151.771,397.31Z" transform="translate(-139.802 -397.31)"/>
        <path id="Caminho_689" data-name="Caminho 689" d="M140.23,397.31a5.016,5.016,0,0,1,.34,1.892,4.873,4.873,0,0,1-.34,1.885,4.764,4.764,0,0,1-.34-1.885A5.016,5.016,0,0,1,140.23,397.31Z" transform="translate(-136.114 -397.31)"/>
        <path id="Caminho_690" data-name="Caminho 690" d="M148.343,397.31a5.445,5.445,0,0,1,0,3.777,5.513,5.513,0,0,1,0-3.777Z" transform="translate(-138.709 -397.31)"/>
        <path id="Caminho_691" data-name="Caminho 691" d="M149.511,397.31a5.445,5.445,0,0,1,0,3.777A5.445,5.445,0,0,1,149.511,397.31Z" transform="translate(-139.08 -397.31)"/>
        <path id="Caminho_692" data-name="Caminho 692" d="M161.591,397.31a5.445,5.445,0,0,1,0,3.777A5.445,5.445,0,0,1,161.591,397.31Z" transform="translate(-142.939 -397.31)"/>
        <path id="Caminho_693" data-name="Caminho 693" d="M163.341,397.31a5.445,5.445,0,0,1,0,3.777A5.445,5.445,0,0,1,163.341,397.31Z" transform="translate(-143.498 -397.31)"/>
        <path id="Caminho_694" data-name="Caminho 694" d="M159.09,397.31a4.886,4.886,0,0,1,.34,1.892,4.764,4.764,0,0,1-.34,1.885,4.873,4.873,0,0,1-.34-1.885A5.016,5.016,0,0,1,159.09,397.31Z" transform="translate(-142.139 -397.31)"/>
        <path id="Caminho_695" data-name="Caminho 695" d="M143.07,397.31a5.016,5.016,0,0,1,.34,1.892,4.873,4.873,0,0,1-.34,1.885,4.764,4.764,0,0,1-.34-1.885,4.886,4.886,0,0,1,.34-1.892Z" transform="translate(-137.022 -397.31)"/>
      </g>
      <path id="Caminho_696" data-name="Caminho 696" d="M154.886,396.68v1l-21.336.674V396.68Z" transform="translate(-116.497 -387.247)" opacity="0.1"/>
      <rect id="Retângulo_193" data-name="Retângulo 193" width="21.336" height="4.716" transform="translate(16.516 4.716)" fill="#2784ff"/>
      <g id="Grupo_111" data-name="Grupo 111" transform="translate(17.053 5.152)" opacity="0.1">
        <path id="Caminho_697" data-name="Caminho 697" d="M162.55,394.16a5.39,5.39,0,0,1,0-3.77A5.492,5.492,0,0,1,162.55,394.16Z" transform="translate(-142.705 -390.39)"/>
        <path id="Caminho_698" data-name="Caminho 698" d="M160.21,394.16a4.981,4.981,0,0,1-.34-1.885,4.832,4.832,0,0,1,.34-1.885,4.71,4.71,0,0,1,.34,1.885A4.982,4.982,0,0,1,160.21,394.16Z" transform="translate(-141.957 -390.39)"/>
        <path id="Caminho_699" data-name="Caminho 699" d="M159.07,394.16a4.852,4.852,0,0,1-.34-1.885,4.71,4.71,0,0,1,.34-1.885,4.832,4.832,0,0,1,.34,1.885A4.981,4.981,0,0,1,159.07,394.16Z" transform="translate(-141.592 -390.39)"/>
        <path id="Caminho_700" data-name="Caminho 700" d="M152.84,394.16a5.39,5.39,0,0,1,0-3.77,5.39,5.39,0,0,1,0,3.77Z" transform="translate(-139.603 -390.39)"/>
        <path id="Caminho_701" data-name="Caminho 701" d="M151.11,394.16a5.39,5.39,0,0,1,0-3.77,5.39,5.39,0,0,1,0,3.77Z" transform="translate(-139.05 -390.39)"/>
        <path id="Caminho_702" data-name="Caminho 702" d="M144.11,394.16a4.852,4.852,0,0,1-.34-1.885,4.71,4.71,0,0,1,.34-1.885A5.39,5.39,0,0,1,144.11,394.16Z" transform="translate(-136.814 -390.39)"/>
        <path id="Caminho_703" data-name="Caminho 703" d="M142.49,394.16a4.852,4.852,0,0,1-.34-1.885,4.71,4.71,0,0,1,.34-1.885,4.832,4.832,0,0,1,.34,1.885,4.982,4.982,0,0,1-.34,1.885Z" transform="translate(-136.296 -390.39)"/>
        <path id="Caminho_704" data-name="Caminho 704" d="M139.52,394.16a5.39,5.39,0,0,1,0-3.77,5.39,5.39,0,0,1,0,3.77Z" transform="translate(-135.348 -390.39)"/>
        <path id="Caminho_705" data-name="Caminho 705" d="M145.46,394.16a4.982,4.982,0,0,1-.34-1.885,4.832,4.832,0,0,1,.34-1.885,4.71,4.71,0,0,1,.34,1.885,4.852,4.852,0,0,1-.34,1.885Z" transform="translate(-137.245 -390.39)"/>
        <path id="Caminho_706" data-name="Caminho 706" d="M157,394.16a4.982,4.982,0,0,1-.34-1.885,4.71,4.71,0,0,1,.34-1.885,4.832,4.832,0,0,1,.34,1.885A4.982,4.982,0,0,1,157,394.16Z" transform="translate(-140.931 -390.39)"/>
        <path id="Caminho_707" data-name="Caminho 707" d="M148.84,394.16a5.39,5.39,0,0,1,0-3.77,5.39,5.39,0,0,1,0,3.77Z" transform="translate(-138.325 -390.39)"/>
        <path id="Caminho_708" data-name="Caminho 708" d="M147.72,394.16a5.39,5.39,0,0,1,0-3.77,5.39,5.39,0,0,1,0,3.77Z" transform="translate(-137.968 -390.39)"/>
        <path id="Caminho_709" data-name="Caminho 709" d="M135.64,394.16a5.39,5.39,0,0,1,0-3.77,5.39,5.39,0,0,1,0,3.77Z" transform="translate(-134.109 -390.39)"/>
        <path id="Caminho_710" data-name="Caminho 710" d="M133.89,394.16a5.39,5.39,0,0,1,0-3.77,5.39,5.39,0,0,1,0,3.77Z" transform="translate(-133.55 -390.39)"/>
        <path id="Caminho_711" data-name="Caminho 711" d="M138.14,394.16a5.39,5.39,0,0,1,0-3.77,5.39,5.39,0,0,1,0,3.77Z" transform="translate(-134.907 -390.39)"/>
        <path id="Caminho_712" data-name="Caminho 712" d="M154.16,394.16a4.981,4.981,0,0,1-.34-1.885,4.832,4.832,0,0,1,.34-1.885,4.71,4.71,0,0,1,.34,1.885A4.982,4.982,0,0,1,154.16,394.16Z" transform="translate(-140.024 -390.39)"/>
      </g>
      <path id="Caminho_713" data-name="Caminho 713" d="M154.1,389.75v1l-21.336.674V389.75Z" transform="translate(-116.244 -385.034)" opacity="0.1"/>
      <rect id="Retângulo_194" data-name="Retângulo 194" width="21.336" height="4.716" transform="translate(15.216)" fill="#2784ff"/>
      <g id="Grupo_112" data-name="Grupo 112" transform="translate(15.76 0.436)" opacity="0.1">
        <path id="Caminho_714" data-name="Caminho 714" d="M131.983,383.46a5.39,5.39,0,0,1,0,3.77A5.492,5.492,0,0,1,131.983,383.46Z" transform="translate(-131.65 -383.46)"/>
        <path id="Caminho_715" data-name="Caminho 715" d="M134.32,383.46a4.982,4.982,0,0,1,.34,1.885,4.852,4.852,0,0,1-.34,1.885,4.765,4.765,0,0,1-.34-1.885A4.982,4.982,0,0,1,134.32,383.46Z" transform="translate(-132.393 -383.46)"/>
        <path id="Caminho_716" data-name="Caminho 716" d="M135.46,383.46a4.852,4.852,0,0,1,.34,1.885,4.764,4.764,0,0,1-.34,1.885,4.852,4.852,0,0,1-.34-1.885A4.982,4.982,0,0,1,135.46,383.46Z" transform="translate(-132.758 -383.46)"/>
        <path id="Caminho_717" data-name="Caminho 717" d="M141.72,383.46a5.39,5.39,0,0,1,0,3.77A5.39,5.39,0,0,1,141.72,383.46Z" transform="translate(-134.758 -383.46)"/>
        <path id="Caminho_718" data-name="Caminho 718" d="M143.42,383.46a5.39,5.39,0,0,1,0,3.77A5.39,5.39,0,0,1,143.42,383.46Z" transform="translate(-135.301 -383.46)"/>
        <path id="Caminho_719" data-name="Caminho 719" d="M150.42,383.46a5.39,5.39,0,0,1,0,3.77,5.39,5.39,0,0,1,0-3.77Z" transform="translate(-137.537 -383.46)"/>
        <path id="Caminho_720" data-name="Caminho 720" d="M152.04,383.46a4.853,4.853,0,0,1,.34,1.885,4.764,4.764,0,0,1-.34,1.885,4.852,4.852,0,0,1-.34-1.885,4.982,4.982,0,0,1,.34-1.885Z" transform="translate(-138.054 -383.46)"/>
        <path id="Caminho_721" data-name="Caminho 721" d="M155.01,383.46a5.39,5.39,0,0,1,0,3.77A5.39,5.39,0,0,1,155.01,383.46Z" transform="translate(-139.003 -383.46)"/>
        <path id="Caminho_722" data-name="Caminho 722" d="M149.07,383.46a4.982,4.982,0,0,1,.34,1.885,4.852,4.852,0,0,1-.34,1.885,4.764,4.764,0,0,1-.34-1.885A4.852,4.852,0,0,1,149.07,383.46Z" transform="translate(-137.105 -383.46)"/>
        <path id="Caminho_723" data-name="Caminho 723" d="M137.53,383.46a4.982,4.982,0,0,1,.34,1.885,4.764,4.764,0,0,1-.34,1.885,4.853,4.853,0,0,1-.34-1.885,4.981,4.981,0,0,1,.34-1.885Z" transform="translate(-133.419 -383.46)"/>
        <path id="Caminho_724" data-name="Caminho 724" d="M145.65,383.46a5.39,5.39,0,0,1,0,3.77A5.39,5.39,0,0,1,145.65,383.46Z" transform="translate(-136.013 -383.46)"/>
        <path id="Caminho_725" data-name="Caminho 725" d="M146.84,383.46a5.39,5.39,0,0,1,0,3.77A5.39,5.39,0,0,1,146.84,383.46Z" transform="translate(-136.393 -383.46)"/>
        <path id="Caminho_726" data-name="Caminho 726" d="M158.89,383.46a5.39,5.39,0,0,1,0,3.77A5.39,5.39,0,0,1,158.89,383.46Z" transform="translate(-140.242 -383.46)"/>
        <path id="Caminho_727" data-name="Caminho 727" d="M160.64,383.46a5.39,5.39,0,0,1,0,3.77A5.39,5.39,0,0,1,160.64,383.46Z" transform="translate(-140.801 -383.46)"/>
        <path id="Caminho_728" data-name="Caminho 728" d="M156.39,383.46a5.39,5.39,0,0,1,0,3.77A5.39,5.39,0,0,1,156.39,383.46Z" transform="translate(-139.444 -383.46)"/>
        <path id="Caminho_729" data-name="Caminho 729" d="M140.37,383.46a4.982,4.982,0,0,1,.34,1.885,4.852,4.852,0,0,1-.34,1.885,4.764,4.764,0,0,1-.34-1.885,4.982,4.982,0,0,1,.34-1.885Z" transform="translate(-134.326 -383.46)"/>
      </g>
      <path id="Caminho_730" data-name="Caminho 730" d="M152.193,382.82v1.007l-21.343.674V382.82Z" transform="translate(-115.634 -382.82)" opacity="0.1"/>
      <rect id="Retângulo_195" data-name="Retângulo 195" width="21.336" height="4.716" transform="translate(15.216 14.149)" fill="#2784ff"/>
      <g id="Grupo_113" data-name="Grupo 113" transform="translate(15.756 14.578)" opacity="0.1">
        <path id="Caminho_731" data-name="Caminho 731" d="M160.641,408.017a5.445,5.445,0,0,1,0-3.777A5.445,5.445,0,0,1,160.641,408.017Z" transform="translate(-140.798 -404.24)"/>
        <path id="Caminho_732" data-name="Caminho 732" d="M158.3,408.017a5.445,5.445,0,0,1,0-3.777A5.445,5.445,0,0,1,158.3,408.017Z" transform="translate(-140.051 -404.24)"/>
        <path id="Caminho_733" data-name="Caminho 733" d="M157.161,408.017a5.445,5.445,0,0,1,0-3.777,4.764,4.764,0,0,1,.34,1.885,4.886,4.886,0,0,1-.34,1.892Z" transform="translate(-139.687 -404.24)"/>
        <path id="Caminho_734" data-name="Caminho 734" d="M150.9,408.017a5.016,5.016,0,0,1-.34-1.892,4.764,4.764,0,0,1,.34-1.885,4.873,4.873,0,0,1,.34,1.885,5.016,5.016,0,0,1-.34,1.892Z" transform="translate(-137.685 -404.24)"/>
        <path id="Caminho_735" data-name="Caminho 735" d="M149.211,408.017a5.445,5.445,0,0,1,0-3.777,5.513,5.513,0,0,1,0,3.777Z" transform="translate(-137.147 -404.24)"/>
        <path id="Caminho_736" data-name="Caminho 736" d="M142.2,408.017a5.016,5.016,0,0,1-.34-1.892,4.874,4.874,0,0,1,.34-1.885,4.764,4.764,0,0,1,.34,1.885,5.016,5.016,0,0,1-.34,1.892Z" transform="translate(-134.906 -404.24)"/>
        <path id="Caminho_737" data-name="Caminho 737" d="M140.581,408.017a5.445,5.445,0,0,1,0-3.777,4.764,4.764,0,0,1,.34,1.885,4.886,4.886,0,0,1-.34,1.892Z" transform="translate(-134.39 -404.24)"/>
        <path id="Caminho_738" data-name="Caminho 738" d="M137.61,408.017a5.016,5.016,0,0,1-.34-1.892,4.764,4.764,0,0,1,.34-1.885,4.873,4.873,0,0,1,.34,1.885,5.016,5.016,0,0,1-.34,1.892Z" transform="translate(-133.44 -404.24)"/>
        <path id="Caminho_739" data-name="Caminho 739" d="M143.551,408.017a5.445,5.445,0,0,1,0-3.777A5.445,5.445,0,0,1,143.551,408.017Z" transform="translate(-135.339 -404.24)"/>
        <path id="Caminho_740" data-name="Caminho 740" d="M155.091,408.017a5.445,5.445,0,0,1,0-3.777,4.765,4.765,0,0,1,.34,1.885,4.887,4.887,0,0,1-.34,1.892Z" transform="translate(-139.025 -404.24)"/>
        <path id="Caminho_741" data-name="Caminho 741" d="M146.981,408.017a5.445,5.445,0,0,1,0-3.777A5.445,5.445,0,0,1,146.981,408.017Z" transform="translate(-136.435 -404.24)"/>
        <path id="Caminho_742" data-name="Caminho 742" d="M145.84,408.017a4.886,4.886,0,0,1-.34-1.892,4.764,4.764,0,0,1,.34-1.885,4.873,4.873,0,0,1,.34,1.885,5.016,5.016,0,0,1-.34,1.892Z" transform="translate(-136.069 -404.24)"/>
        <path id="Caminho_743" data-name="Caminho 743" d="M133.741,408.017a5.445,5.445,0,0,1,0-3.777A5.445,5.445,0,0,1,133.741,408.017Z" transform="translate(-132.205 -404.24)"/>
        <path id="Caminho_744" data-name="Caminho 744" d="M131.981,408.017a5.445,5.445,0,0,1,0-3.777A5.445,5.445,0,0,1,131.981,408.017Z" transform="translate(-131.643 -404.24)"/>
        <path id="Caminho_745" data-name="Caminho 745" d="M136.23,408.017a5.016,5.016,0,0,1-.34-1.892,4.764,4.764,0,0,1,.34-1.885,4.764,4.764,0,0,1,.34,1.885,5.016,5.016,0,0,1-.34,1.892Z" transform="translate(-132.999 -404.24)"/>
        <path id="Caminho_746" data-name="Caminho 746" d="M152.251,408.017a5.445,5.445,0,0,1,0-3.777A5.445,5.445,0,0,1,152.251,408.017Z" transform="translate(-138.118 -404.24)"/>
      </g>
      <path id="Caminho_747" data-name="Caminho 747" d="M152.193,403.61v1l-21.343.674V403.61Z" transform="translate(-115.634 -389.461)" opacity="0.1"/>
      <path id="Caminho_748" data-name="Caminho 748" d="M122.324,400.06c14.047,2.525,10.331,23.33-3.736,20.805S108.25,397.536,122.324,400.06Z" transform="translate(-108.884 -388.259)" fill="#2784ff"/>
      <path id="Caminho_749" data-name="Caminho 749" d="M122.324,400.06c14.047,2.525,10.331,23.33-3.736,20.805S108.25,397.536,122.324,400.06Z" transform="translate(-108.884 -388.259)" opacity="0.1"/>
      <path id="Caminho_750" data-name="Caminho 750" d="M120.612,399.72c13.387,2.4,9.678,23.214-3.736,20.805S107.2,397.317,120.612,399.72Z" transform="translate(-108.493 -388.157)" fill="#2784ff"/>
      <path id="Caminho_751" data-name="Caminho 751" d="M111.08,411.53a8.12,8.12,0,0,0,6.942,8.167c11.127,1.994,14.21-15.279,3.1-17.273l-.218-.034c10.42,2.089,7.432,18.43-3.178,16.524a7.724,7.724,0,0,1-6.642-7.384Z" transform="translate(-109.319 -389.071)" opacity="0.1"/>
      <g id="Grupo_114" data-name="Grupo 114" transform="translate(5.396 15.48)" opacity="0.1">
        <path id="Caminho_752" data-name="Caminho 752" d="M122.437,405.575a.361.361,0,0,1,.252.429l-.143.572a4.764,4.764,0,0,1,2.294,1.633.429.429,0,0,1,.122.381.388.388,0,0,1-.463.265.361.361,0,0,1-.231-.17,4.213,4.213,0,0,0-1.912-1.456l-.994,3.995c2.042,1,2.763,2.042,2.416,3.437-.381,1.518-1.919,2.266-3.716,1.878l-.279,1.116a.354.354,0,1,1-.681-.17l.279-1.13a5.5,5.5,0,0,1-2.865-2.185.367.367,0,0,1-.082-.34.374.374,0,0,1,.442-.265.334.334,0,0,1,.231.163,4.764,4.764,0,0,0,2.464,1.994l1.014-4.083c-2.042-1.007-2.722-2.042-2.355-3.437a2.9,2.9,0,0,1,3.641-1.838l.136-.544A.361.361,0,0,1,122.437,405.575Zm-1.667,5.349.966-3.9a2.151,2.151,0,0,0-2.763,1.314c-.252,1.028.061,1.681,1.8,2.586Zm.408,1.028-.96,3.941c1.429.327,2.566-.272,2.838-1.361s-.116-1.7-1.878-2.545Z" transform="translate(-116.422 -405.565)"/>
      </g>
    </g>
  </g>
</svg>
